<svg id="flat" height="512" viewBox="0 0 512 512" width="512" xmlns="http://www.w3.org/2000/svg"><path d="m376 248h32v48h-32z" fill="#ef5e3b"/><path d="m408 232h32v64h-32z" fill="#fa8669"/><path d="m440 208h32v88h-32z" fill="#ffb0a1"/><path d="m344 288h152v16h-152z" fill="#d1e4ff"/><path d="m136 200h-120v-16h116.68652l45.65625-45.65674 11.31446 11.31348-48 48a8.00076 8.00076 0 0 1 -5.65723 2.34326z" fill="#d1e4ff"/><path d="m48 40h16v30h-16z" fill="#ffc431"/><path d="m80 40h16v40h-16z" fill="#ffc431"/><path d="m144 440h160v56h-160z" fill="#7148db"/><path d="m272 360v80l-24 32h-48l-24-32v-80z" fill="#ffc431"/><path d="m176 400h96v16h-96z" fill="#ffb401"/><path d="m272 432v8l-6 8h-84l-6-8v-8z" fill="#ffb401"/><path d="m392 496-27.69-20.92-68.31-91.08v-64l52.19.044 50.437 105.329 73.724 70.627z" fill="#7148db"/><path d="m352 316.18994a68.15722 68.15722 0 0 1 -3.97 22.93006l-36.03 100.88h-40l-24.84009-49.68994a25.89644 25.89644 0 0 0 -46.31982 0l-24.84009 49.68994h-40l-32.24-56.42-23.42993-41a63.21374 63.21374 0 0 1 49.16993-94.32q2.81982-.25506 5.71-.26h148.6001a68.18174 68.18174 0 0 1 68.1899 68.18994z" fill="#8760e6"/><path d="m168 312a72.00958 72.00958 0 0 1 -64.24 71.58l-23.42993-41a63.21374 63.21374 0 0 1 49.16993-94.32 71.97585 71.97585 0 0 1 38.5 63.74z" fill="#7148db"/><path d="m192 200v56a32 32 0 0 0 32 32 32 32 0 0 0 32-32v-56z" fill="#7148db"/><path d="m296 152v88a8 8 0 0 1 -8 8h-37.47822a8 8 0 0 1 -4.5877-1.44615l-45.93408-32.15395-32-22.3999v-39.05178c0-35.42588 28.37989-64.84281 63.80561-64.94793a63.98244 63.98244 0 0 1 64.19439 63.99971z" fill="#9977ed"/><circle cx="208" cy="144" fill="#08d175" r="32" stroke="#8760e6" stroke-linejoin="round" stroke-width="16"/><path d="m216 176v49.6l-16-11.2v-38.4z" fill="#8760e6"/><path d="m296 176h-40a8.00076 8.00076 0 0 1 -5.65723-2.34326l-16-16 11.31446-11.31348 13.65625 13.65674h36.68652z" fill="#8760e6"/><circle cx="376" cy="448" fill="#a88af2" r="32"/><path d="m336 208h-40v-16h36.68652l53.65625-53.65674 11.31446 11.31348-56 56a8.00076 8.00076 0 0 1 -5.65723 2.34326z" fill="#d1e4ff"/><path d="m416 24a71.99317 71.99317 0 1 0 72 72 72.00575 72.00575 0 0 0 -72-72zm0 104a31.981 31.981 0 1 1 21.48-8.27 32.00409 32.00409 0 0 1 -21.48 8.27z" fill="#ffc431"/><path d="m488 96h-40a32.004 32.004 0 0 0 -32-32v-40a72.00575 72.00575 0 0 1 72 72z" fill="#ffb401"/><path d="m80 64h-40v80h64v-56z" fill="#08d175"/><path d="m64 88h16v32h-16z" fill="#67eba0"/><g fill="#ffc431"><path d="m48 144h16v24h-16z"/><path d="m80 144h16v24h-16z"/><path d="m16 96h24v16h-24z"/><path d="m16 120h24v16h-24z"/><path d="m16 72h24v16h-24z"/><path d="m104 96h24v16h-24z"/><path d="m104 120h24v16h-24z"/></g><circle cx="208" cy="144" fill="#3cde8d" r="12"/><path d="m30.401 467.203 9.599 28.797h76.8l-28.8-48 40-112-72-24-28.639 121.718z" fill="#8760e6"/><circle cx="96" cy="312" fill="#a88af2" r="40"/><circle cx="56" cy="448" fill="#a88af2" r="32"/><path d="m488 96a71.80905 71.80905 0 0 1 -24.49 54.09l-26.03-30.36a31.94838 31.94838 0 0 0 10.52-23.73z" fill="#ffa100"/></svg>