<svg height="472pt" viewBox="-40 0 472 472" width="472pt" xmlns="http://www.w3.org/2000/svg"><path d="m232 56c-4.417969 0-8-3.582031-8-8v-40c0-4.417969 3.582031-8 8-8s8 3.582031 8 8v40c0 4.417969-3.582031 8-8 8zm0 0" fill="#4799cf"/><path d="m192 48h80v56h-80zm0 0" fill="#d9d9d9"/><path d="m224 72h16v40h-16zm0 0" fill="#4799cf"/><path d="m304 304h72v-168l-18-8h-54zm0 0" fill="#d9d9d9"/><path d="m160 304h-72v-168l18-8 46 8h8zm0 0" fill="#d9d9d9"/><path d="m152 104h160v200h-160zm0 0" fill="#ebebeb"/><path d="m72 296h312v32h-312zm0 0" fill="#aae5c8"/><path d="m72 328h312v32h-312zm0 0" fill="#85bc94"/><path d="m72 360h312v32h-312zm0 0" fill="#aae5c8"/><path d="m176 296h112v112h-112zm0 0" fill="#ea9d2d"/><g fill="#5abcf3"><path d="m176 128h16v16h-16zm0 0"/><path d="m208 128h16v16h-16zm0 0"/><path d="m240 128h16v16h-16zm0 0"/><path d="m272 128h16v16h-16zm0 0"/><path d="m176 160h16v16h-16zm0 0"/><path d="m208 160h16v16h-16zm0 0"/><path d="m240 160h16v16h-16zm0 0"/><path d="m272 160h16v16h-16zm0 0"/><path d="m176 192h16v16h-16zm0 0"/><path d="m208 192h16v16h-16zm0 0"/><path d="m240 192h16v16h-16zm0 0"/><path d="m272 192h16v16h-16zm0 0"/><path d="m176 224h16v16h-16zm0 0"/><path d="m208 224h16v16h-16zm0 0"/><path d="m240 224h16v16h-16zm0 0"/><path d="m272 224h16v16h-16zm0 0"/></g><path d="m200 264h40v32h-40zm0 0" fill="#4799cf"/><path d="m232 264h32v32h-32zm0 0" fill="#5abcf3"/><path d="m152 200h-80l16-32h64zm0 0" fill="#e06661"/><path d="m88 240h64v16h-64zm0 0" fill="#cdcdcd"/><path d="m312 200h80l-16-32h-64zm0 0" fill="#e06661"/><path d="m312 240h64v16h-64zm0 0" fill="#cdcdcd"/><path d="m112 272h16v24h-16zm0 0" fill="#4799cf"/><path d="m336 272h16v24h-16zm0 0" fill="#4799cf"/><path d="m88 136 32-32h32v32zm0 0" fill="#e06661"/><path d="m376 136-32-32h-32v32zm0 0" fill="#e06661"/><path d="m192 296h96v32h-96zm0 0" fill="#fbb540"/><path d="m352 354.527344-97.160156 35.007812c-4.34375 1.566406-9.152344 1.179688-13.191406-1.0625l-65.648438-36.472656h60c15.464844 0 28-12.535156 28-28s-12.535156-28-28-28h-60l-112 40h-8v104h8l171.199219 31.136719c3.109375.5625 6.316406.191406 9.214843-1.066407l126.226563-54.597656c16.195313-5.628906 25.039063-23.054687 20.027344-39.449218-5.015625-16.394532-22.097657-25.890626-38.667969-21.496094zm0 0" fill="#fdc9a6"/><path d="m0 336h64v136h-64zm0 0" fill="#4799cf"/></svg>