<?xml version="1.0" encoding="iso-8859-1"?>
<!-- Generator: Adobe Illustrator 19.0.0, SVG Export Plug-In . SVG Version: 6.00 Build 0)  -->
<svg version="1.1" id="Capa_1" xmlns="http://www.w3.org/2000/svg" xmlns:xlink="http://www.w3.org/1999/xlink" x="0px" y="0px"
	 viewBox="0 0 512 512" style="enable-background:new 0 0 512 512;" xml:space="preserve">
<polygon style="fill:#D1E8FF;" points="512,147.584 235.984,127.568 256,468.228 512,468.228 "/>
<polygon style="fill:#F5F5FF;" points="0,147.584 0,468.228 256,468.228 256,127.568 "/>
<polygon style="fill:#6283A3;" points="512,20.013 256,20.013 235.984,83.798 256,147.584 512,147.584 "/>
<rect y="20.017" style="fill:#9ABADB;" width="256" height="127.57"/>
<rect x="47.839" y="68.799" style="fill:#FF0099;" width="31.893" height="30"/>
<rect x="111.62" y="68.799" style="fill:#FFED94;" width="31.893" height="30"/>
<rect x="175.41" y="68.799" style="fill:#0093C4;" width="31.893" height="30"/>
<path style="fill:#9ABADB;" d="M309.75,290.587v79.882h30v-79.882c0-46.18-37.57-83.75-83.75-83.75l-10.008,15.761L256,236.837
	C285.638,236.837,309.75,260.949,309.75,290.587z"/>
<path style="fill:#D1E8FF;" d="M172.25,290.587v79.882h30v-79.882c0-29.638,24.112-53.75,53.75-53.75v-30
	C209.82,206.837,172.25,244.407,172.25,290.587z"/>
<polygon style="fill:#FF8E00;" points="354.774,350.453 256,350.453 235.984,421.217 256,491.981 354.774,491.981 "/>
<rect x="157.23" y="350.457" style="fill:#FFCD00;" width="98.77" height="141.53"/>
<g>
</g>
<g>
</g>
<g>
</g>
<g>
</g>
<g>
</g>
<g>
</g>
<g>
</g>
<g>
</g>
<g>
</g>
<g>
</g>
<g>
</g>
<g>
</g>
<g>
</g>
<g>
</g>
<g>
</g>
</svg>
