<?xml version="1.0"?>
<svg xmlns="http://www.w3.org/2000/svg" xmlns:xlink="http://www.w3.org/1999/xlink" xmlns:svgjs="http://svgjs.com/svgjs" version="1.1" width="512" height="512" x="0" y="0" viewBox="0 0 512 512" style="enable-background:new 0 0 512 512" xml:space="preserve" class=""><g><g xmlns="http://www.w3.org/2000/svg" id="flat"><rect fill="#70dded" height="320" rx="10" width="464" x="24" y="72" data-original="#ea9d2d" style="" class=""/><path d="m400 104h-288a56 56 0 0 1 -56 56v144a56 56 0 0 1 56 56h288a56 56 0 0 1 56-56v-144a56 56 0 0 1 -56-56z" fill="#eaeae8" data-original="#eaeae8" style="" class=""/><path d="m416 352v88l-32-32-32 32v-88z" fill="#0296e5" data-original="#0296e5" style="" class=""/><path d="m416 352v15.15l-16.19-.97-15.81 17.82-15.81-17.82-16.19.97v-15.15z" fill="#0296e5" data-original="#0296e5" style="" class=""/><path d="m416 352v15.15l-16.19-.97-15.81 17.82-15.81-17.82-16.19.97v-15.15z" fill="#0a6fa2" data-original="#0a6fa2" style="" class=""/><g fill="#cbcbcb"><path d="m320 160h-128a8 8 0 0 1 0-16h128a8 8 0 0 1 0 16z" fill="#cbcbcb" data-original="#cbcbcb" style="" class=""/><path d="m152 208h-40a8 8 0 0 1 0-16h40a8 8 0 0 1 0 16z" fill="#cbcbcb" data-original="#cbcbcb" style="" class=""/><path d="m352 208h-168a8 8 0 0 1 0-16h168a8 8 0 0 1 0 16z" fill="#cbcbcb" data-original="#cbcbcb" style="" class=""/><path d="m208 240h-80a8 8 0 0 1 0-16h80a8 8 0 0 1 0 16z" fill="#cbcbcb" data-original="#cbcbcb" style="" class=""/><path d="m320 240h-72a8 8 0 0 1 0-16h72a8 8 0 0 1 0 16z" fill="#cbcbcb" data-original="#cbcbcb" style="" class=""/><path d="m240 320h-104a8 8 0 0 1 0-16h104a8 8 0 0 1 0 16z" fill="#cbcbcb" data-original="#cbcbcb" style="" class=""/></g><path d="m240 296h-8a8 8 0 0 1 0-16h8a8 8 0 0 1 0 16z" fill="#e75653" data-original="#ee5e5b" style="" class=""/><path d="m207.994 296a7.973 7.973 0 0 1 -3.572-.847 27.917 27.917 0 0 0 -24.844 0 8 8 0 0 1 -11.578-7.153v-8a8 8 0 0 0 -16 0v8a8 8 0 0 1 -16 0v-8a24 24 0 0 1 47.814-2.988 43.979 43.979 0 0 1 27.764 3.833 8 8 0 0 1 -3.584 15.155z" fill="#e75653" data-original="#ee5e5b" style="" class=""/><path d="m384 264 15.814 17.821 23.784-1.419-1.419 23.784 17.821 15.814-17.821 15.814 1.419 23.784-23.784-1.419-15.814 17.821-15.814-17.821-23.784 1.419 1.419-23.784-17.821-15.814 17.821-15.814-1.419-23.784 23.784 1.419z" fill="#fbb540" data-original="#fbb540" style="" class=""/><circle cx="384" cy="320" fill="#70dded" r="16" data-original="#ea9d2d" style="" class=""/></g></g></svg>
