<svg height="512" viewBox="0 0 512 512" width="512" xmlns="http://www.w3.org/2000/svg"><path d="m240 289h32v160h-32z" fill="#8e7760"/><path d="m240 441-16 24v16h64v-16l-16-24z" fill="#a8a8a8"/><path d="m240 297h32v16h-32z" fill="#746250"/><path d="m448 321h16v168h-16z" fill="#a8a8a8"/><path d="m448 321h16v24h-16z" fill="#878787"/><path d="m424 297h48a16 16 0 0 1 16 16 16 16 0 0 1 -16 16h-48z" fill="#f85542"/><path d="m416 265-62.219 48-17.781 168h24l24-160 14.704 160h24l-6.704-144 48-40v-32-8h-48z" fill="#6a9876"/><path d="m48 321h16v168h-16z" fill="#a8a8a8"/><path d="m48 321h16v24h-16z" fill="#878787"/><path d="m88 297h-48a16 16 0 0 0 -16 16 16 16 0 0 0 16 16h48z" fill="#f85542"/><path d="m96 265 62.219 48 17.781 168h-24l-24-160-14.704 160h-24l6.704-144-48-40v-32-16h48z" fill="#dc9315"/><path d="m224 201h64v72h-64z" fill="#ce9c77"/><path d="m224 201h64v32h-64z" fill="#efb58b"/><path d="m406.7 201-38.7 32-56 32h56l43.864-28.474 4.136 28.474h48v-48a16 16 0 0 0 -16-16z" fill="#83bd93"/><circle cx="438.704" cy="153" fill="#83bd93" r="24"/><path d="m192 177-56 24h-72a16 16 0 0 0 -16 16v48h48l4.648-32h43.352z" fill="#fdb62f"/><circle cx="73.296" cy="153" fill="#fdb62f" r="24"/><rect fill="#a98e72" height="32" rx="8" width="144" x="184" y="265"/><path d="m296 33h-112a16 16 0 0 0 -16 16v48a16 16 0 0 0 16 16v32l40-32h72a16 16 0 0 0 16-16v-48a16 16 0 0 0 -16-16z" fill="#69b9e7"/><path d="m360 65h-112a16 16 0 0 0 -16 16v48a16 16 0 0 0 16 16h64l40 32v-32h8a16 16 0 0 0 16-16v-48a16 16 0 0 0 -16-16z" fill="#69b9e7"/><path d="m312 65h-64a16 16 0 0 0 -16 16v32h64a16 16 0 0 0 16-16z" fill="#4298d1"/><path d="m224 465h64v16h-64z" fill="#878787"/></svg>