<svg height="512" viewBox="0 0 512 512" width="512" xmlns="http://www.w3.org/2000/svg"><g id="flat"><path d="m400 456a15.991 15.991 0 0 0 -14 8.262 7.984 7.984 0 0 0 -2-.262h-256a7.984 7.984 0 0 0 -2 .262 16 16 0 1 0 0 15.476 7.984 7.984 0 0 0 2 .262h256a7.984 7.984 0 0 0 2-.262 16 16 0 1 0 14-23.738z" fill="#0296e5"/><path d="m380 112h-28.334a96 96 0 0 0 -174.15-47.292 64.02 64.02 0 0 0 -72.374 51.279 92.038 92.038 0 0 0 -65.142 88.013 92 92 0 0 0 92 92h248a92 92 0 0 0 92-92 92 92 0 0 0 -92-92z" fill="#eaeae8"/><path d="m336 416h-160v-78a18 18 0 0 1 18-18h124a18 18 0 0 1 18 18z" fill="#2fbbdf"/><path d="m328 416h-152v-78a18 18 0 0 1 18-18h116a18 18 0 0 1 18 18z" fill="#43dcfe"/><circle cx="256" cy="272" fill="#02a437" r="80"/><path d="m296 272a8 8 0 0 0 -16 0 24.037 24.037 0 0 1 -18.765 23.418l1.92-3.84a8 8 0 0 0 -14.31-7.156l-8 16a8 8 0 0 0 .209 7.547l8 14a8 8 0 1 0 13.892-7.938l-1.386-2.426a40.055 40.055 0 0 0 34.44-39.605z" fill="#027e2a"/><path d="m249.791 250.955a8 8 0 0 0 12.418 10.09l13-16a8 8 0 0 0 0-10.09l-13-16a8 8 0 0 0 -12.418 10.09l2.543 3.13a40.05 40.05 0 0 0 -36.334 39.825 8 8 0 0 0 16 0 24.035 24.035 0 0 1 19.9-23.643z" fill="#027e2a"/><path d="m240 448v16l-1.689.845a25.887 25.887 0 0 0 -14.311 23.155h64a25.887 25.887 0 0 0 -14.311-23.155l-1.689-.845v-16z" fill="#eaeae8"/><path d="m318 448h-124a18 18 0 0 1 -18-18v-14h160v14a18 18 0 0 1 -18 18z" fill="#cbcbcb"/><path d="m310 448h-116a18 18 0 0 1 -18-18v-14h152v14a18 18 0 0 1 -18 18z" fill="#eaeae8"/><g fill="#cbcbcb"><path d="m256 152h-8a8 8 0 0 1 0-16h8a8 8 0 0 1 0 16z"/><path d="m216 152h-8a8 8 0 0 1 0-16h8a8 8 0 0 1 0 16z"/><path d="m312 152h-24a8 8 0 0 1 0-16h24a8 8 0 0 1 0 16z"/><path d="m240 448h32v16h-32z"/></g></g></svg>