<?xml version="1.0" encoding="utf-8"?>
<!-- Generator: Adobe Illustrator 18.0.0, SVG Export Plug-In . SVG Version: 6.00 Build 0)  -->
<!DOCTYPE svg PUBLIC "-//W3C//DTD SVG 1.1//EN" "http://www.w3.org/Graphics/SVG/1.1/DTD/svg11.dtd">
<svg xmlns="http://www.w3.org/2000/svg" xmlns:xlink="http://www.w3.org/1999/xlink" version="1.1" id="Layer_2" x="0px" y="0px" viewBox="0 0 64 64" style="enable-background:new 0 0 64 64;" xml:space="preserve" width="512" height="512">
<style type="text/css">
	.st0{fill:#EDEFF1;}
	.st1{fill:#D3D3D3;}
	.st2{fill:#98CA69;}
	.st3{fill:#80D6FB;}
	.st4{fill:#FFB0AA;}
	.st5{fill:#FFE352;}
	.st6{fill:#6E83B7;}
	.st7{fill:#466089;}
	.st8{fill:#FFD3B3;}
	.st9{fill:#FCB98B;}
	.st10{fill:#FFB236;}
	.st11{fill:#46BEE8;}
	.st12{fill:#E0E2FF;}
	.st13{fill:#8FA5D1;}
	.st14{fill:#75AA40;}
</style>
<g>
	<g>
		<g>
			<g>
				<path class="st0" d="M61,34H41v-7c0-2.209,1.791-4,4-4h12c2.209,0,4,1.791,4,4V34z"/>
			</g>
			<g>
				<g>
					<rect x="44" y="31" class="st1" width="1" height="3"/>
				</g>
			</g>
			<g>
				<g>
					<rect x="57" y="31" class="st1" width="1" height="3"/>
				</g>
			</g>
			<g>
				<polygon class="st9" points="51,21 48,21 48,22 51,25 54,22 54,21     "/>
			</g>
			<g>
				<path class="st8" d="M57,16c0,3.314-2.686,6-6,6s-6-2.686-6-6v-4h12V16z"/>
			</g>
			<g>
				<path class="st9" d="M45,16c-1.105,0-2-0.895-2-2s0.895-2,2-2V16z"/>
			</g>
			<g>
				<path class="st9" d="M57,16c1.105,0,2-0.895,2-2s-0.895-2-2-2V16z"/>
			</g>
			<g>
				<path class="st6" d="M45,15l1-3h10l1,3v-5c0-1.105-0.895-2-2-2h0v0c0-1.105-0.895-2-2-2h-4c-2.209,0-4,1.791-4,4V15z"/>
			</g>
			<g>
				<polygon class="st1" points="48,22 51,25 49,27 47,23     "/>
			</g>
			<g>
				<polygon class="st1" points="54,22 51,25 53,27 55,23     "/>
			</g>
		</g>
		<g>
			<polygon class="st4" points="51,28 52,28 53,27 51,25 49,27 50,28    "/>
		</g>
		<g>
			<polygon class="st4" points="52,28 53,34 51,34 49,34 50,28    "/>
		</g>
	</g>
	<g>
		<g>
			<g>
				<path class="st0" d="M23,34H3v-7c0-2.209,1.791-4,4-4h12c2.209,0,4,1.791,4,4V34z"/>
			</g>
			<g>
				<g>
					<rect x="6" y="31" class="st1" width="1" height="3"/>
				</g>
			</g>
			<g>
				<g>
					<rect x="19" y="31" class="st1" width="1" height="3"/>
				</g>
			</g>
			<g>
				<polygon class="st9" points="13,21 10,21 10,22 13,25 16,22 16,21     "/>
			</g>
			<g>
				<path class="st8" d="M19,16c0,3.314-2.686,6-6,6s-6-2.686-6-6v-4h12V16z"/>
			</g>
			<g>
				<path class="st9" d="M7,16c-1.105,0-2-0.895-2-2s0.895-2,2-2V16z"/>
			</g>
			<g>
				<path class="st9" d="M19,16c1.105,0,2-0.895,2-2s-0.895-2-2-2V16z"/>
			</g>
			<g>
				<path class="st6" d="M7,15l1-3h10l1,3v-5c0-1.105-0.895-2-2-2h0v0c0-1.105-0.895-2-2-2h-4c-2.209,0-4,1.791-4,4V15z"/>
			</g>
			<g>
				<polygon class="st1" points="10,22 13,25 11,27 9,23     "/>
			</g>
			<g>
				<polygon class="st1" points="16,22 13,25 15,27 17,23     "/>
			</g>
		</g>
		<g>
			<polygon class="st4" points="13,28 14,28 15,27 13,25 11,27 12,28    "/>
		</g>
		<g>
			<polygon class="st4" points="14,28 15,34 13,34 11,34 12,28    "/>
		</g>
	</g>
	<g>
		<g>
			<path class="st6" d="M44,34H20v-6c0-3.314,2.686-6,6-6h12c3.314,0,6,2.686,6,6V34z"/>
		</g>
		<g>
			<g>
				<rect x="34" y="31" class="st7" width="4" height="1"/>
			</g>
		</g>
		<g>
			<polygon class="st1" points="36,22 32,34 28,22    "/>
		</g>
		<g>
			<polygon class="st9" points="35,24 32,24 29,24 29,20 35,20    "/>
		</g>
		<g>
			<path class="st8" d="M39,14c0,3.866-3.134,7-7,7s-7-3.134-7-7V8h14V14z"/>
		</g>
		<g>
			<path class="st9" d="M39,14c1.105,0,2-0.895,2-2s-0.895-2-2-2V14z"/>
		</g>
		<g>
			<path class="st9" d="M25,14c-1.105,0-2-0.895-2-2s0.895-2,2-2V14z"/>
		</g>
		<g>
			<path class="st6" d="M38,10l1,4v-4V8c0-3.314-2.686-6-6-6h-1h-1c-3.314,0-6,2.686-6,6v2v4l1-4h0.757     c0.265,0,0.52-0.105,0.707-0.293l0.121-0.121C27.961,9.211,28.47,9,29,9h3h3c0.53,0,1.039,0.211,1.414,0.586l0.121,0.121     C36.723,9.895,36.977,10,37.243,10H38z"/>
		</g>
		<g>
			<polygon class="st0" points="29,21 32,24 30,26 28,22    "/>
		</g>
		<g>
			<polygon class="st0" points="35,21 32,24 34,26 36,22    "/>
		</g>
		<g>
			<polygon class="st4" points="32,28 33,28 34,26 32,24 30,26 31,28    "/>
		</g>
		<g>
			<polygon class="st4" points="31,28 30,34 32,34 34,34 33,28    "/>
		</g>
		<g>
			<polygon class="st13" points="36,22 32,34 34,34 35,33 35,30 37,27    "/>
		</g>
		<g>
			<polygon class="st13" points="28,22 32,34 30,34 29,33 29,30 27,27    "/>
		</g>
		<g>
			<g>
				<rect x="39" y="31" class="st7" width="1" height="3"/>
			</g>
		</g>
		<g>
			<g>
				<rect x="24" y="31" class="st7" width="1" height="3"/>
			</g>
		</g>
	</g>
	<g>
		<polygon class="st3" points="2,34 2,38 3,38 3,62 61,62 61,38 62,38 62,34   "/>
	</g>
	<g>
		<rect x="3" y="38" class="st11" width="58" height="2"/>
	</g>
</g>
</svg>
