<svg enable-background="new 0 0 64 64" height="512" viewBox="0 0 64 64" width="512" xmlns="http://www.w3.org/2000/svg"><g id="Icons"><g><path d="m60 14v32c0 1.1-.9 2-2 2h-52c-1.1 0-2-.9-2-2v-32c0-1.1.9-2 2-2h52c1.1 0 2 .9 2 2z" fill="#0a5078"/><path d="m58 15v26c0 .552-.448 1-1 1h-50c-.552 0-1-.448-1-1v-26c0-.552.448-1 1-1h50c.552 0 1 .448 1 1z" fill="#fab400"/><path d="m58 15v26c0 .55-.45 1-1 1h-50c-.55 0-1-.45-1-1v-26c0-.55.45-1 1-1h50c.55 0 1 .45 1 1z" fill="#fab400"/><path d="m48 14v1.05 5.23c0 10.69-6.21 16.82-15.64 20.57-.25.1-.53.09-.78 0-9.63-3.92-15.58-10.08-15.58-20.57l.01-6.28z" fill="#be7800"/><path d="m48 10.07v3.98 5.23c0 10.695-6.21 16.824-15.644 20.569-.245.097-.527.096-.771-.004-9.634-3.918-15.585-10.074-15.585-20.565l.01-9.21c.001-.59.486-1.074 1.071-1.001 2.463.305 4.838-1.526 5.259-4.219.07-.49.48-.85.97-.85h17.38c.49 0 .9.36.97.85.42 2.692 2.804 4.533 5.266 4.219.577-.073 1.074.419 1.074 1.001z" fill="#00a0c8"/><path d="m32.398 36.584c-.26.113-.57.112-.83-.003-8.679-3.829-12.568-9.205-12.568-17.301l.007-6.53c0-.429.27-.825.682-.945 2.119-.62 3.915-2.165 4.901-4.204.173-.359.518-.601.916-.601h12.994c.397 0 .742.242.915.599.991 2.048 2.786 3.59 4.902 4.209.412.121.683.517.683.947v6.525c0 8.056-4.013 13.58-12.602 17.304z" fill="#f0f0f0"/><path d="m43 60h-22c-.552 0-1-.448-1-1v-1c0-1.105.895-2 2-2h20c1.105 0 2 .895 2 2v1c0 .552-.448 1-1 1z" fill="#0a5078"/><path d="m53 46h4c.552 0 1-.448 1-1s-.448-1-1-1h-4c-.552 0-1 .448-1 1s.448 1 1 1z" fill="#f0f0f0"/><circle cx="49" cy="45" fill="#f0f0f0" r="1"/><path d="m38 56h-12l1.33-8h9.34z" fill="#00a0c8"/><path d="m36.84 49h-9.68l.17-1h9.34z" fill="#0082aa"/><path d="m29.222 27.293-4.828-4.828c-.391-.391-.391-1.024 0-1.414l1.414-1.414c.391-.391 1.024-.391 1.414 0l5.536 5.536-2.121 2.121c-.391.389-1.024.389-1.415-.001z" fill="#a00028"/><path d="m27.101 25.172 9.677-9.677c.391-.391 1.024-.391 1.414 0l1.414 1.414c.391.391.391 1.024 0 1.414l-8.97 8.97c-.391.391-1.024.391-1.414 0z" fill="#c80a50"/></g></g></svg>