<svg id="Capa_1" enable-background="new 0 0 512 512" height="512" viewBox="0 0 512 512" width="512" xmlns="http://www.w3.org/2000/svg"><g><path d="m500.597 44.478h-361.782c-4.442 0-8.48-2.58-10.347-6.61l-14.48-31.258c-1.867-4.03-5.905-6.61-10.347-6.61h-92.238c-6.298 0-11.403 5.105-11.403 11.403v489.194c0 6.298 5.105 11.403 11.403 11.403h30.04l470.557-427.709v-28.41c0-6.298-5.105-11.403-11.403-11.403z" fill="#9dc6fb"/><path d="m85.658 6.61 14.479 31.258c1.867 4.031 5.905 6.61 10.347 6.61h28.33c-4.442 0-8.48-2.58-10.347-6.61l-14.479-31.258c-1.867-4.03-5.905-6.61-10.347-6.61h-28.33c4.442 0 8.48 2.58 10.347 6.61z" fill="#80b4fb"/><path d="m500.597 44.478h-28.33c6.298 0 11.403 5.105 11.403 11.403v50.579l28.33-22.169v-28.41c0-6.298-5.105-11.403-11.403-11.403z" fill="#80b4fb"/><path d="m500.597 512h-459.154v-411.496c0-8.954 7.259-16.213 16.213-16.213h454.344v416.305c0 6.299-5.105 11.404-11.403 11.404z" fill="#f9f6f9"/><path d="m483.67 84.291v416.305c0 6.298-5.105 11.403-11.403 11.403h28.33c6.298 0 11.403-5.105 11.403-11.403v-416.305z" fill="#dddaec"/><g><path d="m80.826 47.362h-43.883c-4.267 0-7.726-3.459-7.726-7.726s3.459-7.726 7.726-7.726h43.883c4.267 0 7.726 3.459 7.726 7.726s-3.459 7.726-7.726 7.726z" fill="#b3e59f"/></g><g><path d="m165.684 280.136-21.764-57.669c-.027-.07-.055-.142-.083-.211-1.402-3.408-4.688-5.609-8.372-5.609-.004 0-.007 0-.011 0-3.688.004-6.973 2.213-8.368 5.627-.024.057-.046.116-.068.174l-21.963 57.666c-1.519 3.988.482 8.452 4.47 9.971s8.451-.482 9.97-4.471l3.575-9.385h24.622l3.534 9.364c1.168 3.094 4.108 5 7.23 5 .906 0 1.828-.161 2.726-.5 3.993-1.506 6.008-5.964 4.502-9.957zm-36.729-19.36 6.483-17.02 6.423 17.02z" fill="#b3e59f"/><path d="m170.186 185.327-3.739-3.739c3.651-5.73 5.777-12.523 5.777-19.806 0-20.386-16.586-36.972-36.972-36.972s-36.972 16.586-36.972 36.972 16.586 36.972 36.972 36.972c7.522 0 14.523-2.264 20.369-6.138l3.639 3.639c1.509 1.508 3.486 2.263 5.463 2.263s3.955-.755 5.463-2.263c3.018-3.018 3.018-7.91 0-10.928zm-34.934-2.026c-11.866 0-21.519-9.654-21.519-21.519s9.653-21.519 21.519-21.519 21.519 9.654 21.519 21.519c0 2.985-.613 5.828-1.716 8.415l-3.581-3.581c-3.017-3.016-7.909-3.016-10.927 0-3.018 3.018-3.018 7.909 0 10.927l3.741 3.741c-2.751 1.281-5.806 2.017-9.036 2.017z" fill="#df73c1"/><g><g><path d="m207.982 155.999h-3.654c-4.267 0-7.726-3.459-7.726-7.726 0-4.268 3.459-7.726 7.726-7.726h3.654c4.267 0 7.726 3.459 7.726 7.726 0 4.268-3.459 7.726-7.726 7.726z" fill="#df73c1"/></g><g><path d="m207.982 183.017h-3.654c-4.267 0-7.726-3.459-7.726-7.726s3.459-7.726 7.726-7.726h3.654c4.267 0 7.726 3.459 7.726 7.726s-3.459 7.726-7.726 7.726z" fill="#df73c1"/></g></g><g><path d="m447.436 169.508h-201.917c-4.267 0-7.726-3.459-7.726-7.726s3.459-7.726 7.726-7.726h201.917c4.268 0 7.726 3.459 7.726 7.726s-3.458 7.726-7.726 7.726z" fill="#df73c1"/></g><g><g><path d="m207.982 247.836h-3.654c-4.267 0-7.726-3.459-7.726-7.726 0-4.268 3.459-7.726 7.726-7.726h3.654c4.267 0 7.726 3.459 7.726 7.726 0 4.268-3.459 7.726-7.726 7.726z" fill="#b3e59f"/></g><g><path d="m207.982 274.854h-3.654c-4.267 0-7.726-3.459-7.726-7.726s3.459-7.726 7.726-7.726h3.654c4.267 0 7.726 3.459 7.726 7.726s-3.459 7.726-7.726 7.726z" fill="#b3e59f"/></g></g><g><g><path d="m447.436 242.623h-201.917c-4.267 0-7.726-3.459-7.726-7.726s3.459-7.726 7.726-7.726h201.917c4.268 0 7.726 3.459 7.726 7.726s-3.458 7.726-7.726 7.726z" fill="#b3e59f"/></g><g><path d="m385.125 280.068h-139.606c-4.267 0-7.726-3.459-7.726-7.726s3.459-7.726 7.726-7.726h139.607c4.268 0 7.726 3.459 7.726 7.726s-3.459 7.726-7.727 7.726z" fill="#b3e59f"/></g></g><path d="m165.684 461.026-21.764-57.67c-.027-.071-.055-.143-.084-.214-1.403-3.406-4.687-5.605-8.37-5.605-.004 0-.009 0-.012 0-3.688.005-6.972 2.213-8.367 5.627-.024.057-.046.116-.068.174l-21.963 57.667c-1.519 3.987.482 8.451 4.47 9.97 3.988 1.518 8.451-.483 9.97-4.471l3.575-9.385h24.622l3.534 9.364c1.168 3.094 4.108 5 7.23 5 .906 0 1.828-.161 2.726-.5 3.992-1.506 6.007-5.964 4.501-9.957zm-36.729-19.36 6.483-17.02 6.423 17.02z" fill="#b3e59f"/><path d="m170.186 366.218-3.739-3.739c3.651-5.73 5.777-12.522 5.777-19.806 0-20.386-16.586-36.972-36.972-36.972s-36.972 16.585-36.972 36.972 16.586 36.972 36.972 36.972c7.522 0 14.524-2.264 20.369-6.138l3.639 3.639c1.509 1.508 3.486 2.263 5.463 2.263s3.955-.755 5.463-2.263c3.018-3.019 3.018-7.91 0-10.928zm-34.934-2.027c-11.866 0-21.519-9.654-21.519-21.519s9.653-21.519 21.519-21.519 21.519 9.654 21.519 21.519c0 2.984-.613 5.828-1.716 8.414l-3.581-3.581c-3.017-3.015-7.909-3.017-10.927 0-3.018 3.018-3.018 7.909 0 10.928l3.742 3.742c-2.752 1.28-5.806 2.016-9.037 2.016z" fill="#df73c1"/><g><g><path d="m207.982 336.89h-3.654c-4.267 0-7.726-3.459-7.726-7.726s3.459-7.726 7.726-7.726h3.654c4.267 0 7.726 3.459 7.726 7.726s-3.459 7.726-7.726 7.726z" fill="#df73c1"/></g><g><path d="m207.982 363.908h-3.654c-4.267 0-7.726-3.459-7.726-7.726s3.459-7.726 7.726-7.726h3.654c4.267 0 7.726 3.459 7.726 7.726s-3.459 7.726-7.726 7.726z" fill="#df73c1"/></g></g><g><path d="m447.436 350.399h-201.917c-4.267 0-7.726-3.459-7.726-7.726s3.459-7.726 7.726-7.726h201.917c4.268 0 7.726 3.459 7.726 7.726s-3.458 7.726-7.726 7.726z" fill="#df73c1"/></g><g><g><path d="m207.982 428.727h-3.654c-4.267 0-7.726-3.459-7.726-7.726 0-4.268 3.459-7.726 7.726-7.726h3.654c4.267 0 7.726 3.459 7.726 7.726s-3.459 7.726-7.726 7.726z" fill="#b3e59f"/></g><g><path d="m207.982 455.745h-3.654c-4.267 0-7.726-3.459-7.726-7.726 0-4.268 3.459-7.726 7.726-7.726h3.654c4.267 0 7.726 3.459 7.726 7.726s-3.459 7.726-7.726 7.726z" fill="#b3e59f"/></g></g><g><g><path d="m447.436 423.513h-201.917c-4.267 0-7.726-3.459-7.726-7.726s3.459-7.726 7.726-7.726h201.917c4.268 0 7.726 3.459 7.726 7.726s-3.458 7.726-7.726 7.726z" fill="#b3e59f"/></g><g><path d="m385.125 460.958h-139.606c-4.267 0-7.726-3.459-7.726-7.726s3.459-7.726 7.726-7.726h139.607c4.268 0 7.726 3.459 7.726 7.726s-3.459 7.726-7.727 7.726z" fill="#b3e59f"/></g></g></g></g></svg>