<svg height="461pt" viewBox="-6 0 461 461.95" width="461pt" xmlns="http://www.w3.org/2000/svg"><path d="m223.636719 230.929688s-98.273438-28.730469-98.273438-115.109376v-58.011718l.660157-.277344c17.625-7.582031 34.78125-16.207031 51.382812-25.820312 16.597656-9.613282 32.613281-20.203126 47.957031-31.710938 30.722657 23.039062 64.070313 42.351562 99.339844 57.53125l.660156.277344v58.011718c0 86.378907-101.726562 115.109376-101.726562 115.109376zm0 0" fill="#f8ec7d"/><path d="m331.363281 325.269531c-1.449219-9.132812-6.050781-17.46875-13-23.570312l37.953125-20.449219 9.660156-5.210938c11.929688-6.050781 27.589844.492188 34.199219 12.121094l.050781.089844-59.050781 31.839844zm0 0" fill="#cc7350"/><path d="m356.316406 281.25-37.953125 20.449219c-7.25-6.414063-16.605469-9.949219-26.289062-9.929688h-11.871094l31.5625-17.160156c14.300781-8.292969 32.390625-5.925781 44.078125 5.761719zm0 0" fill="#cc7350"/><path d="m407.316406 284.421875c15.148438-8.1875 34.058594-3.015625 42.9375 11.738281l-139.160156 95.550782c-18.757812 9.289062-40.011719 12.289062-60.609375 8.558593l-80.4375-14.820312c-7.402344-1.855469-15.234375-.8125-21.890625 2.910156l-43.5625 27.539063-30.4375-99.828126.257812-.082031c9.390626-1.730469 18.125-6.003906 25.25-12.359375l13.332032-11.859375c26.65625-20.058593 62.292968-23.539062 92.328125-9.019531l5.519531 2.671875c8.636719 4.175781 18.105469 6.347656 27.703125 6.347656h53.527344c19.546875.007813 36.191406 14.203125 39.289062 33.5l9.8125-5.179687 59.050781-31.839844zm0 0" fill="#e48e66"/><path d="m331.863281 337.570312c-.089843 0-.179687 0-.269531-.007812l-45.652344-2.070312c-13.371094-.601563-26.769531.015624-40.03125 1.851562-2.125.296875-4.25-.5625-5.566406-2.253906-1.320312-1.691406-1.636719-3.960938-.828125-5.949219s2.617187-3.390625 4.746094-3.683594c13.984375-1.933593 28.117187-2.585937 42.222656-1.949219l38.789063 1.757813c-3.027344-15.949219-16.964844-27.492187-33.199219-27.5h-53.527344c-10.5-.015625-20.859375-2.390625-30.316406-6.949219l-5.515625-2.671875c-27.925782-13.578125-61.097656-10.382812-85.917969 8.269531l-13.144531 11.691407c-7.945313 7.085937-17.683594 11.851562-28.148438 13.78125-2.121094.417969-4.304687-.335938-5.714844-1.976563-1.410156-1.636718-1.828124-3.910156-1.097656-5.945312.734375-2.03125 2.503906-3.515625 4.636719-3.878906 8.308594-1.53125 16.039063-5.316407 22.34375-10.9375l13.335937-11.863282c.121094-.109375.25-.214844.378907-.3125 28.425781-21.492187 66.503906-25.210937 98.550781-9.628906l5.519531 2.671875c7.828125 3.773437 16.398438 5.738281 25.089844 5.75h53.527344c25.292969 0 45.796875 20.507813 45.789062 45.800781 0 3.3125-2.683593 6-6 6zm0 0" fill="#cc7350"/><g fill="#e48e66"><path d="m225.363281 194.910156c-3.3125 0-6-2.6875-6-6v-6.121094c0-3.3125 2.6875-6 6-6 3.316407 0 6 2.6875 6 6v6.121094c0 3.3125-2.683593 6-6 6zm0 0"/><path d="m245.234375 194.910156c-3.3125 0-6-2.6875-6-6v-6.121094c0-3.3125 2.6875-6 6-6s6 2.6875 6 6v6.121094c0 3.3125-2.6875 6-6 6zm0 0"/><path d="m265.113281 194.910156c-3.3125 0-6-2.6875-6-6v-6.121094c0-3.3125 2.6875-6 6-6 3.316407 0 6 2.6875 6 6v6.121094c0 3.3125-2.683593 6-6 6zm0 0"/><path d="m284.984375 194.910156c-3.3125 0-6-2.6875-6-6v-6.121094c0-3.3125 2.6875-6 6-6s6 2.6875 6 6v6.121094c0 3.3125-2.6875 6-6 6zm0 0"/><path d="m205.496094 194.910156c-3.316406 0-6-2.6875-6-6v-6.121094c0-3.3125 2.683594-6 6-6 3.3125 0 6 2.6875 6 6v6.121094c0 3.3125-2.6875 6-6 6zm0 0"/><path d="m185.613281 194.910156c-3.3125 0-6-2.6875-6-6v-6.121094c0-3.3125 2.6875-6 6-6 3.316407 0 6 2.6875 6 6v6.121094c0 3.3125-2.683593 6-6 6zm0 0"/><path d="m165.746094 194.910156c-3.316406 0-6-2.6875-6-6v-6.121094c0-3.3125 2.683594-6 6-6 3.3125 0 6 2.6875 6 6v6.121094c0 3.3125-2.6875 6-6 6zm0 0"/><path d="m216.785156 141.371094c-1.589844 0-3.117187-.632813-4.242187-1.757813l-22.640625-22.640625c-2.34375-2.34375-2.34375-6.140625 0-8.484375s6.140625-2.34375 8.484375 0l18.402343 18.398438 35.558594-35.558594c1.511719-1.535156 3.730469-2.144531 5.8125-1.589844 2.082032.550781 3.710938 2.179688 4.261719 4.261719.550781 2.085938-.054687 4.304688-1.59375 5.816406l-39.796875 39.796875c-1.128906 1.125-2.65625 1.757813-4.246094 1.757813zm0 0"/></g><path d="m104.59375 415.898438 14.042969 46.050781h-96.683594l-21.476563-176.160157h64.449219l9.230469 30.28125zm0 0" fill="#6fe3ff"/><path d="m65.226562 450.019531c-10.433593 0-18.890624-8.457031-18.890624-18.890625 0-10.429687 8.457031-18.890625 18.890624-18.890625 10.429688 0 18.886719 8.460938 18.886719 18.890625-.011719 10.429688-8.460937 18.878906-18.886719 18.890625zm0-25.78125c-3.808593 0-6.890624 3.085938-6.890624 6.890625 0 3.804688 3.082031 6.890625 6.890624 6.890625 3.804688 0 6.886719-3.085937 6.886719-6.890625-.003906-3.800781-3.085937-6.882812-6.886719-6.890625zm0 0" fill="#2561a1"/></svg>