<svg height="512pt" viewBox="-38 0 512 512" width="512pt" xmlns="http://www.w3.org/2000/svg"><path d="m399.449219 184c-.601563.800781-1.398438 1.398438-2.398438 1.800781l-46.402343 21c-3.199219 1.398438-7 .597657-9.398438-2l-10.601562-12.199219c-10.398438 24.398438-15.199219 51-13.800782 77.597657l4.203125 78 35.398438-32.199219v-93.800781c-.199219-10.199219 8.199219-18.597657 18.398437-18.800781 10.203125-.199219 18.601563 8.203124 18.800782 18.402343v.398438 102c0 5.199219-2.199219 10.199219-6 13.800781l-43 39h67l9-127.601562c1.601562-23.796876-6-47.199219-21.199219-65.398438zm0 0" fill="#55acd5"/><path d="m235.648438 357 85.601562-12.398438-2.601562-47.203124-5 9.402343-100.597657 14.597657 13 1.800781c10.597657 1.601562 17.796875 11.402343 16.199219 21.800781-.800781 4.601562-3.199219 8.800781-6.601562 12zm0 0" fill="#60bae2"/><path d="m269.25 420.199219c-6.800781-7.597657-6.199219-19.398438 1.199219-26.199219l86.199219-78.199219v-93.800781c.199218-10.199219 8.402343-18.398438 18.800781-18.398438 10 .199219 18.199219 8.199219 18.398437 18.398438v102c0 5.199219-2.199218 10.199219-6 13.800781l-92.398437 83.597657c-7.601563 7-19.398438 6.402343-26.199219-1.199219zm0 0" fill="#60bae2"/><path d="m284.648438 381.199219-14.199219 12.800781c-7.601563 6.800781-8.398438 18.601562-1.601563 26.199219 6.800782 7.601562 18.601563 8.402343 26.203125 1.601562 0 0 .199219-.199219.199219-.199219l14.199219-12.800781zm0 0" fill="#f9d0b4"/><path d="m332.449219 183.199219 56-21.597657c2.800781-1 5.800781.398438 7 3l4.800781 12.199219c1.398438 3.398438-.199219 7.199219-3.601562 8.800781l-46.398438 21c-3.199219 1.398438-7 .597657-9.402344-2l-10.597656-12.203124c-2.199219-2.398438-1.800781-6.199219.597656-8.199219.402344-.398438 1-.597657 1.601563-1zm0 0" fill="#55acd5"/><path d="m404.050781 507 7.597657-130h-67l-20.597657 18.601562 6.398438 111.398438zm0 0" fill="#6d6c6b"/><path d="m368.847656 377v38.199219l-7.796875-3.199219c-10.203125-4.199219-16.800781-14.199219-16.800781-25.199219v-9.601562zm0 0" fill="#565554"/><path d="m95.449219 507 7.601562-130h-88.800781l7.597656 130zm0 0" fill="#6d6c6b"/><path d="m57.050781 377v38.199219l7.796875-3.199219c10.203125-4.199219 16.800782-14.199219 16.800782-25.199219v-9.601562zm0 0" fill="#565554"/><path d="m92.847656 183.199219-56-21.597657c-2.796875-1-5.796875.398438-7 3l-4.796875 12.199219c-1.402343 3.398438.199219 7.199219 3.597657 8.800781l46.402343 21c3.199219 1.398438 7 .597657 9.398438-2l10.601562-12.203124c2.199219-2.398438 1.796875-6.199219-.601562-8.199219-.398438-.398438-1-.597657-1.601563-1zm0 0" fill="#d3d3dd"/><path d="m97.050781 343.398438c-6-.796876-11.402343-4.597657-14.203125-10l-54-101.398438c-5.199218-9.398438-1.796875-21 7.601563-26.199219 9.398437-5.199219 21-1.800781 26.199219 7.597657 0 .203124.199218.402343.199218.402343l44.402344 83.398438 1.398438-27.199219c1.402343-26.601562-3.199219-53-13.800782-77.601562l-10.597656 12.203124c-2.402344 2.597657-6.199219 3.597657-9.402344 2l-46-20.800781c-1-.402343-1.796875-1-2.398437-1.800781-15.199219 18.199219-22.800781 41.601562-21.199219 65.199219l9 127.601562h88.800781l1.796875-32.402343zm0 0" fill="#d3d3dd"/><path d="m223.050781 361.601562c-1 0-1.800781 0-2.800781-.203124l-123.199219-18c-6-.796876-11.402343-4.597657-14.203125-10l-54-101.398438c-5.199218-9.398438-1.796875-21 7.601563-26.199219 9.398437-5.199219 21-1.800781 26.199219 7.597657 0 .203124.199218.402343.199218.402343l49.402344 92.800781 113.597656 16.597657c10.601563 1.601562 17.800782 11.402343 16.203125 21.800781-1.203125 9.398438-9.402343 16.398438-19 16.601562zm0 0" fill="#e9e9ea"/><path d="m225.847656 323.199219-20-3-5.398437 38.199219 19.800781 2.800781c10.597656 1.402343 20.199219-6.199219 21.398438-16.800781 1.402343-10-5.597657-19.398438-15.800782-21.199219zm0 0" fill="#f9d0b4"/><path d="m219.847656 214.800781c-4.199218 4.199219-10.796875 4.199219-15 0l-24-24c-4-4.402343-3.597656-11 .601563-15 4-3.800781 10.398437-3.800781 14.398437 0l16.402344 16.398438 37.800781-37.800781c.199219-.199219.398438-.398438.796875-.597657-20.199218-21.402343-54-22.199219-75.199218-1.800781-21.199219 20.398438-22.199219 54-1.800782 75.199219 20.402344 21.199219 54 22.199219 75.203125 1.800781 15.398438-14.601562 20.597657-36.800781 13.398438-56.800781zm0 0" fill="#6dcc6d"/><path d="m265.050781 169.601562-45.203125 45.199219c-4.199218 4.199219-10.796875 4.199219-15 0l-24-24c-4-4.402343-3.597656-11 .601563-15 4-3.800781 10.398437-3.800781 14.398437 0l16.402344 16.398438 37.800781-37.800781c4.398438-4 11-3.597657 15 .601562 3.796875 4.199219 3.796875 10.398438 0 14.601562zm0 0" fill="#e9e9ea"/><path d="m111.847656 93.601562c-9.796875 4.597657-22 5.398438-28.597656 5.398438-3 0-6 1.398438-8 3.601562l-3.601562 4c-5-2.601562-11-.402343-13.597657 4.398438-1.601562 3.398438-1.402343 7.199219.796875 10.199219l-3.796875 4.402343c-2.402343 2.796876-6 4.398438-9.800781 4.398438h-15.800781c0 22.800781 18.601562 41.398438 41.398437 41.398438 22.800782 0 41.402344-18.597657 41.402344-41.398438v-28.398438c.199219-2.601562 0-5.402343-.402344-8zm0 0" fill="#f9d0b4"/><path d="m313.449219 93.601562c9.800781 4.597657 22 5.398438 28.601562 5.398438 3 0 6 1.398438 8 3.601562l3.398438 4c5-2.601562 11-.402343 13.601562 4.398438 1.597657 3.398438 1.398438 7.199219-.800781 10.199219l3.800781 4.402343c2.398438 2.796876 6 4.398438 9.796875 4.398438h15.800782c0 22.800781-18.597657 41.398438-41.398438 41.398438s-41.402344-18.597657-41.402344-41.398438v-28.398438c-.199218-2.601562 0-5.402343.601563-8zm0 0" fill="#f9d0b4"/><path d="m61.050781 61.398438s-54.203125-2.796876-31.601562 68.800781h15.800781c3.800781 0 7.199219-1.597657 9.800781-4.398438l3.796875-4.402343c-3.199218-4.597657-2-10.796876 2.601563-14 3-2.199219 7-2.398438 10.199219-.796876l3.402343-4c2-2.402343 5-3.601562 8-3.601562 9.398438 0 20.199219-1.398438 28.597657-5.398438 8.601562-4 15.601562-11 15.601562-23 0-32-48-31.800781-66.199219-9.203124zm0 0" fill="#6d6c6b"/><path d="m364.050781 61.398438s54.199219-2.796876 31.597657 68.800781h-15.800782c-3.796875 0-7.199218-1.597657-9.796875-4.398438l-3.800781-4.402343c3.199219-4.597657 2-10.796876-2.601562-14-3-2.199219-7-2.398438-10.199219-.796876l-3.398438-4c-2-2.402343-5-3.601562-8-3.601562-9.402343 0-20.203125-1.398438-28.601562-5.398438-8.601563-4-15.601563-11-15.601563-23 0-32 48.203125-31.800781 66.203125-9.203124zm0 0" fill="#6d6c6b"/><path d="m204.449219 73.800781h-17.398438c-2.800781 0-5-2.199219-5-5s2.199219-5 5-5h17.398438c2.800781 0 5 2.199219 5 5s-2.199219 5-5 5zm0 0" fill="#55acd5"/><path d="m195.847656 82.601562c-2.796875 0-5-2.203124-5-5v-17.402343c0-2.800781 2.203125-5 5-5 2.800782 0 5 2.199219 5 5v17.402343c0 2.597657-2.398437 5-5 5zm0 0" fill="#55acd5"/><path d="m157.050781 44.800781c-1.402343 0-2.601562-.601562-3.601562-1.402343-.199219-.199219-.398438-.398438-.601563-.796876-.199218-.203124-.398437-.601562-.398437-.800781-.199219-.199219-.199219-.601562-.199219-1 0-.402343 0-.601562-.199219-1 0-.402343 0-.601562.199219-1 0-.402343.199219-.601562.199219-1 .199219-.199219.199219-.601562.398437-.800781.203125-.199219.402344-.601562.601563-.800781s.398437-.398438.800781-.597657c.199219-.203124.597656-.402343.800781-.402343.398438-.199219.597657-.199219 1-.199219.597657-.199219 1.398438-.199219 2 0 .597657.199219 1.199219.398438 1.796875.800781.203125.199219.601563.398438.800782.597657 2 2 2 5.203124 0 7-.199219.203124-.398438.402343-.800782.601562-.199218.199219-.597656.398438-.796875.398438-.402343.203124-.601562.203124-1 .203124-.203125.199219-.601562.199219-1 .199219zm0 0" fill="#ffcd29"/><g fill="#231f20"><path d="m78.449219 212.601562c-1.800781 0-3.601563-.402343-5.398438-1.203124l-46.402343-21.199219c-5.800782-2.597657-8.398438-9.199219-6.199219-15l4.800781-12.199219c2-5.398438 8-8 13.398438-6l56 21.601562c5.601562 2.199219 8.402343 8.398438 6.199218 14-.398437 1.199219-1 2.199219-2 3.199219l-10.597656 12.199219c-2.402344 2.800781-6 4.601562-9.800781 4.601562zm-43.601563-46.203124c-.199218 0-.398437.203124-.398437.203124l-4.601563 12.199219c-.398437 1 0 2 1 2.398438l46.402344 21c1.199219.601562 2.597656.199219 3.398438-.800781l10.601562-12.199219c.398438-.398438.199219-.800781 0-1.199219 0 0-.199219-.199219-.199219-.199219l-56.203125-21.402343c.203125 0 .203125 0 0 0zm0 0"/><path d="m57.050781 512c-2.800781 0-5-2.199219-5-5v-130c0-2.800781 2.199219-5 5-5 2.796875 0 5 2.199219 5 5v130c0 2.800781-2.203125 5-5 5zm0 0"/><path d="m57.050781 420.199219c-2.800781 0-5-2.199219-5-5v-38.199219c0-2.800781 2.199219-5 5-5h24.597657c2.800781 0 5 2.199219 5 5v9.601562c0 13-7.800782 24.796876-19.800782 29.796876l-7.796875 3.203124c-.601562.398438-1.402343.597657-2 .597657zm5-38.199219v25.601562l.796875-.402343c8.402344-3.398438 13.800782-11.597657 13.800782-20.597657v-4.601562zm0 0"/><path d="m368.847656 512c-2.796875 0-5-2.199219-5-5v-130c0-2.800781 2.203125-5 5-5 2.800782 0 5 2.199219 5 5v130c0 2.800781-2.199218 5-5 5zm0 0"/><path d="m368.847656 420.199219c-.597656 0-1.398437-.199219-2-.398438l-7.796875-3.199219c-12-5-20-16.800781-19.800781-29.800781v-9.601562c0-2.800781 2.199219-5 5-5h24.597656c2.800782 0 5 2.199219 5 5v38.199219c0 2.402343-2.199218 4.800781-5 4.800781zm-19.597656-38.199219v4.601562c0 9 5.398438 17.199219 13.800781 20.597657l.796875.402343v-25.601562zm0 0"/><path d="m235.648438 362c-2.800782 0-5-2.199219-5-5 0-1.398438.601562-2.800781 1.800781-3.800781 6-5 6.800781-14 1.601562-20-2.203125-2.597657-5.402343-4.398438-8.800781-4.800781l-13-1.796876c-2.800781-.402343-4.601562-3-4.199219-5.601562.398438-2.199219 2-4 4.199219-4.199219l98.199219-14.800781 3.800781-7c1.398438-2.398438 4.398438-3.398438 6.800781-2 1.597657.800781 2.597657 2.398438 2.597657 4.199219l2.601562 47.199219c.199219 2.601562-1.800781 4.800781-4.199219 5.203124l-85.601562 12.398438c-.398438 0-.601563 0-.800781 0zm2-39.199219c8.601562 6.398438 12 17.597657 8.402343 27.597657l69.796875-10.199219-1.597656-28.597657zm0 0"/><path d="m411.648438 382h-67c-2.800782 0-5-2.199219-5-5 0-1.398438.601562-2.800781 1.601562-3.800781l43-39c2.800781-2.597657 4.398438-6.199219 4.398438-10v-102c0-7.398438-5.800782-13.597657-13.398438-13.597657-7.402344 0-13.601562 5.796876-13.601562 13.398438v.398438 93.601562c0 1.398438-.597657 2.800781-1.597657 3.800781l-35.402343 32.199219c-2 1.800781-5.199219 1.601562-7-.398438-.800782-.800781-1.199219-2-1.199219-3l-4.199219-78c-1.402344-27.402343 3.398438-54.601562 14.199219-79.800781 1-2.601562 4-3.800781 6.601562-2.601562.597657.199219 1.398438.800781 1.796875 1.402343l10.601563 12.199219c.800781 1 2.199219 1.398438 3.398437.800781l46.402344-21c.199219-.203124.398438-.203124.597656-.601562 1-1.199219 2.402344-1.800781 3.800782-1.800781 1.402343 0 2.800781.601562 3.800781 1.800781 16.199219 19.199219 24.199219 43.800781 22.398437 68.800781l-9 127.597657c-.398437 2.402343-2.597656 4.601562-5.199218 4.601562zm-54-10h49.402343l8.796875-123c1.601563-20.800781-4.597656-41.601562-17.199218-58.199219l-18.597657 8.398438c11 2.199219 18.796875 11.800781 19 23v102c0 6.601562-2.800781 13-7.800781 17.402343zm-25.199219-170c-8 21.601562-11.601563 44.800781-10.398438 67.800781l3.597657 67.398438 26-23.597657v-91.601562c0-4.199219 1-8.199219 3.199218-11.800781l-2.199218 1c-5.199219 2.402343-11.398438 1-15.199219-3.398438zm0 0"/><path d="m71.050781 176.601562c-25.601562 0-46.402343-20.800781-46.402343-46.402343 0-2.800781 2.199218-5 5-5h15.800781c2.199219 0 4.398437-1 6-2.800781l1.601562-2c-2.800781-7.796876 1.398438-16.398438 9.199219-19.199219 2.597656-.800781 5.199219-1 7.800781-.597657l1.398438-1.601562c3-3.398438 7.199219-5.398438 11.800781-5.398438 6 0 17.398438-.601562 26.398438-4.800781 2.601562-1.199219 5.402343 0 6.601562 2.398438.199219.402343.199219.800781.398438 1.199219.601562 3 .800781 6 .800781 9v28.601562c0 25.800781-20.800781 46.601562-46.398438 46.601562zm-36.203125-41.402343c2.800782 20 21.203125 33.800781 41.203125 31.199219 18-2.398438 31.398438-18 31.398438-36.199219v-28.597657c0-.402343 0-.601562 0-1-8 2.199219-16 3.398438-24.398438 3.398438-1.601562 0-3.203125.601562-4.203125 2l-3.597656 4c-1.402344 1.800781-4 2.199219-6 1.199219-.800781-.398438-1.402344-.597657-2.199219-.597657-2.800781 0-5 2.199219-5 5 0 1 .398438 2 1 3 1.398438 1.796876 1.199219 4.398438-.402343 6.199219l-3.800782 4.398438c-3.398437 4-8.398437 6.199219-13.398437 6.199219h-10.601563zm0 0"/><path d="m45.25 135.199219h-15.800781c-2.199219 0-4.199219-1.398438-4.800781-3.398438-8.597657-26.800781-7.597657-47.199219 2.601562-60.402343 9.800781-12.796876 25.398438-14.597657 31.398438-14.796876 12.601562-13.601562 36-19.800781 53.601562-13.601562 12.597656 4.398438 20 14.601562 20 27.800781 0 12.398438-6.402344 22-18.402344 27.597657-10.796875 4.800781-23.796875 5.601562-30.597656 5.601562-1.601562 0-3.199219.601562-4.199219 2l-3.601562 4c-1.398438 1.800781-4 2.199219-6 1.199219-.800781-.398438-1.398438-.597657-2.199219-.597657-2.800781 0-5 2.199219-5 5 0 1 .398438 2 1 3 1.398438 1.796876 1.199219 4.398438-.402344 6.199219l-3.796875 4.398438c-3.601562 3.800781-8.601562 6-13.800781 6zm-12-10h12c2.199219 0 4.398438-1 6-2.800781l1.597656-2c-2.796875-7.796876 1.402344-16.398438 9.203125-19.199219 2.597657-.800781 5.199219-1 7.796875-.597657l1.402344-1.601562c3-3.398438 7.199219-5.398438 11.800781-5.398438 6 0 17.398438-.601562 26.398438-4.800781 8.601562-4 12.601562-10 12.601562-18.402343 0-11.398438-7.203125-16.199219-13.203125-18.398438-14.398437-5-34.597656.601562-44 12.199219-1 1.199219-2.597656 2-4.199218 1.800781-.199219 0-16.597657-.601562-25.597657 11-7.402343 10.398438-8.203125 26.398438-1.800781 48.199219zm0 0"/><path d="m346.847656 212.601562c-3.796875 0-7.398437-1.601562-9.796875-4.402343l-10.601562-12.199219c-4-4.601562-3.398438-11.398438 1.199219-15.199219 1-.800781 2-1.402343 3.199218-2l56-21.601562c5.402344-2 11.402344.601562 13.402344 6l4.800781 12.199219c2.199219 5.800781-.402343 12.402343-6.203125 15.203124l-46.398437 21c-2 .597657-3.800781 1-5.601563 1zm-12.597656-24.601562c-.402344.199219-.601562.601562-.402344 1 0 0 0 .199219.203125.199219l10.597657 12.199219c.800781 1 2.199218 1.402343 3.402343.800781l46.398438-21c1-.398438 1.398437-1.398438 1-2.398438l-4.800781-12.199219c0-.203124-.199219-.203124-.398438-.203124zm0 0"/><path d="m354.050781 176.601562c-25.601562 0-46.402343-20.800781-46.402343-46.402343v-28.597657c0-3 .199218-6 .800781-9 .601562-2.800781 3.199219-4.402343 5.800781-4 .398438 0 .800781.199219 1.199219.398438 9 4.199219 20.398437 4.800781 26.398437 4.800781 4.601563 0 8.800782 2 11.800782 5.398438l1.402343 1.601562c8.199219-1.601562 16.199219 3.800781 17.796875 11.800781.601563 2.597657.402344 5.398438-.597656 8l1.597656 2c1.402344 1.796876 3.601563 2.796876 6 2.796876h15.800782c2.800781 0 5 2.203124 5 5 0 25.402343-20.800782 46.203124-46.597657 46.203124zm-36.402343-76v1 28.597657c0 20.199219 16.402343 36.402343 36.402343 36.402343 18.199219 0 33.597657-13.402343 36.199219-31.402343h-10.402344c-5.199218 0-10.199218-2.199219-13.398437-6.199219l-3.800781-4.398438c-1.398438-1.800781-1.597657-4.203124-.398438-6.203124 1.597656-2.398438 1-5.398438-1.199219-7-1.601562-1-3.601562-1.199219-5.203125-.398438-2 1-4.597656.601562-6-1.199219l-3.597656-4c-1-1.199219-2.601562-2-4.199219-2-8.203125.199219-16.402343-1-24.402343-3.199219zm0 0"/><path d="m395.648438 135.199219h-15.800782c-5.199218 0-10.199218-2.199219-13.398437-6.199219l-3.800781-4.398438c-1.398438-1.800781-1.597657-4.203124-.398438-6.203124 1.597656-2.398438 1-5.398438-1.199219-7-1.601562-1-3.601562-1.199219-5.203125-.398438-2 1-4.597656.601562-6-1.199219l-3.597656-4c-1-1.199219-2.601562-2-4.199219-2-6.800781 0-19.800781-.800781-30.601562-5.800781-12-5.601562-18.398438-15.199219-18.398438-27.601562 0-13.199219 7.199219-23.398438 20-27.796876 17.597657-6.203124 41-.203124 53.597657 13.597657 6 .199219 21.601562 2.199219 31.402343 14.800781 10.199219 13.199219 11.199219 33.601562 2.597657 60.398438-1 2.402343-2.800782 3.800781-5 3.800781zm-23.398438-14.597657 1.597656 2c1.402344 1.796876 3.601563 2.796876 6 2.796876h12c6.402344-21.796876 5.601563-37.796876-2-47.796876-9.199218-11.800781-25.398437-11-25.597656-11-1.601562 0-3.199219-.601562-4.199219-1.800781-9.402343-11.800781-29.601562-17.402343-44-12.199219-6 2.199219-13.203125 7-13.203125 18.398438 0 8.398438 4.203125 14.601562 12.601563 18.398438 9 4.203124 20.398437 4.800781 26.398437 4.800781 4.601563 0 8.800782 2 11.800782 5.402343l1.402343 1.597657c8.199219-1.597657 16.199219 3.800781 17.796875 11.800781.601563 2.398438.402344 5-.597656 7.601562zm0 0"/><path d="m404.050781 512h-73.601562c-2.601563 0-4.800781-2-5-4.800781l-6.601563-111.398438c0-1.601562.601563-3 1.601563-4l20.601562-18.800781c1-.800781 2.199219-1.199219 3.398438-1.199219h67c2.800781 0 5 2.199219 5 5v.398438l-7.601563 130c0 2.800781-2.199218 4.800781-4.796875 4.800781zm-68.800781-10h64l7-120h-59.800781l-17.398438 15.800781zm0 0"/><path d="m95.449219 512h-73.601563c-2.597656 0-4.796875-2-5-4.800781l-7.597656-130c-.199219-2.800781 2-5.199219 4.597656-5.199219h.402344 88.800781c2.796875 0 5 2.199219 5 5v.398438l-7.601562 130c-.199219 2.601562-2.398438 4.601562-5 4.601562zm-68.800781-10h64l7-120h-78zm0 0"/><path d="m212.25 222.800781c-4.199219 0-8.199219-1.601562-11-4.601562l-24-24c-6.402344-5.800781-6.601562-15.800781-.800781-22s15.800781-6.597657 22-.800781c.199219.203124.601562.601562.800781.800781l13 13 34.199219-34.199219c6.398437-5.800781 16.199219-5.601562 22 .800781 5.601562 6 5.601562 15.199219 0 21.199219l-45.199219 45.199219c-2.800781 3-6.800781 4.601562-11 4.601562zm-23.800781-45c-3 0-5.601563 2.398438-5.601563 5.597657 0 1.402343.601563 3 1.601563 4l24 24c2.199219 2.203124 5.601562 2.203124 8 0l45-45.398438c2-2.398438 1.800781-5.800781-.398438-8-2.203125-1.800781-5.402343-1.800781-7.402343 0l-37.800782 37.800781c-1 1-2.199218 1.398438-3.597656 1.398438-1.402344 0-2.601562-.597657-3.601562-1.398438l-16.398438-16.402343c-1-1-2.402344-1.597657-3.800781-1.597657zm0 0"/><path d="m212.050781 249.199219c-32.203125 0-58.402343-26.199219-58.402343-58.398438s26.199218-58.402343 58.402343-58.402343c16 0 31.398438 6.601562 42.398438 18.203124 1.800781 2 1.800781 5.199219-.199219 7 0 0-.199219.199219-.199219.199219-.203125.199219-.203125.199219-.402343.398438l-37.800782 37.800781c-1 1-2.199218 1.398438-3.597656 1.398438-1.402344 0-2.601562-.597657-3.601562-1.398438l-16.398438-16.398438c-2-2.402343-5.601562-2.601562-8-.402343-2.402344 2-2.601562 5.601562-.402344 8 .203125.199219.402344.402343.402344.402343l24 24c2.199219 2.199219 5.597656 2.199219 8 0l42.398438-42.402343c2-2 5.199218-2 7 0 .601562.601562 1 1.199219 1.199218 1.800781 11 30.398438-4.597656 64-35 75-6.398437 2-13.199218 3.199219-19.796875 3.199219zm0-107c-26.800781 0-48.402343 21.800781-48.402343 48.402343 0 26.597657 21.800781 48.398438 48.402343 48.398438 26.597657 0 48.398438-21.800781 48.398438-48.398438 0-2.800781-.199219-5.800781-.800781-8.601562l-36.398438 36.398438c-6 6-16 6-22 0l-24-24c-6.402344-5.796876-6.601562-15.796876-.800781-22 5.800781-6.199219 15.800781-6.597657 22-.796876.199219.199219.601562.597657.800781.796876l13 13 31.398438-31.398438c-8.800782-7.601562-20-11.800781-31.597657-11.800781zm0 0"/><path d="m134.449219 512h-129.398438c-2.800781 0-4.9999998-2.199219-4.9999998-5s2.1992188-5 4.9999998-5h129.398438c2.800781 0 5 2.199219 5 5s-2.199219 5-5 5zm0 0"/><path d="m179.847656 512h-20c-2.796875 0-5-2.199219-5-5s2.203125-5 5-5h20c2.800782 0 5 2.199219 5 5s-2.199218 5-5 5zm0 0"/><path d="m431.847656 512h-126.398437c-2.800781 0-5-2.199219-5-5s2.199219-5 5-5h126.398437c2.800782 0 5 2.199219 5 5s-2.199218 5-5 5zm0 0"/><path d="m282.847656 431.398438c-6.597656 0-13-2.796876-17.398437-7.796876-8.800781-9.601562-8-24.601562 1.601562-33.203124l84.597657-76.597657v-91.601562c-.199219-13 10.402343-23.597657 23.402343-23.800781 13-.199219 23.597657 10.402343 23.796875 23.402343v.398438 102c0 6.601562-2.796875 13-7.796875 17.402343l-92.402343 83.597657c-4.199219 4-9.800782 6.199219-15.800782 6.199219zm-10-14.597657c5 5.597657 13.601563 6 19.203125 1l92.398438-83.601562c2.800781-2.597657 4.398437-6.199219 4.398437-10v-102c0-7.398438-5.796875-13.597657-13.398437-13.597657-7.398438 0-13.601563 5.796876-13.601563 13.398438v.398438 93.601562c0 1.398438-.597656 2.800781-1.597656 3.800781l-86.199219 78.199219c-5.800781 4.800781-6.203125 13.398438-1.203125 18.800781zm0 0"/><path d="m282.847656 431.398438c-13 0-23.597656-10.597657-23.597656-23.398438 0-6.601562 2.800781-13 7.800781-17.398438l14.199219-12.800781c2-1.800781 5.199219-1.800781 7 .398438l25 27.402343c1.800781 2 1.800781 5.199219-.402344 7l-14.199218 12.796876c-4.199219 3.800781-9.800782 6-15.800782 6zm1.402344-43-10.402344 9.402343c-5.597656 5-6 13.597657-1.199218 19.199219 4.800781 5.601562 13.601562 6 19.199218 1.199219 0 0 .203125-.199219.203125-.199219l10.597657-9.601562zm0 0"/><path d="m223.050781 366.601562c-1.203125 0-2.402343 0-3.601562-.203124l-123.199219-18c-7.601562-1.199219-14.199219-5.796876-18-12.597657l-54-101.402343c-6.402344-11.796876-2-26.597657 9.800781-32.796876 11.796875-6.203124 26.597657-2 32.796875 9.796876 0 0 0 .203124.203125.203124l48.398438 90.398438 111 16.199219c13.199219 2 22.398437 14.199219 20.601562 27.402343-1.800781 12-11.800781 20.796876-24 21zm-177.203125-158c-7.796875 0-14.199218 6.398438-14.199218 14.199219 0 2.398438.601562 4.597657 1.601562 6.597657l54 101.402343c2.199219 4 6 6.800781 10.597656 7.398438l123.203125 18c7.796875 1.199219 15-4.199219 16.199219-12s-4.199219-15-12-16.199219l-113.601562-16.601562c-1.597657-.199219-3-1.199219-3.597657-2.597657l-49.601562-92.601562c-1.800781-3.398438-4.800781-5.800781-8.398438-7-1.203125-.398438-2.800781-.597657-4.203125-.597657zm0 0"/><path d="m103.050781 382h-88.800781c-2.601562 0-4.800781-2-5-4.601562l-9-127.597657c-1.800781-25.199219 6.199219-49.800781 22.199219-69 1.800781-2.199219 5-2.402343 7-.601562.199219.199219.398437.402343.601562.601562l.597657.597657 46.402343 21c1.199219.601562 2.597657.203124 3.398438-.796876l10.601562-12.203124c1.796875-2 5-2.398438 7-.597657.597657.398438 1 1.199219 1.398438 1.800781 10.800781 25.199219 15.601562 52.398438 14.199219 79.796876l-1.398438 27.203124c-.199219 2.796876-2.601562 4.796876-5.199219 4.796876-1.800781 0-3.402343-1-4.203125-2.597657l-44.398437-83.601562c-3.601563-7-12.199219-9.597657-19.199219-6-7 3.601562-9.601562 12.199219-6 19.199219v.203124l54 101.398438c2.199219 4 6 6.800781 10.597656 7.398438l7.800782 1.203124c2.601562.398438 4.402343 2.597657 4.199218 5.199219l-1.796875 32.398438c-.203125 2.601562-2.402343 4.800781-5 4.800781zm-84.203125-10h79.402344l1.199219-23.199219-3.199219-.402343c-7.601562-1.199219-14.199219-5.796876-18-12.597657l-54-101.402343c-6.199219-11.796876-1.800781-26.597657 10-32.796876 3.199219-1.800781 6.800781-2.601562 10.398438-2.800781l-17.597657-8c-12.601562 16.597657-18.800781 37.398438-17.203125 58.199219zm46-164.398438c1 1.199219 1.800782 2.597657 2.601563 3.796876l36 67.601562.601562-9.199219c1.199219-23-2.203125-46.199219-10.402343-67.800781l-5.199219 6c-3.800781 4.398438-10 5.601562-15.199219 3.398438zm0 0"/><path d="m223.050781 366.601562c-1.203125 0-2.402343 0-3.601562-.203124l-19.800781-2.796876c-2.800782-.402343-4.597657-3-4.199219-5.601562l5.398437-38.199219c.402344-2.800781 3-4.601562 5.601563-4.199219l20 3c13.199219 2 22.398437 14.199219 20.601562 27.597657-1.800781 11.402343-11.800781 20.199219-24 20.402343zm-17-12.402343 15 2.199219c7.796875 1.203124 15-4.199219 16.199219-12 1.199219-7.796876-4.199219-15-12-16.199219l-15-2.199219zm0 0"/></g><path d="m275.050781 16.398438c-8.203125-1.597657-14.402343-8-16-16 0-.199219-.203125-.398438-.402343-.398438-.199219 0-.199219.199219-.398438.398438-1.601562 8.203124-8 14.402343-16 16-.199219 0-.402344.203124-.402344.402343s.203125.199219.402344.398438c8.199219 1.601562 14.398438 8 16 16 0 .199219.199219.402343.398438.402343.199218 0 .199218-.203124.402343-.402343 1.597657-8.199219 8-14.398438 16-16 .199219 0 .398438-.199219.398438-.398438-.199219-.402343-.199219-.402343-.398438-.402343zm0 0" fill="#f75c64"/></svg>