<svg height="512" viewBox="0 0 512 512" width="512" xmlns="http://www.w3.org/2000/svg"><g id="Flat"><path d="m424 379.16v116.84h-400v-116.84a84.8956 84.8956 0 0 1 60.5-81.31l16.22-4.87 43.28-12.98h160l43.28 12.98 16.22 4.87a84.8956 84.8956 0 0 1 60.5 81.31z" fill="#2f4054"/><path d="m216 440h16v56h-16z" fill="#262d43"/><path d="m304 280-80 176-80-176 32-16h96z" fill="#a6b2bc"/><path d="m224 312 24 24 56-56-32-16z" fill="#c4d4e0"/><path d="m224 312-24 24-56-56 32-16z" fill="#c4d4e0"/><path d="m248 336-5.33 8-10.67 16h-16l-10.67-16-5.33-8 24-24z" fill="#e44042"/><path d="m216 360-16 48 24 48 24-48-16-48z" fill="#e44042"/><path d="m144 392 8-24h-24l-27.28-75.02 43.28-12.98 80 176z" fill="#3e5066"/><path d="m88 448h16v48h-16z" fill="#262d43"/><path d="m320 368h-24l8 24-80 64 80-176 43.28 12.98z" fill="#3e5066"/><path d="m344 448h16v48h-16z" fill="#262d43"/><path d="m296 112a88 88 0 0 0 -176 0v56s62.78346 32 88 32a88 88 0 0 0 88-88z" fill="#2f4054"/><path d="m196.544 74h50.912v16h-50.912z" fill="#262d43" transform="matrix(.707 -.707 .707 .707 7.04 180.995)"/><path d="m302.24 152.84a18.36922 18.36922 0 0 1 -1.33008 6.87l-9.79992 24.52a12.36562 12.36562 0 0 1 -17.97 5.93 11.68939 11.68939 0 0 1 -1.14-.81v74.65l-48 48-48-48 16-8v-8h-8a63.99519 63.99519 0 0 1 -64-64v-56l8.4-8.4a135.18157 135.18157 0 0 1 95.6-39.6l17.37 17.37a77.25736 77.25736 0 0 1 22.63 54.63l11.46-11.46a15.49906 15.49906 0 0 1 24.82 4.03 18.48288 18.48288 0 0 1 1.96 8.27z" fill="#f4ceaf"/><path d="m224 248v16h-48l16-8v-8z" fill="#f2c194"/><path d="m168 136h-16a8 8 0 0 1 0-16h16a8 8 0 0 1 0 16z" fill="#2f4054"/><path d="m216 136h-16a8 8 0 0 1 0-16h16a8 8 0 0 1 0 16z" fill="#2f4054"/><path d="m176.00586 192.002a8.00682 8.00682 0 0 1 -7.76709-9.94238l8-32a8.00012 8.00012 0 1 1 15.52246 3.88086l-8 32a8.00381 8.00381 0 0 1 -7.75537 6.06152z" fill="#f2c194"/><path d="m184 219.75244a43.7948 43.7948 0 0 1 -19.57764-4.59717 7.99984 7.99984 0 1 1 7.15528-14.31054 27.91375 27.91375 0 0 0 24.84472 0 7.99984 7.99984 0 1 1 7.15528 14.31054 43.7948 43.7948 0 0 1 -19.57764 4.59717z" fill="#f2c194"/><path d="m248 336-16 24h-16l-16-24a43.26659 43.26659 0 0 0 48 0z" fill="#d1393b"/><circle cx="160" cy="152" fill="#2f4054" r="8"/><circle cx="208" cy="152" fill="#2f4054" r="8"/><path d="m488 392a95.93055 95.93055 0 1 1 -5.47-32 95.43024 95.43024 0 0 1 5.47 32z" fill="#379ec3"/><path d="m488 392a95.43024 95.43024 0 0 1 -12.85 48h-35.15v-80h42.53a95.54312 95.54312 0 0 1 5.47 32z" fill="#2f4054"/><path d="m440 368h-16a81.69206 81.69206 0 0 1 -21.48793-37.95178l-2.51207-10.04822a24 24 0 0 0 -24 24v24h-24a16 16 0 0 0 -16 16v40a16 16 0 0 0 16 16h56l16-16h16z" fill="#f4ceaf"/><path d="m376 352h24v16h-24z" fill="#f2c194"/></g></svg>