<svg height="496pt" viewBox="0 0 496 496" width="496pt" xmlns="http://www.w3.org/2000/svg"><path d="m72 110.089844v-102.089844h384v320h-384zm0 0" fill="#e6e9ed"/><path d="m392 175.464844v-79.464844h16v232h-16zm0 0" fill="#ccd1d9"/><path d="m381.671875 286.464844v22.457031h74.328125v-22.625l-12.902344-12.90625-17.609375 10.441406-5.054687-19.832031h-38.761719zm0 0" fill="#ccd1d9"/><path d="m392 344v-240h-384v352h320v-112zm0 0" fill="#e6e9ed"/><path d="m347.566406 264-5.0625 19.832031-17.601562-10.441406-51.511719 51.511719 10.441406 17.601562-19.832031 5.0625v72.867188l19.832031 5.0625-10.441406 17.601562 12.90625 12.902344h41.703125v-112h64v-80zm0 0" fill="#ccd1d9"/><path d="m488 408v-48l-21.144531-5.398438c-1.015625-2.875-2.175781-5.671874-3.480469-8.410156l11.136719-18.765625-33.9375-33.9375-18.765625 11.136719c-2.738282-1.304688-5.527344-2.472656-8.410156-3.480469l-5.398438-21.144531h-48l-5.398438 21.144531c-2.875 1.015625-5.671874 2.175781-8.410156 3.480469l-18.765625-11.136719-33.9375 33.9375 11.136719 18.765625c-1.304688 2.738282-2.472656 5.527344-3.488281 8.410156l-21.136719 5.398438v48l21.144531 5.398438c1.015625 2.875 2.175781 5.671874 3.488281 8.410156l-11.136718 18.765625 33.9375 33.9375 18.765625-11.136719c2.738281 1.304688 5.527343 2.472656 8.410156 3.480469l5.390625 21.144531h48l5.398438-21.144531c2.875-1.015625 5.671874-2.175781 8.410156-3.480469l18.765625 11.136719 33.9375-33.9375-11.136719-18.765625c1.304688-2.738282 2.472656-5.527344 3.480469-8.410156zm-104 0c-13.257812 0-24-10.742188-24-24s10.742188-24 24-24 24 10.742188 24 24-10.742188 24-24 24zm0 0" fill="#ffc729"/><path d="m384 328c-30.871094 0-56 25.128906-56 56s25.128906 56 56 56 56-25.128906 56-56-25.128906-56-56-56zm0 80c-13.257812 0-24-10.742188-24-24s10.742188-24 24-24 24 10.742188 24 24-10.742188 24-24 24zm0 0" fill="#ffeaa7"/><path d="m8 104h384v64h-384zm0 0" fill="#fcd770"/><path d="m72 8h384v64h-384zm0 0" fill="#ff826e"/><path d="m40 200h176v128h-176zm0 0" fill="#a0d468"/><path d="m496 414.207031v-60.421875l-23.144531-5.914062c-.160157-.390625-.320313-.78125-.488281-1.167969l12.183593-20.535156-20.550781-20.558594v-305.609375h-400v96h-64v368h305.609375l20.558594 20.558594 20.535156-12.183594c.386719.167969.777344.328125 1.167969.488281l5.914062 23.136719h60.429688l5.90625-23.144531c.390625-.160157.78125-.320313 1.167968-.488281l20.535157 12.183593 42.726562-42.726562-12.183593-20.535157c.167968-.394531.328124-.785156.488281-1.167968zm-48-398.207031v48h-368v-48zm-368 64h368v209.609375l-6.167969-6.167969-20.535156 12.183594c-.386719-.167969-.777344-.328125-1.167969-.488281l-5.914062-23.136719h-14.214844v-176h-320zm304 32v48h-368v-48zm-368 336v-272h368v96h-30.214844l-5.90625 23.144531c-.390625.160157-.78125.320313-1.167968.488281l-20.535157-12.183593-42.726562 42.726562 12.183593 20.535157c-.167968.394531-.328124.785156-.488281 1.167968l-23.144531 5.914063v60.421875l23.144531 5.914062c.160157.390625.320313.78125.488281 1.167969l-12.183593 20.535156 6.160156 6.167969zm448.457031-8.695312-25.152343 25.152343-17.097657-10.144531-3.855469 1.839844c-2.480468 1.175781-5.015624 2.238281-7.625 3.160156l-4.03125 1.429688-4.910156 19.257812h-35.570312l-4.917969-19.257812-4.03125-1.429688c-2.609375-.914062-5.144531-1.976562-7.625-3.160156l-3.855469-1.839844-17.097656 10.144531-25.152344-25.152343 10.144532-17.097657-1.839844-3.847656c-1.183594-2.480469-2.238282-5.015625-3.160156-7.625l-1.421876-4.03125-19.257812-4.910156v-35.578125l19.265625-4.910156 1.421875-4.03125c.921875-2.609376 1.976562-5.152344 3.160156-7.625l1.839844-3.847657-10.144531-17.097656 25.152343-25.152344 17.097657 10.144531 3.855469-1.839843c2.480468-1.175781 5.015624-2.238281 7.625-3.160157l4.03125-1.429687 4.910156-19.265625h35.570312l4.917969 19.257812 4.03125 1.429688c2.609375.914062 5.144531 1.976562 7.625 3.160156l3.855469 1.839844 17.097656-10.144531 25.152344 25.152343-10.144532 17.097657 1.839844 3.847656c1.183594 2.480469 2.238282 5.015625 3.160156 7.625l1.421876 4.03125 19.257812 4.910156v35.578125l-19.265625 4.910156-1.421875 4.03125c-.921875 2.609376-1.976562 5.152344-3.160156 7.625l-1.839844 3.847657zm0 0"/><path d="m384 320c-35.289062 0-64 28.710938-64 64s28.710938 64 64 64 64-28.710938 64-64-28.710938-64-64-64zm0 112c-26.472656 0-48-21.527344-48-48s21.527344-48 48-48 48 21.527344 48 48-21.527344 48-48 48zm0 0"/><path d="m384 352c-17.648438 0-32 14.351562-32 32s14.351562 32 32 32 32-14.351562 32-32-14.351562-32-32-32zm0 48c-8.824219 0-16-7.175781-16-16s7.175781-16 16-16 16 7.175781 16 16-7.175781 16-16 16zm0 0"/><path d="m32 128h16v16h-16zm0 0"/><path d="m64 128h16v16h-16zm0 0"/><path d="m96 128h16v16h-16zm0 0"/><path d="m96 32h16v16h-16zm0 0"/><path d="m128 32h16v16h-16zm0 0"/><path d="m160 32h16v16h-16zm0 0"/><path d="m32 336h192v-144h-192zm16-128h160v112h-160zm0 0"/><path d="m32 352h192v16h-192zm0 0"/><path d="m32 384h16v16h-16zm0 0"/><path d="m64 384h160v16h-160zm0 0"/><path d="m208 416h16v16h-16zm0 0"/><path d="m32 416h160v16h-160zm0 0"/></svg>