<svg height="512" viewBox="0 0 64 64" width="512" xmlns="http://www.w3.org/2000/svg"><g id="Icons"><g><g><path d="m42 12c0-1.422.303-2.774.841-4h-30.841v18h8c2.768 0 5.098 1.887 5.787 4.441 1.307.659 2.213 1.999 2.213 3.559v4.556c1.19.694 2 1.97 2 3.444v.764c0 1.525-.848 2.896-2.211 3.578l-1.86.93c-.192 1.25-.775 2.403-1.687 3.314l-1.655 1.657c-.174.174-.359.332-.55.481l5.679 2.557c1.436.716 2.284 2.087 2.284 3.612v1.107h4v-4h2v-2c0-2.206 1.794-4 4-4h4v-2.972c0-1.217-.452-2.307-1.241-2.991-2.202-1.909-3.173-4.772-2.598-7.661.612-3.069 3.078-5.56 6.135-6.198.564-.118 1.138-.178 1.704-.178 1.458 0 2.822.398 4 1.082v-9.082c-5.514 0-10-4.486-10-10z" fill="#f0f0f0"/></g><g><circle cx="52" cy="12" fill="#3cc8b4" r="8"/></g><g><path d="m46 12c0-4.079 3.055-7.438 7-7.931-.328-.041-.661-.069-1-.069-4.418 0-8 3.582-8 8s3.582 8 8 8c.339 0 .672-.028 1-.069-3.945-.493-7-3.852-7-7.931z" fill="#1eaa96"/></g><g><path d="m57 10-6 6-4-4 2-2 2 2 4-4z" fill="#f0f0f0"/></g><g><path d="m44 17.974c-.457-.61-.85-1.269-1.159-1.974h-22.841v2h24z" fill="#d2d2d2"/></g><g><path d="m20 20h24v2h-24z" fill="#d2d2d2"/></g><g><path d="m20 24h24v2h-24z" fill="#d2d2d2"/></g><g><path d="m56 52h-6v-5.172c0-1.71.816-3.268 2.072-4.428 1.185-1.094 1.928-2.659 1.928-4.4 0-3.737-3.416-6.675-7.295-5.864-2.286.478-4.125 2.34-4.582 4.631-.457 2.295.396 4.417 1.946 5.76 1.286 1.115 1.931 2.8 1.931 4.502v4.971h-6c-1.105 0-2 .895-2 2v4h20v-4c0-1.105-.895-2-2-2z" fill="#fab400"/></g><g><path d="m42 52h-2c-1.105 0-2 .895-2 2v4h2v-4c0-1.105.895-2 2-2z" fill="#dc9600"/></g><g><path d="m44.069 42.526c1.286 1.115 1.931 2.8 1.931 4.502v4.972h2v-4.972c0-1.702-.645-3.387-1.931-4.502-1.549-1.343-2.403-3.464-1.946-5.76.456-2.291 2.295-4.153 4.582-4.631.1-.021.197-.029.296-.045-.73-.123-1.502-.121-2.296.045-2.286.478-4.125 2.34-4.582 4.631-.457 2.296.397 4.417 1.946 5.76z" fill="#dc9600"/></g><g><path d="m36 58h24v2h-24z" fill="#be7800"/></g><g><path d="m50.788 44h-5.539c.337.616.554 1.297.664 2h4.159c.111-.709.357-1.381.716-2z" fill="#be7800"/></g><g><path d="m28 60v-1.107c0-.758-.428-1.45-1.106-1.789l-6.894-3.104-4 4-4-4-6.894 3.104c-.678.339-1.106 1.031-1.106 1.789v1.107z" fill="#505050"/></g><g><path d="m8 58.893c0-.758.428-1.45 1.106-1.789l4.136-1.862-1.242-1.242-6.894 3.104c-.678.339-1.106 1.031-1.106 1.789v1.107h4z" fill="#3c3c3c"/></g><g><path d="m12 54v-4h8v4l-4 4z" fill="#d2aa82"/></g><g><path d="m26 40h-2v-6c0-1.105-.895-2-2-2h-12c-1.105 0-2 .895-2 2v6h-2c-1.105 0-2 .895-2 2v.764c0 .758.428 1.45 1.106 1.789l2.894 1.447v.343c0 1.061.421 2.078 1.172 2.828l1.657 1.657c.75.75 1.768 1.172 2.828 1.172h4.686c1.061 0 2.078-.421 2.828-1.172l1.657-1.657c.75-.75 1.172-1.768 1.172-2.828v-.343l2.894-1.447c.678-.339 1.106-1.032 1.106-1.789v-.764c0-1.105-.895-2-2-2z" fill="#f0c8a0"/></g><g><path d="m26 42c-2.209 0-4-1.791-4-4v-6h2c1.105 0 2 .895 2 2z" fill="#dc9600"/></g><g><path d="m44 28h-19.548c.517.576.912 1.256 1.177 2h18.371z" fill="#d2d2d2"/></g><g><path d="m41.077 34c.438-.754.999-1.426 1.651-2h-15.281c.347.588.553 1.268.553 2z" fill="#d2d2d2"/></g><g><path d="m40.016 38c.001-.537.037-1.079.145-1.624.026-.129.073-.249.105-.376h-12.266v2z" fill="#d2d2d2"/></g><g><path d="m41.087 42c-.366-.628-.641-1.298-.822-2h-10.812c.347.587.547 1.269.547 2z" fill="#d2d2d2"/></g><g><path d="m28.344 46h15.53c-.181-.789-.559-1.48-1.115-1.963-.013-.012-.024-.025-.038-.037h-12.922c-.258.801-.762 1.501-1.455 2z" fill="#d2d2d2"/></g><g><path d="m12 8h4v18h-4z" fill="#d2d2d2"/></g><g><path d="m20 28h-8c-3.314 0-6 2.686-6 6v4c0 1.105.895 2 2 2h5.029c3.183 0 6.235-1.264 8.485-3.515l1.314-1.314c.75-.75 1.172-1.768 1.172-2.828v-.343c0-2.209-1.791-4-4-4z" fill="#fab400"/></g><g><path d="m14 42.221h-4c-.276 0-.5-.224-.5-.5s.224-.5.5-.5h4c.276 0 .5.224.5.5s-.224.5-.5.5z" fill="#be7800"/></g><g><circle cx="13" cy="42.721" fill="#be7800" r="1"/></g><g><path d="m22 42.221h-4c-.276 0-.5-.224-.5-.5s.224-.5.5-.5h4c.276 0 .5.224.5.5s-.224.5-.5.5z" fill="#be7800"/></g><g><circle cx="19" cy="42.721" fill="#be7800" r="1"/></g><g><path d="m16 48.499c-.641 0-1.28-.244-1.768-.731l-.586-.585c-.195-.195-.195-.512 0-.707s.512-.195.707 0l.586.585c.584.585 1.537.585 2.121 0l.586-.585c.195-.195.512-.195.707 0s.195.512 0 .707l-.586.585c-.487.487-1.127.731-1.767.731z" fill="#be7800"/></g><g><path d="m20 54-4 4-4-4v6h8z" fill="#f0f0f0"/></g><g><path d="m16 58-2 2h4z" fill="#fa6450"/></g></g></g></svg>