<svg id="flat" height="512" viewBox="0 0 512 512" width="512" xmlns="http://www.w3.org/2000/svg"><g fill="#ffc431"><path d="m16 24h16v192h-16z"/><path d="m16 232h16v16h-16z"/><path d="m24 16h192v16h-192z"/><path d="m232 16h16v16h-16z"/><path d="m84 52.402h16v79.196h-16z" transform="matrix(.707 -.707 .707 .707 -38.108 92)"/><path d="m134 133.515h16v16.971h-16z" transform="matrix(.707 -.707 .707 .707 -58.818 142)"/><path d="m480 24h16v192h-16z"/><path d="m480 232h16v16h-16z"/><path d="m296 16h192v16h-192z"/><path d="m264 16h16v16h-16z"/><path d="m380.402 84h79.196v16h-79.196z" transform="matrix(.707 -.707 .707 .707 57.951 323.915)"/><path d="m361.515 134h16.971v16h-16.971z" transform="matrix(.707 -.707 .707 .707 7.954 303.205)"/><path d="m16 296h16v192h-16z"/><path d="m16 264h16v16h-16z"/><path d="m24 480h192v16h-192z"/><path d="m232 480h16v16h-16z"/><path d="m55.302 419h59.397v16h-59.397z" transform="matrix(.707 -.707 .707 .707 -277.028 185.154)"/><path d="m119.515 376h16.971v16h-16.971z" transform="matrix(.707 -.707 .707 .707 -234.031 202.965)"/><path d="m480 296h16v192h-16z"/><path d="m480 264h16v16h-16z"/><path d="m296 480h192v16h-192z"/><path d="m264 480h16v16h-16z"/><path d="m422 404.544h16v50.912h-16z" transform="matrix(.707 -.707 .707 .707 -178.112 430)"/><path d="m382 381.515h16v16.971h-16z" transform="matrix(.707 -.707 .707 .707 -161.543 390)"/></g><path d="m380.91547 352a19.08452 19.08452 0 0 0 19.08453-19.08453 19.08456 19.08456 0 0 0 -2.37454-9.21931l-117.89623-213.68693a27.10121 27.10121 0 0 0 -23.72923-14.00923 27.10121 27.10121 0 0 0 -23.72921 14.00923l-117.89625 213.68691a19.08456 19.08456 0 0 0 -2.37454 9.21931 19.08452 19.08452 0 0 0 19.08453 19.08455z" fill="#f5714f"/><circle cx="256" cy="296" fill="#ffb0a1" r="16"/><path d="m248 256h16l16-80h-48z" fill="#ffb0a1"/><path d="m24 24h40v40h-40z" fill="#ffc431"/><path d="m64 72h-40a8.00008 8.00008 0 0 1 -8-8v-40a8.00008 8.00008 0 0 1 8-8h40a8.00008 8.00008 0 0 1 8 8v40a8.00008 8.00008 0 0 1 -8 8zm-32-16h24v-24h-24z" fill="#ffe28f"/><path d="m448 24h40v40h-40z" fill="#ffc431" transform="matrix(-1 0 0 -1 936 88)"/><path d="m488 72h-40a8.00008 8.00008 0 0 1 -8-8v-40a8.00008 8.00008 0 0 1 8-8h40a8.00008 8.00008 0 0 1 8 8v40a8.00008 8.00008 0 0 1 -8 8zm-32-16h24v-24h-24z" fill="#ffe28f"/><path d="m24 448h40v40h-40z" fill="#ffc431"/><path d="m64 496h-40a8.00008 8.00008 0 0 1 -8-8v-40a8.00008 8.00008 0 0 1 8-8h40a8.00008 8.00008 0 0 1 8 8v40a8.00008 8.00008 0 0 1 -8 8zm-32-16h24v-24h-24z" fill="#ffe28f"/><path d="m448 448h40v40h-40z" fill="#ffc431" transform="matrix(-1 0 0 -1 936 936)"/><path d="m488 496h-40a8.00008 8.00008 0 0 1 -8-8v-40a8.00008 8.00008 0 0 1 8-8h40a8.00008 8.00008 0 0 1 8 8v40a8.00008 8.00008 0 0 1 -8 8zm-32-16h24v-24h-24z" fill="#ffe28f"/></svg>