<svg height="512" viewBox="0 0 512 512" width="512" xmlns="http://www.w3.org/2000/svg"><g id="Flat"><path d="m336 368-88 88-64-64 32-32v-48l56-56a33.808 33.808 0 0 1 9.87988 22.12012c.04.62988.06006 1.25.06006 1.87988a33.8456 33.8456 0 0 1 -9.93994 24z" fill="#f4ceaf"/><path d="m267.31006 395.31006-11.31006-11.31006a45.52943 45.52943 0 0 0 4.45-58.83008 8 8 0 0 1 .78-10.3999l10.77-10.77002 11.31006 11.31006-6.18994 6.18994a61.69439 61.69439 0 0 1 -9.81006 73.81006z" fill="#f2c194"/><path d="m336 368-27.31006 27.31006-66.34314-66.34315a8 8 0 0 1 0-11.31371l39.53308-39.53308c.04.62988.06006 1.25.06006 1.87988a33.8456 33.8456 0 0 1 -9.93994 24z" fill="#f2c194"/><path d="m256 320 64 64 40-40-64-64z" fill="#f4ceaf"/><path d="m64 496 128-128 88 88-40 40z" fill="#8acce7"/><path d="m355.029 355.431h33.941v113.137h-33.941z" fill="#ad7d4d" transform="matrix(.707 -.707 .707 .707 -182.372 383.716)"/><path d="m147.029 90.863h33.941v226.274h-33.941z" fill="#ad7d4d" transform="matrix(.707 -.707 .707 .707 -96.215 175.716)"/><path d="m232 120 96-96 112 112-84 84a16.97053 16.97053 0 0 1 -24 0z" fill="#eebe33"/><path d="m96 160 108.0004-108.0004a16.97 16.97 0 0 1 23.9992 0l112.0004 112.0004a16.97053 16.97053 0 0 0 -24 0l-108 108z" fill="#eedc9a"/><path d="m344.97 176a16.90662 16.90662 0 0 1 -4.97 12l-8 8a16.96611 16.96611 0 0 0 0 24l-36-36 20-20a16.97 16.97 0 0 1 28.97 12z" fill="#e88604"/></g></svg>