<svg height="512" viewBox="0 0 64 64" width="512" xmlns="http://www.w3.org/2000/svg"><g id="Icons"><g><g><path d="m45.084 46.401-13.084-29.906-13.084 29.906-1.832-.802 14.916-34.094 14.916 34.094z" fill="#c80a50"/></g><g><path d="m32 11.505-5.252 12.005c.565.349 1.167.645 1.799.877l3.453-7.892 3.453 7.893c.632-.233 1.234-.528 1.799-.877z" fill="#a00028"/></g><g><circle cx="18" cy="46" fill="#0a5078" r="14"/></g><g><circle cx="46" cy="46" fill="#00a0c8" r="14"/></g><g><g><circle cx="32" cy="14" fill="#00a0c8" r="9"/></g><g><ellipse cx="32" cy="14" fill="#00a0c8" rx="3" ry="9"/></g><path d="m32 4c-5.523 0-10 4.477-10 10s4.477 10 10 10 10-4.477 10-10-4.477-10-10-10zm7.938 9h-3.958c-.104-2.613-.61-4.931-1.362-6.559 2.826.981 4.937 3.505 5.32 6.559zm-7.938 8.95c-.607-.478-1.806-2.866-1.979-6.95h3.958c-.173 4.084-1.372 6.472-1.979 6.95zm-1.979-8.95c.173-4.084 1.372-6.472 1.979-6.95.607.478 1.806 2.866 1.979 6.95zm-.64-6.559c-.751 1.628-1.257 3.946-1.361 6.559h-3.957c.382-3.054 2.493-5.578 5.318-6.559zm-5.319 8.559h3.957c.104 2.613.61 4.931 1.362 6.559-2.825-.981-4.936-3.505-5.319-6.559zm10.557 6.559c.752-1.629 1.258-3.946 1.362-6.559h3.957c-.383 3.054-2.494 5.578-5.319 6.559z" fill="#0a5078"/></g><g><g><path d="m24 47h-12v11.652c1.819.864 3.853 1.348 6 1.348s4.181-.484 6-1.348z" fill="#00a0c8"/><g><path d="m18 49c-1.105 0-2-.895-2-2v-2h4v2c0 1.105-.895 2-2 2z" fill="#d2aa82"/></g><g><path d="m19 46h-2c-1.657 0-3-1.343-3-3v-4c0-1.657 1.343-3 3-3h2c1.657 0 3 1.343 3 3v4c0 1.657-1.343 3-3 3z" fill="#f0c8a0"/></g><g><path d="m17 36c-1.657 0-3 1.343-3 3v2c.552 0 1-.448 1-1 0-.552.448-1 1-1h4c.552 0 1 .448 1 1 0 .552.448 1 1 1v-2c0-1.657-1.343-3-3-3z" fill="#fab400"/></g><g><path d="m14 40c-.552 0-1 .448-1 1s.448 1 1 1z" fill="#d2aa82"/></g><g><path d="m22 40c.552 0 1 .448 1 1s-.448 1-1 1z" fill="#d2aa82"/></g></g><g><path d="m8 54h4v-7c-2.209 0-4 1.791-4 4z" fill="#0082aa"/></g><path d="m8 55.798c1.148 1.172 2.501 2.143 4 2.855v-4.653h-4z" fill="#f0c8a0"/><g><path d="m28 54h-4v-7c2.209 0 4 1.791 4 4z" fill="#0082aa"/></g><path d="m24 58.652c1.499-.712 2.852-1.683 4-2.855v-1.797h-4z" fill="#f0c8a0"/></g><g><g><path d="m41 45v-6c0-2.209 1.791-4 4-4h2c2.209 0 4 1.791 4 4v6c0 .552-.448 1-1 1h-8c-.552 0-1-.448-1-1z" fill="#0a5078"/></g><g><path d="m51 47h-10v12.081c1.553.593 3.238.919 5 .919s3.447-.326 5-.919z" fill="#c80a50"/><g><path d="m46 49c-1.105 0-2-.895-2-2v-2h4v2c0 1.105-.895 2-2 2z" fill="#d2aa82"/></g></g><g><path d="m38 54h3v-7c-1.657 0-3 1.343-3 3z" fill="#a00028"/></g><path d="m38 57.49c.925.645 1.931 1.181 3 1.59v-5.08h-3z" fill="#f0c8a0"/><g><path d="m54 54h-3v-7c1.657 0 3 1.343 3 3z" fill="#a00028"/></g><path d="m51 59.081c1.069-.409 2.075-.945 3-1.59v-3.491h-3z" fill="#f0c8a0"/><g><path d="m45 46h2c1.657 0 3-1.343 3-3v-3c0-1.105-.895-2-2-2h-1c0 1.105-.895 2-2 2h-3v3c0 1.657 1.343 3 3 3z" fill="#f0c8a0"/></g><g><path d="m50 40c.552 0 1 .448 1 1s-.448 1-1 1z" fill="#d2aa82"/></g><g><path d="m42 40c-.552 0-1 .448-1 1s.448 1 1 1z" fill="#d2aa82"/></g></g></g></g></svg>