<svg id="Flat" height="512" viewBox="0 0 512 512" width="512" xmlns="http://www.w3.org/2000/svg"><g><path d="m24 336h208a0 0 0 0 1 0 0v32a0 0 0 0 1 0 0h-198a10 10 0 0 1 -10-10v-22a0 0 0 0 1 0 0z" fill="#24afd6"/><g><path d="m34 24h294a0 0 0 0 1 0 0v312a0 0 0 0 1 0 0h-304a0 0 0 0 1 0 0v-302a10 10 0 0 1 10-10z" fill="#79d8eb"/><path d="m48 48h208v160h-208z" fill="#dcf9fe"/><g><path d="m256 272v-66.14a20 20 0 0 1 12.978-18.727l51.022-19.133h48l51.022 19.133a20 20 0 0 1 12.978 18.727v66.14z" fill="#fac850"/><path d="m304 64v52.676a20 20 0 0 0 9.71 17.15l11.829 7.1-13.539 27.074 32 32 32-32-13.539-27.077 11.829-7.1a20 20 0 0 0 9.71-17.15v-52.673z" fill="#ffd4cf"/><path d="m392 64h-40v-32l24.851 4.213a20 20 0 0 1 15.149 19.403z" fill="#d76b4c"/><g fill="#fa5d3f"><path d="m312 168 32 32-48 8z"/><path d="m376 168-32 32 48 8z"/><path d="m288 44v-20h52a20 20 0 0 1 20 20v20h-52a20 20 0 0 1 -20-20z"/></g></g><g><path d="m232 304h240v184h-240z" fill="#d76b4c"/><path d="m216 272h272v32h-272z" fill="#fa5d3f"/><path d="m264 352h176v64h-176z" fill="#fac850"/></g><g><path d="m464 248h-16v-68.687l-37.657-37.656 11.314-11.314 40 40a8 8 0 0 1 2.343 5.657z" fill="#e6e6e6"/><g fill="#666"><path d="m444 240h24a20 20 0 0 1 20 20v12a0 0 0 0 1 0 0h-64a0 0 0 0 1 0 0v-12a20 20 0 0 1 20-20z"/><rect height="32" rx="16" width="48" x="376" y="120"/></g></g><g fill="#fa5d3f"><path d="m205.657 77.657-11.314-11.314 16-16a8 8 0 0 1 5.657-2.343h40v16h-36.687z"/><path d="m216 80h40v16h-40z"/></g><g fill="#fac850"><path d="m240 208h-24a8 8 0 0 1 -5.657-2.343l-16-16 11.314-11.314 13.656 13.657h20.687z"/><path d="m216 160h40v16h-40z"/></g><g><path d="m88 248h32v64h-32z" fill="#fac850"/><path d="m56 264h32v48h-32z" fill="#fa5d3f"/><path d="m152 264h32v48h-32z" fill="#fac850"/><path d="m120 224h32v88h-32z" fill="#fa5d3f"/></g></g><g><path d="m104 120v16h17.012a31.835 31.835 0 0 0 3.427 8.247l-12.039 12.037 11.316 11.316 12.037-12.038a31.835 31.835 0 0 0 8.247 3.426v17.012h16v-17.012a31.835 31.835 0 0 0 8.247-3.427l12.037 12.039 11.316-11.316-12.038-12.037a31.835 31.835 0 0 0 3.426-8.247h17.012v-16h-17.012a31.835 31.835 0 0 0 -3.427-8.247l12.039-12.037-11.316-11.316-12.037 12.038a31.835 31.835 0 0 0 -8.247-3.426v-17.012h-16v17.012a31.835 31.835 0 0 0 -8.247 3.427l-12.037-12.039-11.316 11.316 12.038 12.037a31.835 31.835 0 0 0 -3.426 8.247zm48-8a16 16 0 1 1 -16 16 16.019 16.019 0 0 1 16-16z" fill="#fa5d3f"/><g fill="#fac850"><circle cx="152" cy="128" r="24"/><path d="m88 48h-40v16h36.687l13.656 13.657 11.314-11.314-16-16a8 8 0 0 0 -5.657-2.343z"/><path d="m48 80h40v16h-40z"/></g><path d="m48 208h40a8 8 0 0 0 5.657-2.343l16-16-11.314-11.314-13.656 13.657h-36.687z" fill="#fa5d3f"/><path d="m48 160h40v16h-40z" fill="#fa5d3f"/></g></g></svg>