<svg id="Capa_1" enable-background="new 0 0 512 512" height="512" viewBox="0 0 512 512" width="512" xmlns="http://www.w3.org/2000/svg"><g><g><path d="m341 512h-290v-392h290z" fill="#388cb3"/></g><path d="m196 120h145v392h-145z" fill="#265d77"/><g><path d="m401 452h-290v-392h290z" fill="#4bbaed"/></g><path d="m256 60h145v392h-145z" fill="#388cb3"/><path d="m461 392h-290v-392h215c41.355 0 75 33.645 75 75z" fill="#fff8d5"/><path d="m461 75c0-41.355-33.645-75-75-75h-70v392h145z" fill="#ffe3ba"/><path d="m461 80h-80v-80h5c41.355 0 75 33.645 75 75z" fill="#ffcd82"/><g fill="#4bbaed"><path d="m241 150h150v30h-150z"/><path d="m241 210h150v30h-150z"/><path d="m241 270h150v30h-150z"/></g><g fill="#388cb3"><path d="m316 150h75v30h-75z"/><path d="m316 210h75v30h-75z"/><path d="m316 270h75v30h-75z"/></g></g></svg>