<svg id="Layer_1" enable-background="new 0 0 128 128" height="512" viewBox="0 0 128 128" width="512" xmlns="http://www.w3.org/2000/svg"><path d="m125.609 90.027v-62.287c0-.246-.024-.492-.062-.712-.346-2.216-2.297-3.887-4.538-3.887h-110.022c-2.537 0-4.6 2.063-4.6 4.6v62.306c0 .007.004.013.004.019v3.94c0 2.537 2.063 4.601 4.6 4.601h40.205c-.185 1.584-.743 3.133-1.596 4.418h-2.991c-1.609 0-2.918 1.309-2.918 2.918s1.309 2.918 2.918 2.918h38.786c1.609 0 2.918-1.309 2.918-2.918s-1.309-2.918-2.918-2.918h-2.991c-.853-1.285-1.411-2.834-1.596-4.418h40.206c2.537 0 4.6-2.063 4.6-4.601v-3.959c-.001-.008-.005-.013-.005-.02z" fill="#e6e7e8"/><path d="m75.734 93.606h-27.466c-.033 2.284-.802 4.62-2.138 6.415h31.742c-1.336-1.795-2.106-4.131-2.138-6.415z" fill="#0089ef"/><path d="m81.394 103.86h-38.786c-1.059 0-1.918-.859-1.918-1.918 0-1.059.859-1.918 1.918-1.918h38.786c1.059 0 1.918.859 1.918 1.918 0 1.06-.858 1.918-1.918 1.918z" fill="#0089ef"/><path d="m120.613 86.047v3.959c0 1.974-1.625 3.6-3.6 3.6h-110.022c-1.985 0-3.6-1.625-3.6-3.6v-3.959z" fill="#fff"/><path d="m120.613 90.006v-3.959h-114.222v3.959c0 1.974 1.615 3.6 3.6 3.6h107.022c1.974 0 3.6-1.626 3.6-3.6z" fill="#0089ef"/><path d="m120.615 23.733v62.304h-117.228v-62.304c0-1.979 1.624-3.593 3.604-3.593h110.021c1.979.001 3.603 1.614 3.603 3.593z" fill="#fff"/><path d="m117.012 20.141h-107.021c-1.979 0-3.604 1.614-3.604 3.593v62.304h114.228v-62.305c0-1.979-1.624-3.592-3.603-3.592z" fill="#6dc9f7"/><path d="m121.609 86.03v-62.29c0-.245-.025-.49-.062-.713-.346-2.216-2.297-3.887-4.538-3.887h-41.233c-.552 0-1 .448-1 1s.448 1 1 1h41.233c1.265 0 2.367.944 2.564 2.205.021.127.036.261.036.395v61.306h-115.222v-61.306c0-1.434 1.166-2.6 2.6-2.6h55.018c.552 0 1-.448 1-1s-.448-1-1-1h-55.018c-2.536 0-4.6 2.063-4.6 4.6v62.306c0 .006.003.011.003.017v3.943c0 2.536 2.063 4.6 4.6 4.6h40.205c-.185 1.585-.744 3.134-1.596 4.419h-2.991c-1.609 0-2.918 1.309-2.918 2.918s1.309 2.918 2.918 2.918h38.787c1.609 0 2.918-1.309 2.918-2.918s-1.309-2.918-2.918-2.918h-2.991c-.853-1.286-1.411-2.835-1.596-4.419h40.206c2.536 0 4.6-2.063 4.6-4.6v-3.959c-.001-.006-.005-.011-.005-.017zm-39.297 15.912c0 .506-.412.918-.918.918h-38.786c-.506 0-.918-.412-.918-.918s.412-.918.918-.918h38.787c.506 0 .917.413.917.918zm-6.231-2.921h-28.16c.693-1.357 1.14-2.879 1.292-4.415h25.577c.15 1.535.598 3.057 1.291 4.415zm43.532-9.015c0 1.434-1.166 2.6-2.6 2.6h-41.279-27.466-41.277c-1.434 0-2.6-1.166-2.6-2.6v-2.959h115.222z" fill="#3a2c60"/><path d="m65.989 21.14h5.445c.552 0 1-.448 1-1s-.448-1-1-1h-5.445c-.552 0-1 .448-1 1s.448 1 1 1z" fill="#3a2c60"/><path d="m9.6 25.811h104.804v54.557h-104.804z" fill="#d4fbff"/><path d="m75.776 39.315v27.549l-15.218-2.114-1.434-.201-10.897-1.512v-19.658l10.897-1.609 1.434-.212z" fill="#0089ef"/><g fill="#fff"><path d="m75.776 52.305v1.433h-15.218v11.012l-1.434-.201v-10.811h-10.897v-1.433h10.897v-10.535l1.434-.212v10.747z"/><path d="m66.488 88.445h-8.973c-.778 0-1.414.636-1.414 1.414s.636 1.414 1.414 1.414h8.973c.778 0 1.414-.636 1.414-1.414s-.636-1.414-1.414-1.414z"/></g></svg>