<svg id="Layer_1" enable-background="new 0 0 256 256" height="512" viewBox="0 0 256 256" width="512" xmlns="http://www.w3.org/2000/svg"><g id="Layer_29"><g><path d="m202 29.2h-2.7v16.3h2.7c3.5 0 6.4-2.9 6.4-6.4v-3.5c0-3.5-2.9-6.4-6.4-6.4z" fill="#dae6f1"/><path d="m202 55.3h-2.7v39.2h2.7c3.5 0 6.4-2.9 6.4-6.4v-26.4c0-3.5-2.9-6.4-6.4-6.4z" fill="#dae6f1"/><path d="m180 253.5h-103.6c-10.6 0-19.3-8.6-19.3-19.3v-212.4c0-10.6 8.6-19.3 19.3-19.3h103.6c10.6 0 19.3 8.6 19.3 19.3v212.4c0 10.7-8.6 19.3-19.3 19.3z" fill="#3a70bf"/><path d="m180 13.4h-30.1c-3.7 0-7.2 2.1-9 5.4-4.5 7.8-14.4 10.5-22.2 6.1-2.5-1.4-4.6-3.5-6.1-6.1-1.8-3.3-5.2-5.3-9-5.4h-27.2c-4.6 0-8.4 3.8-8.4 8.4v212.4c0 4.6 3.8 8.4 8.4 8.4h103.6c4.6 0 8.4-3.8 8.4-8.4v-212.4c0-4.6-3.8-8.4-8.4-8.4z" fill="#edf4fc"/><g fill="#9be5f9"><path d="m95.7 99c6.1 0 11 4.9 11 11 0 6.1-4.9 11-11 11-6.1 0-11-4.9-11-11 0-6.1 4.9-11 11-11z"/><path d="m128 99.5c6.1 0 11 4.9 11 11 0 6.1-4.9 11-11 11-6.1 0-11-4.9-11-11 0-6.1 4.9-11 11-11z"/><path d="m160.2 99.5c6.1 0 11 4.9 11 11 0 6.1-4.9 11-11 11-6.1 0-11-4.9-11-11 0-6.1 4.9-11 11-11z"/><path d="m95.7 130.7c6.1 0 11 4.9 11 11 0 6.1-4.9 11-11 11-6.1 0-11-4.9-11-11 0-6.1 4.9-11 11-11z"/><path d="m128 131.2c6.1 0 11 4.9 11 11 0 6.1-4.9 11-11 11-6.1 0-11-4.9-11-11 0-6.1 4.9-11 11-11z"/><path d="m160.2 131.2c6.1 0 11 4.9 11 11 0 6.1-4.9 11-11 11-6.1 0-11-4.9-11-11 0-6.1 4.9-11 11-11z"/><path d="m95.7 162.3c6.1 0 11 4.9 11 11 0 6.1-4.9 11-11 11-6.1 0-11-4.9-11-11 0-6 4.9-11 11-11z"/><path d="m128 162.8c6.1 0 11 4.9 11 11 0 6.1-4.9 11-11 11-6.1 0-11-4.9-11-11 0-6 4.9-11 11-11z"/><path d="m160.2 162.8c6.1 0 11 4.9 11 11 0 6.1-4.9 11-11 11-6.1 0-11-4.9-11-11 0-6 4.9-11 11-11z"/><path d="m128 194.5c6.1 0 11 4.9 11 11 0 6.1-4.9 11-11 11-6.1 0-11-4.9-11-11 0-6.1 4.9-11 11-11z"/></g><path d="m151.3 29.2h15.1c1.2 0 2.2 1 2.2 2.2v6.4c0 1.2-1 2.2-2.2 2.2h-15.1c-1.2 0-2.2-1-2.2-2.2v-6.4c-.1-1.2.9-2.2 2.2-2.2z" fill="#c7d7e5"/><path d="m151.3 29.2c-1.2 0-2.2 1-2.2 2.2v6.4c0 1.2 1 2.2 2.2 2.2h6l4.7-10.9z" fill="#f5c84c"/><path d="m42.9 30.9h-2.1v-2.1c0-1.5-1.3-2.8-2.8-2.8s-2.8 1.3-2.8 2.8v2.1h-2.1c-1.5 0-2.8 1.3-2.8 2.8s1.3 2.8 2.8 2.8h2.1v2.1c0 1.5 1.3 2.8 2.8 2.8s2.8-1.3 2.8-2.8v-2.1h2.1c1.5 0 2.8-1.3 2.8-2.8 0-1.6-1.2-2.8-2.8-2.8z" fill="#87d147"/><path d="m227.6 169.9c-4-.7-7.1-3.8-7.9-7.7 0-.1-.1-.2-.2-.1-.1 0-.1.1-.1.1-.8 4-3.9 7-7.9 7.7-.1 0-.2.1-.1.2 0 .1.1.1.1.1 4 .7 7.1 3.8 7.9 7.7 0 .1.1.2.2.1.1 0 .1-.1.1-.1.8-4 3.9-7 7.9-7.7.1 0 .2-.1.1-.2 0 0 0-.1-.1-.1z" fill="#f5c84c"/><circle cx="31.3" cy="59" fill="#70d6f9" r="3"/><circle cx="214.3" cy="121" fill="#5290db" r="3"/><circle cx="211.3" cy="198" fill="#ef4460" r="3"/><path d="m85.9 62.6h84.2c1.5 0 2.7 1.2 2.7 2.7v16.9c0 1.5-1.2 2.7-2.7 2.7h-84.2c-1.5 0-2.7-1.2-2.7-2.7v-16.8c0-1.5 1.2-2.8 2.7-2.8z" fill="#ef4460"/><path d="m202 48c4.9 0 8.9-4 8.9-8.9v-3.5c0-4.9-4-8.9-8.9-8.9h-.2v-4.9c0-12-9.8-21.8-21.8-21.8h-103.6c-12 0-21.8 9.8-21.8 21.8v212.4c0 12 9.8 21.8 21.8 21.8h103.6c12 0 21.8-9.8 21.8-21.8v-137.2h.2c4.9 0 8.9-4 8.9-8.9v-26.4c0-4.9-4-8.9-8.9-8.9h-.2v-4.8zm-.2-16.3h.2c2.2 0 3.9 1.8 3.9 3.9v3.5c0 2.2-1.8 3.9-3.9 3.9h-.2zm-5 202.5c0 9.3-7.5 16.8-16.8 16.8h-103.6c-9.3 0-16.8-7.5-16.8-16.8v-212.4c.1-9.3 7.6-16.8 16.8-16.8h103.6c9.3 0 16.8 7.5 16.8 16.8zm9.1-146.1c0 2.2-1.8 3.9-3.9 3.9h-.2v-14.6h4.1zm-3.9-30.3c2.2 0 3.9 1.8 3.9 3.9v10.7h-4.1v-14.6z"/><path d="m180 10.9h-30.1c-4.6.1-8.9 2.6-11.2 6.6-3.8 6.6-12.2 8.9-18.8 5.2-2.1-1.2-3.9-3-5.2-5.2-2.3-4-6.5-6.6-11.2-6.6h-27.1c-6 0-10.9 4.9-10.9 10.9v212.4c0 6 4.9 10.9 10.9 10.9h103.6c6 0 10.9-4.9 10.9-10.9v-212.4c0-6-4.9-10.9-10.9-10.9zm5.9 223.3c0 3.3-2.6 5.9-5.9 5.9h-103.6c-3.3 0-5.9-2.6-5.9-5.9v-212.4c0-3.3 2.6-5.9 5.9-5.9h27.1c2.9 0 5.5 1.6 6.8 4.1 5.1 9 16.6 12.2 25.7 7 2.9-1.7 5.3-4.1 7-7 1.4-2.5 4-4.1 6.8-4.1h30.2c3.3 0 5.9 2.6 5.9 5.9z"/><path d="m122.9 16.4h7.6c1.4 0 2.5-1.1 2.5-2.5s-1.1-2.5-2.5-2.5h-7.6c-1.4 0-2.5 1.1-2.5 2.5s1.1 2.5 2.5 2.5z"/><path d="m84.8 37.1h13.1c1.4 0 2.5-1.1 2.5-2.5s-1.1-2.5-2.5-2.5h-13.1c-1.4 0-2.5 1.1-2.5 2.5s1.1 2.5 2.5 2.5z"/><path d="m151.3 42.6h15.1c2.6 0 4.7-2.1 4.7-4.7v-.7h.8c1.4 0 2.5-1.1 2.5-2.5s-1.1-2.5-2.5-2.5h-.8v-.7c0-2.6-2.1-4.7-4.7-4.7h-15.1c-2.6 0-4.7 2.1-4.7 4.7v6.4c-.1 2.6 2.1 4.7 4.7 4.7zm12.3-10.9h2.5v5.9h-5.1zm-12.1 0h6.6l-2.5 5.9h-4.1z"/><path d="m125.8 69.3c-1-1-2.6-1-3.5 0l-1 1-1-1c-1-1-2.5-1-3.5-.1-1 1-1 2.5-.1 3.5 0 0 0 0 .1.1l1 1-1 1c-1 1-1 2.5 0 3.5s2.5 1 3.5 0l1-1 1 1c1 1 2.6.9 3.5 0 .9-1 .9-2.5 0-3.5l-1-1 1-1c1-1 1-2.6 0-3.5z"/><path d="m139.2 69.3c-1-1-2.6-1-3.5 0l-1 1-1-1c-1-1-2.6-.9-3.5.1s-.9 2.5 0 3.5l1 1-1 1c-1 1-1 2.5 0 3.5s2.5 1 3.5 0l1-1 1 1c1 1 2.5 1 3.5 0s1-2.5 0-3.5l-1-1 1-1c1-1.1 1-2.7 0-3.6z"/><path d="m99 69.3c-1-1-2.6-1-3.5 0l-1 1-1-1c-1-1-2.6-.9-3.5.1s-.9 2.5 0 3.5l1 1-1 1c-1 1-1 2.5 0 3.5s2.5 1 3.5 0l1-1 1 1c1 1 2.6.9 3.5 0 .9-1 .9-2.5 0-3.5l-1-1 1-1c1-1.1 1-2.7 0-3.6z"/><path d="m112.4 69.3c-1-1-2.6-1-3.5 0l-1 1-1-1c-1-1-2.5-1-3.5-.1-1 1-1 2.5-.1 3.5 0 0 0 0 .1.1l1 1-1 1c-1 1-1 2.5 0 3.5s2.5 1 3.5 0l1-1 1 1c1 1 2.5 1 3.5 0s1-2.5 0-3.5l-1-1 1-1c1-1 1-2.6 0-3.5z"/><path d="m152.6 69.3c-1-1-2.6-1-3.5 0l-1 1-1-1c-1-1-2.5-1-3.5-.1-1 1-1 2.5-.1 3.5 0 0 0 0 .1.1l1 1-1 1c-1 1-1 2.5 0 3.5s2.5 1 3.5 0l1-1 1 1c1 1 2.5 1 3.5 0s1-2.5 0-3.5l-1-1 1-1c1-1 1-2.6 0-3.5z"/><path d="m166 69.3c-1-1-2.6-1-3.5 0l-1 1-1-1c-1-1-2.6-.9-3.5.1s-.9 2.5 0 3.5l1 1-1 1c-1 1-1 2.5 0 3.5s2.5 1 3.5 0l1-1 1 1c1 1 2.6.9 3.5 0 .9-1 .9-2.5 0-3.5l-1-1 1-1c1-1.1 1-2.7 0-3.6z"/><path d="m170.1 60.1h-84.2c-2.9 0-5.2 2.3-5.2 5.2v16.9c0 2.9 2.3 5.2 5.2 5.2h84.2c2.9 0 5.2-2.3 5.2-5.2v-16.8c0-2.9-2.4-5.3-5.2-5.3zm.2 22.2c0 .1-.1.2-.2.2h-84.2c-.1 0-.2-.1-.2-.2v-16.9c0-.1.1-.2.2-.2h84.2c.1 0 .2.1.2.2z"/><path d="m95.7 96.5c-7.5 0-13.5 6-13.5 13.5s6 13.5 13.5 13.5 13.5-6 13.5-13.5-6-13.5-13.5-13.5zm0 22c-4.7 0-8.5-3.8-8.5-8.5s3.8-8.5 8.5-8.5 8.5 3.8 8.5 8.5-3.8 8.5-8.5 8.5z"/><path d="m128 97c-7.5 0-13.5 6-13.5 13.5s6 13.5 13.5 13.5 13.5-6 13.5-13.5c0-7.5-6.1-13.5-13.5-13.5zm0 22c-4.7 0-8.5-3.8-8.5-8.5s3.8-8.5 8.5-8.5 8.5 3.8 8.5 8.5c0 4.7-3.8 8.5-8.5 8.5z"/><path d="m160.2 97c-7.5 0-13.5 6-13.5 13.5s6 13.5 13.5 13.5 13.5-6 13.5-13.5-6-13.5-13.5-13.5zm0 22c-4.7 0-8.5-3.8-8.5-8.5s3.8-8.5 8.5-8.5 8.5 3.8 8.5 8.5-3.8 8.5-8.5 8.5z"/><path d="m95.7 128.2c-7.5 0-13.5 6-13.5 13.5s6 13.5 13.5 13.5 13.5-6 13.5-13.5c0-7.5-6-13.5-13.5-13.5zm0 22c-4.7 0-8.5-3.8-8.5-8.5s3.8-8.5 8.5-8.5 8.5 3.8 8.5 8.5-3.8 8.5-8.5 8.5z"/><path d="m128 128.7c-7.5 0-13.5 6-13.5 13.5s6 13.5 13.5 13.5 13.5-6 13.5-13.5c0-7.5-6.1-13.5-13.5-13.5zm0 22c-4.7 0-8.5-3.8-8.5-8.5s3.8-8.5 8.5-8.5 8.5 3.8 8.5 8.5c0 4.7-3.8 8.5-8.5 8.5z"/><path d="m160.2 128.7c-7.5 0-13.5 6-13.5 13.5s6 13.5 13.5 13.5 13.5-6 13.5-13.5c0-7.5-6-13.5-13.5-13.5zm0 22c-4.7 0-8.5-3.8-8.5-8.5s3.8-8.5 8.5-8.5 8.5 3.8 8.5 8.5c0 4.7-3.8 8.5-8.5 8.5z"/><path d="m95.7 159.8c-7.5 0-13.5 6-13.5 13.5s6 13.5 13.5 13.5 13.5-6 13.5-13.5c0-7.4-6-13.5-13.5-13.5zm0 22c-4.7 0-8.5-3.8-8.5-8.5s3.8-8.5 8.5-8.5 8.5 3.8 8.5 8.5c0 4.7-3.8 8.5-8.5 8.5z"/><path d="m128 160.3c-7.5 0-13.5 6-13.5 13.5s6 13.5 13.5 13.5 13.5-6 13.5-13.5c0-7.4-6.1-13.5-13.5-13.5zm0 22c-4.7 0-8.5-3.8-8.5-8.5s3.8-8.5 8.5-8.5 8.5 3.8 8.5 8.5c0 4.7-3.8 8.5-8.5 8.5z"/><path d="m160.2 160.3c-7.5 0-13.5 6-13.5 13.5s6 13.5 13.5 13.5 13.5-6 13.5-13.5c0-7.4-6-13.5-13.5-13.5zm0 22c-4.7 0-8.5-3.8-8.5-8.5s3.8-8.5 8.5-8.5 8.5 3.8 8.5 8.5c0 4.7-3.8 8.5-8.5 8.5z"/><path d="m128 192c-7.5 0-13.5 6-13.5 13.5s6 13.5 13.5 13.5 13.5-6 13.5-13.5c0-7.5-6.1-13.5-13.5-13.5zm0 22c-4.7 0-8.5-3.8-8.5-8.5s3.8-8.5 8.5-8.5 8.5 3.8 8.5 8.5c0 4.7-3.8 8.5-8.5 8.5z"/></g></g></svg>