<svg id="Layer_5" enable-background="new 0 0 64 64" height="512" viewBox="0 0 64 64" width="512" xmlns="http://www.w3.org/2000/svg"><path d="m11 2v10h-4v-2-6-2z" fill="#b4dd7f"/><path d="m16 2c2.76 0 5 2.24 5 5 0 1.38-.56 2.63-1.46 3.54-.91.9-2.16 1.46-3.54 1.46h-5v-10z" fill="#ccd1d9"/><path d="m18 38v2h-10v-2c0-1.1.9-2 2-2h3 3c1.1 0 2 .9 2 2z" fill="#ccd1d9"/><path d="m60 44v14c0 2.21-1.79 4-4 4h-50c-2.21 0-4-1.79-4-4v-14c0-2.21 1.79-4 4-4h2 10 20 18c1.39 0 2.61.7 3.32 1.78.43.63.68 1.4.68 2.22z" fill="#b4dd7f"/><g fill="#fcd770"><path d="m6 44h14v14h-14z"/><path d="m24 44h14v14h-14z"/><path d="m42 44h14v14h-14z"/></g><path d="m62 6v4h-24v-4c0-2.21 1.79-4 4-4h16c2.21 0 4 1.79 4 4z" fill="#aab2bd"/><path d="m62 34v4c0 1.75-1.12 3.23-2.68 3.78-.71-1.08-1.93-1.78-3.32-1.78h-18v-6z" fill="#aab2bd"/><path d="m62 10v24h-24v-24z" fill="#69d6f4"/><circle cx="50" cy="26" fill="#ff826e" r="2"/><path d="m58 1h-16c-2.757 0-5 2.243-5 5v33h-18v-1c0-1.654-1.346-3-3-3h-2v-7c0-1.654-1.346-3-3-3h-5c-1.654 0-3-1.346-3-3s1.346-3 3-3h20.5c3.584 0 6.5-2.916 6.5-6.5s-2.916-6.5-6.5-6.5h-4.59c-.479-2.833-2.943-5-5.91-5h-10v2h-5v2h5v4h-5v2h5v2h10c2.967 0 5.431-2.167 5.91-5h4.59c2.481 0 4.5 2.019 4.5 4.5s-2.019 4.5-4.5 4.5h-20.5c-2.757 0-5 2.243-5 5s2.243 5 5 5h5c.551 0 1 .448 1 1v7h-2c-1.654 0-3 1.346-3 3v1h-1c-2.757 0-5 2.243-5 5v14c0 2.757 2.243 5 5 5h50c2.757 0 5-2.243 5-5v-14c0-.629-.13-1.226-.343-1.781 1.429-.902 2.343-2.479 2.343-4.219v-32c0-2.757-2.243-5-5-5zm-50 2h2v8h-2zm8 8h-4v-8h4c2.206 0 4 1.794 4 4s-1.794 4-4 4zm26-8h16c1.654 0 3 1.346 3 3v3h-22v-3c0-1.654 1.346-3 3-3zm19 8v22h-22v-22zm-52 27c0-.552.449-1 1-1h6c.551 0 1 .448 1 1v1h-8zm50 20c0 1.654-1.346 3-3 3h-50c-1.654 0-3-1.346-3-3v-14c0-1.654 1.346-3 3-3h50c1.654 0 3 1.346 3 3zm.59-17.465c-.91-.943-2.18-1.535-3.59-1.535h-17v-4h22v3c0 1.046-.55 1.994-1.41 2.535z"/><path d="m53 5h2v2h-2z"/><path d="m45 5h2v2h-2z"/><path d="m49 5h2v2h-2z"/><path d="m50 23c-1.654 0-3 1.346-3 3s1.346 3 3 3 3-1.346 3-3-1.346-3-3-3zm0 4c-.551 0-1-.448-1-1s.449-1 1-1 1 .448 1 1-.449 1-1 1z"/><path d="m45.05 21.051 1.414 1.414c.945-.944 2.201-1.465 3.536-1.465s2.591.521 3.536 1.465l1.414-1.414c-1.323-1.322-3.08-2.051-4.95-2.051s-3.627.729-4.95 2.051z"/><path d="m43.636 19.636c3.51-3.51 9.219-3.51 12.729 0l1.414-1.414c-4.289-4.289-11.268-4.289-15.557 0z"/><path d="m5 59h16v-16h-16zm2-14h12v12h-12z"/><path d="m9 47h2v4h-2z"/><path d="m15 47h2v4h-2z"/><path d="m11 53h4v2h-4z"/><path d="m23 59h16v-16h-16zm2-14h12v12h-12z"/><path d="m27 47h2v4h-2z"/><path d="m33 47h2v4h-2z"/><path d="m29 53h4v2h-4z"/><path d="m41 59h16v-16h-16zm2-14h12v12h-12z"/><path d="m45 47h2v4h-2z"/><path d="m51 47h2v4h-2z"/><path d="m47 53h4v2h-4z"/></svg>