<svg id="Flat" height="512" viewBox="0 0 512 512" width="512" xmlns="http://www.w3.org/2000/svg"><path d="m424 48h40v16h-40z"/><g><rect fill="#e6f8ff" height="464" rx="10" width="464" x="24" y="24"/><g><path d="m296 488v-147.6393a20 20 0 0 1 11.0557-17.8886l36.9443-18.4721h64l36.9443 18.4721a20 20 0 0 1 11.0557 17.8886v147.6393z" fill="#fbd373"/><g><path d="m408 304-32 32-32-32 8-32h48z" fill="#ffd4cf"/><path d="m400 272h-48l-3.3876 13.55 8.8656 5.3193a36 36 0 0 0 37.044 0l8.8656-5.3192z" fill="#fbb8b0"/><path d="m386 184h-20a30 30 0 0 0 -30 30v42a20 20 0 0 0 9.71 17.15l20 12a20 20 0 0 0 20.58 0l20-12a20 20 0 0 0 9.71-17.15v-42a30 30 0 0 0 -30-30z" fill="#ffd4cf"/></g></g><g fill="#80daff"><path d="m336 128h40v16h-40z"/><path d="m392 128h72v16h-72z"/><path d="m48 256h256v16h-256z"/><path d="m72 184h40v80h-40z"/><path d="m216 136h40v128h-40z"/><path d="m144 72h40v192h-40z"/><path d="m278.6562 108.4375-13.3124-8.875 32-48a7.9992 7.9992 0 0 1 6.6562-3.5625h104v16h-99.7188z"/><path d="m336 88h128v16h-128z"/><path d="m114.3433 117.6567-21.6568-21.6567h-44.6865v-16h48a7.9986 7.9986 0 0 1 5.6567 2.3433l24 24z"/><path d="m48 112h40v16h-40z"/><path d="m56 322v124a10 10 0 0 0 10 10h198v-134a10 10 0 0 0 -10-10h-188a10 10 0 0 0 -10 10zm40 102h-16v-48h16zm32 0h-16v-88h16zm32 0h-16v-72h16z"/></g><path d="m400 360h16v56h-16z" fill="#fbc573"/><path d="m351.8311 456h-139.6911a10 10 0 0 1 -9.8481-8.2635l-16.222-92a10 10 0 0 1 9.8476-11.7365h139.6915a10 10 0 0 1 9.8481 8.2635l16.2221 92a10 10 0 0 1 -9.8481 11.7365z" fill="#f47b79"/><circle cx="272" cy="400" fill="#fffcfc" r="24"/><path d="m416 416h-50a30 30 0 0 0 -30 30v10h80z" fill="#ffd4cf"/></g></svg>