<?xml version="1.0" encoding="utf-8"?>
<!-- Generator: Adobe Illustrator 22.1.0, SVG Export Plug-In . SVG Version: 6.00 Build 0)  -->
<svg xmlns="http://www.w3.org/2000/svg" xmlns:xlink="http://www.w3.org/1999/xlink" version="1.1" id="Layer_1" x="0px" y="0px" viewBox="0 0 512 512" style="enable-background:new 0 0 512 512;" xml:space="preserve" width="512" height="512">
<style type="text/css">
	.st0{fill:#FF624B;}
	.st1{fill:#FFC34C;}
	.st2{fill:#F9BB32;}
	.st3{fill:#DB9C2E;}
	.st4{fill:#FF4B34;}
	.st5{fill:#FF9079;}
	.st6{fill:#FCE575;}
	.st7{fill:#FFD551;}
	.st8{fill:#FFF4C1;}
	.st9{fill:#FFB74B;}
	.st10{fill:#EACF32;}
	.st11{fill:#99AF17;}
	.st12{fill:#CCC033;}
	.st13{fill:#FCDA4F;}
	.st14{fill:#FFA730;}
	.st15{fill:#FFEACF;}
	.st16{fill:#FFD59A;}
	.st17{fill:#FFDF74;}
	.st18{fill:#E58D23;}
	.st19{fill:#BF6C0D;}
	.st20{fill:#A56021;}
	.st21{fill:#8C4C17;}
	.st22{fill:#FFEA63;}
	.st23{fill:#FCF9DE;}
</style>
<g>
	<g>
		<g>
			<g>
				<path class="st8" d="M412.519,495.865H99.481c-16.569,0-30-13.431-30-30V46.135c0-16.569,13.431-30,30-30h313.039      c16.569,0,30,13.431,30,30v419.73C442.519,482.434,429.088,495.865,412.519,495.865z"/>
			</g>
		</g>
	</g>
	<g>
		<path class="st6" d="M121.857,464.439V47.561c0-17.356,14.07-31.426,31.426-31.426h-52.377c-17.356,0-31.426,14.07-31.426,31.426    v416.878c0,17.356,14.07,31.426,31.426,31.426h52.377C135.927,495.865,121.857,481.795,121.857,464.439z"/>
	</g>
	<g>
		<path class="st12" d="M411.093,16.135H100.907c-17.356,0-31.426,14.07-31.426,31.426v77.764h373.039V47.561    C442.519,30.205,428.449,16.135,411.093,16.135z"/>
	</g>
	<g>
		<path class="st11" d="M153.283,16.135h-52.377c-17.356,0-31.426,14.07-31.426,31.426v77.764h52.376V47.561    C121.857,30.205,135.927,16.135,153.283,16.135z"/>
	</g>
	<g>
		<path class="st6" d="M236.898,219.182H110.372c-5.523,0-10-4.477-10-10V56.179c0-5.523,4.477-10,10-10h126.526    c5.523,0,10,4.477,10,10v153.003C246.898,214.705,242.421,219.182,236.898,219.182z"/>
	</g>
	<g>
		<g>
			<path class="st20" d="M417.436,167.258h-142.98c-4.971,0-9-4.029-9-9s4.029-9,9-9h142.98c4.971,0,9,4.029,9,9     S422.406,167.258,417.436,167.258z"/>
		</g>
	</g>
	<g>
		<g>
			<path class="st20" d="M417.436,206.017h-142.98c-4.971,0-9-4.029-9-9s4.029-9,9-9h142.98c4.971,0,9,4.029,9,9     S422.406,206.017,417.436,206.017z"/>
		</g>
	</g>
	<g>
		<path class="st12" d="M343.41,335.291h66.026c4.418,0,8,3.582,8,8v66.026c0,4.418-3.582,8-8,8H343.41c-4.418,0-8-3.582-8-8    v-66.026C335.41,338.872,338.991,335.291,343.41,335.291z"/>
	</g>
	<g>
		<path class="st12" d="M226.052,335.291h66.026c4.418,0,8,3.582,8,8v66.026c0,4.418-3.582,8-8,8h-66.026c-4.418,0-8-3.582-8-8    v-66.026C218.052,338.872,221.634,335.291,226.052,335.291z"/>
	</g>
	<g>
		<path class="st12" d="M108.372,335.291h66.026c4.418,0,8,3.582,8,8v66.026c0,4.418-3.582,8-8,8h-66.026c-4.418,0-8-3.582-8-8    v-66.026C100.372,338.872,103.953,335.291,108.372,335.291z"/>
	</g>
	<g>
		<path class="st7" d="M110.847,46.178c-5.785,0-10.475,4.69-10.475,10.475v152.052c0,5.785,4.69,10.475,10.475,10.475h11.01V47.561    c0-0.464,0.015-0.923,0.035-1.382H110.847z"/>
	</g>
	<g>
		<path class="st0" d="M223.815,219.025H123.454v-8.921c0-19.33,15.67-35,35-35h30.361c19.33,0,35,15.67,35,35V219.025z"/>
	</g>
	<g>
		<path class="st15" d="M174.266,193.561h-1.262c-7.333,0-13.278-5.945-13.278-13.278v-33.8h27.819v33.8    C187.544,187.616,181.599,193.561,174.266,193.561z"/>
	</g>
	<g>
		<path class="st16" d="M172.565,179.651v-33.168h-12.839v33.168c0,7.682,6.227,13.909,13.909,13.909h0    c2.316,0,4.499-0.57,6.42-1.571C175.605,189.669,172.565,185.017,172.565,179.651z"/>
	</g>
	<g>
		<path class="st20" d="M148.368,139.191h9.004v-27.726c0-4.541-3.681-8.222-8.222-8.222h-0.782c-4.541,0-8.222,3.681-8.222,8.222    v19.504C140.145,135.51,143.827,139.191,148.368,139.191z"/>
	</g>
	<g>
		<path class="st20" d="M200.705,103.255h-4.387c-3.545,0-6.42,2.299-6.42,5.136v4.472c6.947,4.134,11.449,10.752,11.449,18.21    v8.105c3.244-0.258,5.778-2.447,5.778-5.11v-25.678C207.124,105.554,204.25,103.255,200.705,103.255z"/>
	</g>
	<g>
		<circle class="st15" cx="201.988" cy="131.479" r="9.171"/>
	</g>
	<g>
		<circle class="st16" cx="144.211" cy="131.479" r="9.171"/>
	</g>
	<g>
		<path class="st15" d="M174.921,164.127h-2.573c-14.949,0-27.067-12.118-27.067-27.067v-17.008    c0-14.949,12.118-27.067,27.067-27.067h2.573c14.949,0,27.067,12.118,27.067,27.067v17.008    C201.988,152.009,189.87,164.127,174.921,164.127z"/>
	</g>
	<g>
		<path class="st16" d="M158.121,135.774v-14.435c0-13.451,9.367-24.715,21.934-27.623c-2.063-0.477-4.212-0.73-6.42-0.73h0    c-15.659,0-28.354,12.694-28.354,28.354v14.435c0,15.659,12.694,28.354,28.354,28.354h0c2.208,0,4.357-0.253,6.42-0.73    C167.488,160.488,158.121,149.225,158.121,135.774z"/>
	</g>
	<g>
		<path class="st16" d="M174.137,92.985h-1.004c-11.713,0-21.735,7.231-25.851,17.471h31.882c2.066,0,3.895-0.998,5.045-2.534    c1.15,1.536,2.979,2.534,5.045,2.534h10.735C195.872,100.216,185.85,92.985,174.137,92.985z"/>
	</g>
	<g>
		<path class="st20" d="M176.568,106.673h-27.859c-4.916,0-8.902-3.986-8.902-8.902v-1.058c0-7.375,5.978-13.353,13.353-13.353    h18.958c7.375,0,13.353,5.978,13.353,13.353v1.058C185.469,102.688,181.484,106.673,176.568,106.673z"/>
	</g>
	<g>
		<path class="st20" d="M200.709,106.673h-11.347c-3.543,0-6.415-2.872-6.415-6.415v-7.33c0-3.543,2.872-6.415,6.415-6.415h4.932    c7.086,0,12.83,5.744,12.83,12.83v0.915C207.124,103.801,204.252,106.673,200.709,106.673z"/>
	</g>
	<g>
		<circle class="st11" cx="274.455" cy="96.593" r="15.713"/>
	</g>
	<g>
		<path class="st10" d="M417.436,110.32c-3.313,0-6-2.686-6-6V50.133c0-3.314,2.687-6,6-6s6,2.686,6,6v54.188    C423.436,107.634,420.749,110.32,417.436,110.32z"/>
	</g>
	<g>
		<path class="st11" d="M108.372,335.291c-4.418,0-8,3.582-8,8v66.026c0,4.418,3.582,8,8,8h13.485v-82.026H108.372z"/>
	</g>
	<g>
		<g>
			<path class="st20" d="M417.436,265.726H100.372c-4.971,0-9-4.029-9-9s4.029-9,9-9h317.063c4.971,0,9,4.029,9,9     S422.406,265.726,417.436,265.726z"/>
		</g>
	</g>
	<g>
		<g>
			<path class="st20" d="M417.436,306.58H100.372c-4.971,0-9-4.029-9-9s4.029-9,9-9h317.063c4.971,0,9,4.029,9,9     S422.406,306.58,417.436,306.58z"/>
		</g>
	</g>
	<g>
		<g>
			<path class="st20" d="M417.436,467.764H100.372c-4.971,0-9-4.029-9-9s4.029-9,9-9h317.063c4.971,0,9,4.029,9,9     S422.406,467.764,417.436,467.764z"/>
		</g>
	</g>
	<g>
		<path class="st21" d="M121.857,464.439v-14.675h-21.485c-4.971,0-9,4.029-9,9s4.029,9,9,9h21.662    C121.919,466.671,121.857,465.563,121.857,464.439z"/>
	</g>
	<g>
		<path class="st21" d="M100.372,288.58c-4.971,0-9,4.029-9,9s4.029,9,9,9h21.485v-18H100.372z"/>
	</g>
	<g>
		<path class="st21" d="M100.372,247.726c-4.971,0-9,4.029-9,9s4.029,9,9,9h21.485v-18H100.372z"/>
	</g>
</g>
</svg>
