<svg id="Capa_1" enable-background="new 0 0 512.132 512.132" height="512" viewBox="0 0 512.132 512.132" width="512" xmlns="http://www.w3.org/2000/svg"><g><g><path d="m352.507 193.918-63.58-63.581 28.594-28.594c8.566-8.566 19.91-13.349 31.942-13.469 12.167-.153 23.533 4.511 32.064 13.042 17.529 17.529 17.338 46.242-.426 64.007z" fill="#48568c"/></g><path d="m381.102 165.323c17.764-17.765 17.955-46.478.426-64.007l-60.811 60.811 31.79 31.791z" fill="#2c3b73"/><path d="m228.463 364.94-110.56-110.56 69.171-183.472 224.86 224.86z" fill="#cae1f9"/><path d="m411.935 295.769-112.43-112.43-126.322 126.321 55.28 55.28z" fill="#9fc6e2"/><path d="m406.1 332.363-255.619-255.619 63.64-63.639 255.619 255.619z" fill="#f5fbff"/><path d="m406.1 332.363-127.81-127.809 63.64-63.639 127.81 127.809z" fill="#cae1f9"/><g><path d="m80.334 447.156c-11.973 0-23.178-4.622-31.601-13.045-8.531-8.531-13.163-19.919-13.042-32.064.119-12.033 4.903-23.377 13.469-31.943l28.594-28.594 63.58 63.581-28.594 28.594c-8.565 8.565-19.909 13.349-31.942 13.469-.155.001-.311.002-.464.002z" fill="#48568c"/></g><path d="m141.333 405.091-31.79-31.79-60.81 60.811c8.423 8.423 19.628 13.045 31.6 13.045.153 0 .309-.001.464-.002 12.033-.12 23.377-4.904 31.942-13.469z" fill="#2c3b73"/><g><path d="m210.94 347.565 101.078 101.078-63.489 63.489-101.08-101.076z" fill="#2c3b73"/></g><path d="m318.512 0h30v56.092h-30z" fill="#cae1f9"/><path d="m426.752 134.331h56.092v30h-56.092z" fill="#9fc6e2"/><path d="m400.275 42.812h49.515v30h-49.515z" fill="#cae1f9" transform="matrix(.707 -.707 .707 .707 83.61 317.476)"/><path d="m405.579 55.614h49.515v15h-49.515z" fill="#9fc6e2" transform="matrix(.707 -.707 .707 .707 81.414 322.78)"/><path d="m147.374 453.557-118.086-118.087 93.173-93.174 118.087 118.087z" fill="#fd4e26"/><path d="m147.374 453.557-59.043-59.043 93.173-93.174 59.043 59.043z" fill="#d8270f"/></g></svg>