<svg id="Layer_5" enable-background="new 0 0 62 62" height="512" viewBox="0 0 62 62" width="512" xmlns="http://www.w3.org/2000/svg"><g><g><g><path d="m40.99 41h.4l.08.81v.01c-2.68.98-4.94 2.83-6.45 5.2h-.03v-2.02c0-1.1-.89-2-2-2h-14c-1.1 0-2 .9-2 2v6h-13.99c-1.1 0-2-.9-2-2v-40h40.99c-3.03 0-5.79 1.23-7.78 3.22s-3.22 4.74-3.22 7.78c0 1.1.9 2 2 2v11c0 .34.02.67.06 1 .28 2.23 1.48 4.18 3.21 5.44 1.32.98 2.96 1.56 4.73 1.56z" fill="#e6e9ed"/></g><g><path d="m1 9v-6c0-1.1.9-2 2-2h50c1.1 0 2 .9 2 2v8.89c-2.46-1.81-5.49-2.89-8.79-2.89h-2.24-1.98z" fill="#b4dd7f"/></g><g><path d="m55 11.89c3.64 2.7 6 7.02 6 11.89v2.07c0 5.6-3.16 10.73-8.17 13.23-1.23.61-2.51 1.08-3.82 1.41l-.02-.08v-8.41h1c.83 0 1.58-.34 2.12-.88.55-.54.88-1.29.88-2.12 0-1.66-1.34-3-3-3h-1v-2c0-1.1-.89-2-2-2h-8-6c-1.1 0-2-.9-2-2 0-3.04 1.23-5.79 3.22-7.78s4.75-3.22 7.78-3.22h1.98 2.24c3.3 0 6.33 1.08 8.79 2.89z" fill="#b27946"/></g><g><path d="m46.99 53h-5c-1.65 0-3 1.34-3 3v1h-4v-9.98h.03c1.51-2.37 3.77-4.22 6.45-5.2l.52 5.18 4-3 4 3 .52-5.19c1.77.66 3.36 1.69 4.67 3 2.36 2.35 3.81 5.6 3.81 9.19v3c0 2.21-1.79 4-4 4h-7-1c-1.1 0-2-.9-2-2v-2-2c0-1.1.9-2 2-2z" fill="#fcd770"/></g><g><path d="m50.51 41.81-.52 5.19-4-3-4 3-.52-5.18v-.01c1.41-.52 2.93-.81 4.52-.81s3.11.29 4.52.81z" fill="#ffc729"/></g><g><path d="m46.99 61h-27c-1.65 0-3-1.34-3-3v-1h18 4 6v2c0 1.1.9 2 2 2z" fill="#aab2bd"/></g><g><path d="m41.99 53h5c-1.1 0-2 .9-2 2v2h-6v-1c0-1.66 1.35-3 3-3z" fill="#f0d0b4"/></g><g><path d="m49.99 26c1.66 0 3 1.34 3 3 0 .83-.33 1.58-.88 2.12-.54.54-1.29.88-2.12.88h-1v8.41l.02.08c-4.09.51-4.18.51-4.27.51-1.04 0-2.19 0-3.35 0-.13 0-.27 0-.4 0-1.77 0-3.41-.58-4.73-1.56.52-.14.99-.3 1.42-.47 1.01-.39 1.84-1.09 2.41-1.96.58-.87.9-1.92.9-3.01h-7.93-.01c-.04-.33-.06-.66-.06-1v-11h6 8c1.11 0 2 .9 2 2v2z" fill="#f0d0b4"/></g><g><path d="m33.06 34h7.93c0 1.09-.32 2.14-.9 3.01-.57.87-1.4 1.57-2.41 1.96-.43.17-.9.33-1.42.47-1.73-1.26-2.93-3.21-3.21-5.44z" fill="#ff826e"/></g><g><path d="m16.99 51v-6c0-1.1.9-2 2-2h14c1.11 0 2 .9 2 2v2.02 9.98h-18z" fill="#ccd1d9"/></g><g><circle cx="26" cy="49" fill="#69d6f4" r="2"/></g><g><path d="m20.61 16h.39v.19c0 2.15-.48 4.26-1.37 6.17-.9 1.9-2.21 3.62-3.86 5-.5.41-1.12.64-1.77.64s-1.27-.23-1.77-.64c-3.31-2.76-5.23-6.86-5.23-11.17v-.19h.39c2.36 0 4.65-.7 6.61-2 1.96 1.3 4.25 2 6.61 2z" fill="#aab2bd"/></g></g><g><path d="m43.993 29c0-2.206-1.794-4-4-4s-4 1.794-4 4h2c0-1.103.897-2 2-2s2 .897 2 2z"/><path d="m50.991 40.938c.773-.271 1.536-.587 2.282-.961 5.386-2.693 8.73-8.106 8.728-14.129l-.001-2.069c-.003-5.004-2.353-9.462-5.999-12.355v-8.424c0-1.654-1.346-3-3-3h-50.001c-1.654 0-3 1.346-3 3v46c0 1.654 1.346 3 3 3h12.993v4 2c0 2.206 1.794 4 4 4h27 1 7c2.757 0 5-2.243 5-5v-3c0-5.957-3.747-11.044-9.002-13.062zm-13.679-2.895c-.274.108-.563.192-.849.282-1.016-.866-1.781-2.015-2.173-3.325h5.589c-.316 1.372-1.27 2.533-2.567 3.043zm4.681-4.043v-1h-7.998v-10h12.999c.551 0 1 .449 1 1v3h2c1.103 0 2 .897 2 2s-.897 2-2 2h-2.001l-.001 8.689c-1.063.208-2.147.312-3.248.312-.001 0-.002 0-.003 0h-3.747c-.814 0-1.593-.147-2.32-.404 2.006-1.077 3.319-3.236 3.319-5.597zm4 8c1.197 0 2.352.181 3.444.509l-.263 2.627-3.181-2.386-3.181 2.386-.262-2.616c1.102-.329 2.255-.52 3.443-.52zm14.006-18.219.001 2.069c.002 5.259-2.918 9.987-7.622 12.339-.779.39-1.576.717-2.387.982l.002-6.171h.001c2.206 0 4-1.794 4-4s-1.794-4-4-4v-1c0-1.654-1.346-3-3-3h-14c-.551 0-1-.449-1-1 0-5.514 4.486-10 10-10h1.977 2.241c7.598 0 13.784 6.182 13.787 13.781zm-56.999-21.781h50c.551 0 1 .449 1 1v7.073c-2.301-1.313-4.956-2.073-7.789-2.073h-2.241-1.977-39.993v-5c0-.551.449-1 1-1zm0 48c-.551 0-1-.449-1-1v-39h33.375c-3.239 2.151-5.381 5.829-5.381 10 0 1.304.837 2.417 2.001 2.829v10.171c0 4.318 3.058 7.933 7.122 8.8-1.181.666-2.265 1.504-3.216 2.496-.319-1.314-1.498-2.296-2.908-2.296h-14c-1.654 0-3 1.346-3 3v5zm14.993-5c0-.551.449-1 1-1h14c.551 0 1 .449 1 1v11h-16zm0 13h18 8v1c0 .352.072.686.184 1h-24.184c-1.103 0-2-.897-2-2zm26-3v1h-4c0-1.103.897-2 2-2h2.184c-.112.314-.184.648-.184 1zm14 2c0 1.654-1.346 3-3 3h-7-1c-.551 0-1-.449-1-1v-4c0-.551.449-1 1-1h5.465l1.703 2.555 1.664-1.109-2.297-3.446h-6.535-5c-2.206 0-4 1.794-4 4h-2v-8.616c1.182-1.783 2.78-3.174 4.624-4.099l.558 5.578 4.819-3.614 4.819 3.614.557-5.577c3.921 1.976 6.624 6.03 6.624 10.713v3.001z"/><path d="m12 4h2v2h-2z"/><path d="m4 4h2v2h-2z"/><path d="m8 4h2v2h-2z"/><path d="m22 16.19v-1.19h-1.395c-2.161 0-4.253-.633-6.051-1.832l-.554-.37-.555.37c-1.798 1.199-3.89 1.832-6.05 1.832h-1.395v1.19c0 4.625 2.038 8.977 5.592 11.938.674.562 1.53.872 2.408.872s1.734-.31 2.408-.872c3.554-2.961 5.592-7.313 5.592-11.938zm-13.977.795c1.738-.084 3.421-.534 4.977-1.286v10.965c-.041-.028-.09-.04-.128-.071-2.892-2.411-4.632-5.878-4.849-9.608zm7.105 9.607c-.038.032-.087.044-.128.071v-10.965c1.556.753 3.239 1.203 4.977 1.286-.217 3.732-1.957 7.198-4.849 9.608z"/><path d="m4 46h10v2h-10z"/><path d="m4 42h10v2h-10z"/><path d="m4 38h2v2h-2z"/><path d="m8 38h6v2h-6z"/><path d="m4 34h10v2h-10z"/><path d="m16 34h14v2h-14z"/><path d="m16 38h14v2h-14z"/><path d="m26 46c-1.654 0-3 1.346-3 3s1.346 3 3 3 3-1.346 3-3-1.346-3-3-3zm0 4c-.551 0-1-.449-1-1s.449-1 1-1 1 .449 1 1-.449 1-1 1z"/></g></g></svg>