<svg height="512" viewBox="0 0 512 512" width="512" xmlns="http://www.w3.org/2000/svg"><g id="Flat"><path d="m104 24h120a48 48 0 0 1 48 48v264a0 0 0 0 1 0 0h-216a0 0 0 0 1 0 0v-264a48 48 0 0 1 48-48z" fill="#eedc9a"/><path d="m320 24h120a48 48 0 0 1 48 48v264a0 0 0 0 1 0 0h-216a0 0 0 0 1 0 0v-264a48 48 0 0 1 48-48z" fill="#eebe33"/><path d="m104 288h120a48 48 0 0 1 48 48 0 0 0 0 1 0 0h-216a0 0 0 0 1 0 0 48 48 0 0 1 48-48z" fill="#eebe33"/><path d="m320 288h120a48 48 0 0 1 48 48 0 0 0 0 1 0 0h-216a0 0 0 0 1 0 0 48 48 0 0 1 48-48z" fill="#efa702"/><g fill="#eebe33"><path d="m96 56h32v16h-32z"/><path d="m144 56h64v16h-64z"/><path d="m224 56h24v16h-24z"/><path d="m80 88h32v16h-32z"/><path d="m128 88h64v16h-64z"/><path d="m208 88h40v16h-40z"/><path d="m216 120h32v16h-32z"/><path d="m136 120h64v16h-64z"/><path d="m80 120h40v16h-40z"/><path d="m192 152h56v16h-56z"/><path d="m128 152h48v16h-48z"/><path d="m80 152h32v16h-32z"/><path d="m80 184h56v16h-56z"/><path d="m152 184h48v16h-48z"/><path d="m216 184h32v16h-32z"/><path d="m216 216h32v16h-32z"/><path d="m136 216h64v16h-64z"/><path d="m80 216h40v16h-40z"/><path d="m192 248h56v16h-56z"/><path d="m128 248h48v16h-48z"/><path d="m80 248h32v16h-32z"/></g><path d="m432 56h32v16h-32z" fill="#efa702"/><path d="m352 56h64v16h-64z" fill="#efa702"/><path d="m320 56h16v16h-16z" fill="#efa702"/><path d="m432 88h32v16h-32z" fill="#efa702"/><path d="m352 88h64v16h-64z" fill="#efa702"/><path d="m296 88h40v16h-40z" fill="#efa702"/><path d="m296 120h32v16h-32z" fill="#efa702"/><path d="m344 120h64v16h-64z" fill="#efa702"/><path d="m424 120h40v16h-40z" fill="#efa702"/><path d="m296 152h56v16h-56z" fill="#efa702"/><path d="m368 152h48v16h-48z" fill="#efa702"/><path d="m432 152h32v16h-32z" fill="#efa702"/><path d="m408 184h56v16h-56z" fill="#efa702"/><path d="m344 184h48v16h-48z" fill="#efa702"/><path d="m296 184h32v16h-32z" fill="#efa702"/><path d="m296 216h32v16h-32z" fill="#efa702"/><path d="m344 216h64v16h-64z" fill="#efa702"/><path d="m424 216h40v16h-40z" fill="#efa702"/><path d="m296 248h56v16h-56z" fill="#efa702"/><path d="m368 248h48v16h-48z" fill="#efa702"/><path d="m432 248h32v16h-32z" fill="#efa702"/><path d="m32.402 423.029h79.196v33.941h-79.196z" fill="#d3e1e9" transform="matrix(.707 -.707 .707 .707 -290.039 179.785)"/><circle cx="184" cy="328" fill="#396795" r="128"/><path d="m16 440 24-24 56 56-24 24h-56z" fill="#396795"/><circle cx="184" cy="328" fill="#8acce7" r="104"/><circle cx="184" cy="392" fill="#e44b4d" r="16"/><path d="m200 360h-32a54.268 54.268 0 0 1 16-38.627l9.37305-9.373a22.48058 22.48058 0 0 0 6.62695-16 16 16 0 0 0 -32 0h-32a48 48 0 0 1 96 0 54.268 54.268 0 0 1 -16 38.627l-9.373 9.373a22.48058 22.48058 0 0 0 -6.627 16z" fill="#e44b4d"/></g></svg>