<svg id="Capa_1" enable-background="new 0 0 512 512" height="512" viewBox="0 0 512 512" width="512" xmlns="http://www.w3.org/2000/svg"><g><path d="m500.597 44.478h-361.782c-4.442 0-8.48-2.58-10.347-6.61l-14.48-31.258c-1.867-4.03-5.905-6.61-10.347-6.61h-92.238c-6.298 0-11.403 5.105-11.403 11.403v489.194c0 6.298 5.105 11.403 11.403 11.403h30.04l470.557-427.709v-28.41c0-6.298-5.105-11.403-11.403-11.403z" fill="#df73c1"/><path d="m85.658 6.61 14.479 31.258c1.867 4.031 5.905 6.61 10.347 6.61h28.33c-4.442 0-8.48-2.58-10.347-6.61l-14.479-31.258c-1.867-4.03-5.905-6.61-10.347-6.61h-28.33c4.442 0 8.48 2.58 10.347 6.61z" fill="#dd4fb1"/><path d="m500.597 44.478h-28.33c6.298 0 11.403 5.105 11.403 11.403v50.579l28.33-22.169v-28.41c0-6.298-5.105-11.403-11.403-11.403z" fill="#dd4fb1"/><path d="m500.597 512h-459.154v-411.496c0-8.954 7.259-16.213 16.213-16.213h454.344v416.305c0 6.299-5.105 11.404-11.403 11.404z" fill="#f9f6f9"/><path d="m483.67 84.291v416.305c0 6.298-5.105 11.403-11.403 11.403h28.33c6.298 0 11.403-5.105 11.403-11.403v-416.305z" fill="#dddaec"/><g><path d="m80.826 47.361h-43.883c-4.268 0-7.726-3.459-7.726-7.726s3.459-7.726 7.726-7.726h43.882c4.268 0 7.726 3.459 7.726 7.726s-3.458 7.726-7.725 7.726z" fill="#f9f6f9"/></g><g><g><circle cx="120.413" cy="157.601" fill="#365e7d" r="33.31"/><path d="m120.413 124.292c-3.522 0-6.915.551-10.101 1.564 13.457 4.279 23.209 16.871 23.209 31.746 0 14.874-9.751 27.467-23.209 31.745 3.186 1.013 6.579 1.564 10.101 1.564 18.396 0 33.31-14.913 33.31-33.309-.001-18.397-14.914-33.31-33.31-33.31z" fill="#2b4d66"/></g><g><g><path d="m315.743 146.816h-108.93c-4.268 0-7.726-3.459-7.726-7.726 0-4.268 3.459-7.726 7.726-7.726h108.93c4.268 0 7.726 3.459 7.726 7.726s-3.458 7.726-7.726 7.726z" fill="#dd4fb1"/></g><g><path d="m377.554 183.839h-170.74c-4.268 0-7.726-3.459-7.726-7.726 0-4.268 3.459-7.726 7.726-7.726h170.74c4.268 0 7.726 3.459 7.726 7.726 0 4.268-3.458 7.726-7.726 7.726z" fill="#dd4fb1"/></g></g><g><g><g><path d="m443.603 184.11c-4.268 0-7.726-3.459-7.726-7.726v-18.625c0-4.268 3.459-7.726 7.726-7.726 4.154 0 8.019-1.662 10.884-4.68 2.863-3.015 4.321-6.971 4.105-11.139-.404-7.804-6.85-14.04-14.675-14.198-.103-.002-.205-.003-.307-.003-7.473 0-13.838 5.499-14.872 12.907-.096.691-.145 1.4-.145 2.103 0 4.268-3.459 7.726-7.726 7.726s-7.726-3.459-7.726-7.726c0-1.41.099-2.834.293-4.233 2.102-15.056 15.015-26.229 30.173-26.229.207 0 .414.002.623.007 15.885.32 28.973 12.991 29.796 28.846.438 8.442-2.521 16.461-8.331 22.58-3.92 4.128-8.929 7.052-14.364 8.486v11.904c-.001 4.267-3.46 7.726-7.728 7.726z" fill="#dd4fb1"/></g></g><g><path d="m443.603 210.643c-4.268 0-7.726-3.459-7.726-7.726v-4.076c0-4.268 3.459-7.726 7.726-7.726s7.726 3.459 7.726 7.726v4.076c.001 4.267-3.458 7.726-7.726 7.726z" fill="#dd4fb1"/></g></g></g><path d="m431.191 462.562h-298.366c-6.855 0-12.412-5.557-12.412-12.412v-202.49c0-6.855 5.557-12.412 12.412-12.412h298.366c6.855 0 12.413 5.557 12.413 12.412v202.49c0 6.854-5.558 12.412-12.413 12.412z" fill="#dddaec"/><path d="m431.191 235.247h-26.008c6.855 0 12.412 5.557 12.412 12.412v202.49c0 6.855-5.557 12.412-12.412 12.412h26.008c6.855 0 12.413-5.557 12.413-12.412v-202.49c0-6.855-5.558-12.412-12.413-12.412z" fill="#d0cee7"/><g><g><path d="m293.778 285.626h-126.558c-4.268 0-7.726-3.459-7.726-7.726s3.459-7.726 7.726-7.726h126.558c4.268 0 7.726 3.459 7.726 7.726s-3.458 7.726-7.726 7.726z" fill="#2b4d66"/></g><g><path d="m396.796 321.128h-229.576c-4.268 0-7.726-3.459-7.726-7.726 0-4.268 3.459-7.726 7.726-7.726h229.576c4.268 0 7.726 3.459 7.726 7.726.001 4.267-3.458 7.726-7.726 7.726z" fill="#2b4d66"/></g><g><path d="m396.796 356.63h-229.576c-4.268 0-7.726-3.459-7.726-7.726s3.459-7.726 7.726-7.726h229.576c4.268 0 7.726 3.459 7.726 7.726s-3.458 7.726-7.726 7.726z" fill="#2b4d66"/></g><g><path d="m396.796 392.133h-229.576c-4.268 0-7.726-3.459-7.726-7.726s3.459-7.726 7.726-7.726h229.576c4.268 0 7.726 3.459 7.726 7.726s-3.458 7.726-7.726 7.726z" fill="#2b4d66"/></g><g><path d="m355.589 427.635h-188.369c-4.268 0-7.726-3.459-7.726-7.726s3.459-7.726 7.726-7.726h188.369c4.268 0 7.726 3.459 7.726 7.726s-3.458 7.726-7.726 7.726z" fill="#2b4d66"/></g></g></g></svg>