<svg id="Flat" height="512" viewBox="0 0 512 512" width="512" xmlns="http://www.w3.org/2000/svg"><g><path d="m400 312h-288v-39.0575a20 20 0 0 1 16.712-19.7278l127.288-21.2147 127.288 21.2147a20 20 0 0 1 16.712 19.7278z" fill="#c85aed"/><path d="m296 240-40 56-40-56 8-24h64z" fill="#ffd4cf"/><path d="m293.0566 231.17-5.0566-15.17h-64l-5.1111 15.3331 20.9549 10.4774a36.1871 36.1871 0 0 0 16.0986 3.8h.001a36.1757 36.1757 0 0 0 16.2636-3.8833z" fill="#fbb8b0"/><path d="m334 120h-14v-48h-128v48h-14a10 10 0 0 0 -10 10v20a10 10 0 0 0 10 10h14v21.459a30 30 0 0 0 16.5835 26.8328l38.4153 19.2075a20 20 0 0 0 17.98-.0457l38.5742-19.5336a30 30 0 0 0 16.447-26.7641v-21.1559h14a10 10 0 0 0 10-10v-20a10 10 0 0 0 -10-10z" fill="#ffd4cf"/><path d="m256 200c-13.458 0-24-8.7852-24-20h16c0 1.41 3.0371 4 8 4s8-2.59 8-4h16c0 11.2148-10.542 20-24 20z" fill="#ae7069"/><path d="m232 88h-28a20 20 0 0 1 -20-20v-24a20 20 0 0 1 20-20h28z" fill="#d3463d"/><g><path d="m272 296h-32l-156.5858-22.3694a10 10 0 0 0 -11.4142 9.8994v171.797a10 10 0 0 0 8.5858 9.8995l159.4142 22.7735h32l159.4142-22.7735a10 10 0 0 0 8.5858-9.8995v-171.797a10 10 0 0 0 -11.4142-9.8995z" fill="#fed672"/><path d="m104 336v-24l104 16v48l-104-16z" fill="#fffefa"/><path d="m164.5 373.01h16v73.98h-16z" fill="#fa5d3f" transform="matrix(.162 -.987 .987 .162 -260.051 513.711)"/><path d="m157.94 398.473h16v88.975h-16z" fill="#fa5d3f" transform="matrix(.156 -.988 .988 .156 -297.527 537.556)"/><path d="m408 312-103.89 16v88l103.89-16z" fill="#fffefa"/><path d="m303.279 432h89.443v16h-89.443z" fill="#fa5d3f" transform="matrix(.984 -.179 .179 .984 -73.076 69.326)"/><path d="m240 296h32v192h-32z" fill="#fa5d3f"/><g fill="#ffd4cf"><path d="m66 352h16a30 30 0 0 1 30 30v12a30 30 0 0 1 -30 30h-16a10 10 0 0 1 -10-10v-52a10 10 0 0 1 10-10z"/><path d="m410 352h16a30 30 0 0 1 30 30v12a30 30 0 0 1 -30 30h-16a10 10 0 0 1 -10-10v-52a10 10 0 0 1 10-10z" transform="matrix(-1 0 0 -1 856 776)"/></g></g><path d="m216 128h16v16h-16z" fill="#ae7069"/><path d="m224 24h52a60 60 0 0 1 60 60v44a0 0 0 0 1 0 0h-70a42 42 0 0 1 -42-42v-62a0 0 0 0 1 0 0z" fill="#fa5d3f"/></g></svg>