<?xml version="1.0" encoding="iso-8859-1"?>
<!-- Generator: Adobe Illustrator 19.0.0, SVG Export Plug-In . SVG Version: 6.00 Build 0)  -->
<svg version="1.1" id="Layer_1" xmlns="http://www.w3.org/2000/svg" xmlns:xlink="http://www.w3.org/1999/xlink" x="0px" y="0px"
	 viewBox="0 0 512 512" style="enable-background:new 0 0 512 512;" xml:space="preserve">
<path style="fill:#FEDC3D;" d="M512,232.932v46.136c0,36.661-10.307,70.904-28.188,100.003h-84.339V232.932L275.692,41.635h45.011
	C426.355,41.635,512,127.28,512,232.932z"/>
<path style="fill:#FFE777;" d="M466.989,232.932v46.136c0,26.399-5.345,51.549-15.022,74.437l-60.635,14.379l-16.615-76.438v-58.514
	c0-29.786-24.227-54.013-54.013-54.013h-183.42v41.635L28.188,132.929L0,110.277L137.284,0v41.635h138.409
	C381.344,41.635,466.989,127.28,466.989,232.932z"/>
<polygon style="fill:#FE5F1A;" points="512,401.723 374.716,512 425.354,401.723 374.716,291.446 "/>
<path style="fill:#FE834D;" d="M374.716,291.446l92.273,110.277L374.716,512v-41.635h-183.42C85.645,470.365,0,384.72,0,279.068
	v-46.136c0-36.661,10.308-70.904,28.188-100.003l109.095,87.625v58.514c0,29.786,24.227,54.013,54.013,54.013h183.42V291.446z"/>
<g>
	<circle style="fill:#FEDC3D;" cx="326.802" cy="88.053" r="8.44"/>
	<circle style="fill:#FEDC3D;" cx="360.561" cy="110.558" r="8.44"/>
</g>
<circle style="fill:#FE5F1A;" cx="151.439" cy="423.947" r="8.44"/>
<g>
</g>
<g>
</g>
<g>
</g>
<g>
</g>
<g>
</g>
<g>
</g>
<g>
</g>
<g>
</g>
<g>
</g>
<g>
</g>
<g>
</g>
<g>
</g>
<g>
</g>
<g>
</g>
<g>
</g>
</svg>
