<svg height="444pt" viewBox="0 -3 444.35943 444" width="444pt" xmlns="http://www.w3.org/2000/svg"><path d="m267.101562 400.980469-267.101562.597656c-.199219-95.699219 71.101562-166 159.199219-166.097656 40.800781-.101563 78.101562 14.898437 106.300781 40.597656-28.855469 36.847656-28.1875 88.808594 1.601562 124.902344zm0 0" fill="#e48e66"/><path d="m159.300781 235.378906h-.199219c-88 .199219-159.300781 70.5-159.101562 166.101563l159.300781-.300781zm0 0" fill="#d18162"/><path d="m159.300781.179688c52.851563 0 95.699219 42.847656 95.699219 95.699218 0 52.855469-42.847656 95.699219-95.699219 95.699219-52.855469 0-95.699219-42.84375-95.699219-95.699219 0-52.851562 42.84375-95.699218 95.699219-95.699218zm0 0" fill="#f8ec7d"/><path d="m159.300781.179688c-52.855469 0-95.699219 42.847656-95.699219 95.699218 0 52.855469 42.84375 95.699219 95.699219 95.699219zm0 0" fill="#e2d574"/><path d="m267.101562 400.980469c-29.789062-36.132813-30.457031-88.117188-1.601562-125l.101562-.101563c25.757813-32.933594 69.285157-46.363281 109.125-33.667968 39.835938 12.695312 67.566407 48.832031 69.523438 90.597656s-22.28125 80.335937-60.757812 96.699218c-38.476563 16.359376-83.070313 7.054688-111.792969-23.328124-1.640625-1.636719-3.175781-3.371094-4.597657-5.199219zm0 0" fill="#63316d"/><path d="m363.199219 374.078125c-1.914063 0-3.789063-.554687-5.398438-1.597656l-27.800781-17.800781c-2.882812-1.816407-4.621094-4.992188-4.597656-8.398438v-55.402344c0-5.523437 4.476562-10 10-10 5.519531 0 10 4.476563 10 10v50l23.199218 14.902344c3.742188 2.371094 5.460938 6.9375 4.207032 11.1875-1.257813 4.25-5.175782 7.152344-9.609375 7.109375zm0 0" fill="#f8ec7d"/></svg>