<svg height="512" viewBox="0 0 512 512" width="512" xmlns="http://www.w3.org/2000/svg"><g id="flat"><path d="m40 96h432a0 0 0 0 1 0 0v352a16 16 0 0 1 -16 16h-400a16 16 0 0 1 -16-16v-352a0 0 0 0 1 0 0z" fill="#fbb540"/><circle cx="256" cy="304.171" fill="#eaeae8" r="88"/><g fill="#b9b9b9"><path d="m256 400.171a96 96 0 1 1 96-96 96.109 96.109 0 0 1 -96 96zm0-176a80 80 0 1 0 80 80 80.091 80.091 0 0 0 -80-80z"/><path d="m256 304a8 8 0 0 1 -8-8v-27.821a8 8 0 0 1 16 0v27.821a8 8 0 0 1 -8 8z"/><path d="m296 348.179a7.968 7.968 0 0 1 -5.266-1.981l-32-28.008a8 8 0 1 1 10.538-12.039l32 28.008a8 8 0 0 1 -5.272 14.02z"/></g><path d="m318.6 407.639a8 8 0 0 0 -10.743-3.551 112.019 112.019 0 0 1 -134.441-174.049l5.412 5.493 5.867-28.241-28.326 5.447 5.8 5.882c-44.722 49.881-43.474 126.854 4.175 175.217a126.976 126.976 0 0 0 71.243 36.609 129.967 129.967 0 0 0 20.149 1.578 127.12 127.12 0 0 0 57.314-13.643 8 8 0 0 0 3.55-10.742z" fill="#41b2ff"/><path d="m348.7 214.163a128.324 128.324 0 0 0 -153.473-22.017 8 8 0 1 0 7.792 13.975 112.017 112.017 0 0 1 134.986 175.759l-6.687-6.787-5.867 28.241 28.325-5.447-4.541-4.609a128.148 128.148 0 0 0 -.535-179.115z" fill="#d18d28"/><path d="m56 48h400a16 16 0 0 1 16 16v32a0 0 0 0 1 0 0h-432a0 0 0 0 1 0 0v-32a16 16 0 0 1 16-16z" fill="#ea9d2d"/><path d="m296 152-40-24-40 24v-104h80z" fill="#ff3444"/><path d="m216 48h80v48h-80z" fill="#e82f3e"/><circle cx="256" cy="304.171" fill="#b9b9b9" r="16"/></g></svg>