<svg height="512" viewBox="0 0 512 512" width="512" xmlns="http://www.w3.org/2000/svg"><g id="Flat"><rect fill="#6c992a" height="240" rx="24" width="336" x="152" y="112"/><path d="m192 112h256v240h-256z" fill="#86b63b"/><path d="m184 267.724v-67.724h-128v67.724a26.209 26.209 0 0 0 9.431 20.135l38.569 32.141-38.569 32.141a26.209 26.209 0 0 0 -9.431 20.135v67.724h128v-67.724a26.209 26.209 0 0 0 -9.431-20.135l-38.569-32.141 38.569-32.141a26.209 26.209 0 0 0 9.431-20.135z" fill="#f6e4a0"/><path d="m174.4 392.8-54.4-40.8-54.4 40.8a24 24 0 0 0 -9.6 19.2v28h128v-28a24 24 0 0 0 -9.6-19.2z" fill="#f0d479"/><path d="m24 440h192a0 0 0 0 1 0 0v24a24 24 0 0 1 -24 24h-144a24 24 0 0 1 -24-24v-24a0 0 0 0 1 0 0z" fill="#fcab1e"/><path d="m24 168h32v272h-32z" fill="#f99e0c"/><path d="m184 168h32v272h-32z" fill="#f99e0c"/><path d="m216 136a56 56 0 0 0 -56-56h-80a56 56 0 0 0 -56 56v40a56 56 0 0 0 56 56h80a56 56 0 0 0 56-56z" fill="#fcab1e"/><rect fill="#ffb431" height="112" rx="56" width="192" x="24" y="80"/><path d="m64 136h-16a32.036 32.036 0 0 1 32-32v16a16.019 16.019 0 0 0 -16 16z" fill="#ffc261"/><path d="m96 384h16v16h-16z" fill="#e6c97e"/><path d="m128 400h16v16h-16z" fill="#e6c97e"/><path d="m240 136h16v16h-16z" fill="#78a732"/><path d="m272 136h16v16h-16z" fill="#78a732"/><path d="m472 56h-16a24.028 24.028 0 0 0 -24-24v-16a40.045 40.045 0 0 1 40 40z" fill="#eaeae8"/><g fill="#c6dc3a"><path d="m408 320h-32v-264h-16l32-32 32 32h-16z"/><path d="m312 168h32v152h-32z"/><path d="m248 216h32v104h-32z"/><path d="m216 312h208v16h-208z"/></g><path d="m456.774 384.018a16 16 0 0 0 -16.774 15.982 16 16 0 0 0 -32 0 16 16 0 0 0 -32 0v-63.548c0-8.615-6.621-16.028-15.226-16.434a16 16 0 0 0 -16.774 15.982v112l-35.5-28.4a16.439 16.439 0 0 0 -10.269-3.6h-1.36a16.756 16.756 0 0 0 -16.471 12.815 16.449 16.449 0 0 0 5.34 16.105l50.26 43.08h112a24 24 0 0 0 24-24v-63.548c0-8.615-6.621-16.028-15.226-16.434z" fill="#fdc8a2"/></g></svg>