<svg id="flat" height="512" viewBox="0 0 512 512" width="512" xmlns="http://www.w3.org/2000/svg"><path d="m320 408h72v88h-72z" fill="#ffceb6"/><path d="m320 408v70.68994l53.2-38.68994h18.8v-32z" fill="#ffbfa1"/><path d="m56 496v-168a96 96 0 0 1 96-96h144a96 96 0 0 1 96 96v80h-72v88z" fill="#ffb401"/><path d="m264 176v56a40 40 0 0 1 -80 0v-56z" fill="#ffceb6"/><path d="m264 176v56a39.856 39.856 0 0 1 -8 24h-16a40.00178 40.00178 0 0 1 -40-40v-40z" fill="#ffbfa1"/><path d="m184 160v-48a32 32 0 0 1 32-32h64v40h-56z" fill="#c47220"/><path d="m280 120v72a48 48 0 0 1 -48 48 48 48 0 0 1 -48-48v-32l40-40z" fill="#ffceb6"/><circle cx="224" cy="160" fill="#c47220" r="8"/><path d="m256 208h-20.68652a35.08178 35.08178 0 0 1 -24.97022-10.34326l11.31348-11.31348a19.18705 19.18705 0 0 0 13.65674 5.65674h20.68652z" fill="#ffb089"/><rect fill="#ffa100" height="79.196" rx="8" transform="matrix(.707 -.707 .707 .707 -240.382 195.667)" width="16" x="108" y="348.402"/><rect fill="#ffa100" height="56.569" rx="8" transform="matrix(.707 -.707 .707 .707 -179.696 230.177)" width="16" x="180" y="303.716"/><path d="m144 416 64-64 56 56 80-40 13.88071-41.64214a9.29822 9.29822 0 0 1 8.82106-6.35786 9.29821 9.29821 0 0 1 9.29823 9.29821v22.70179h64v37.57781a34.42215 34.42215 0 0 1 -5.78119 19.094 34.42216 34.42216 0 0 1 -28.641 15.32819h-37.57781l-65.23659 47.44479a86.5569 86.5569 0 0 1 -50.91031 16.55521h-.0001a86.55689 86.55689 0 0 1 -61.205-25.35193z" fill="#ffceb6"/><g fill="#e0edff"><path d="m416 168h16v24h-16z"/><path d="m322.662 206.662h16v24h-16z" transform="matrix(.707 -.707 .707 .707 -57.769 297.858)"/><path d="m280 304h24v16h-24z"/><path d="m416 292.68652-59.88232-59.88232-11.31348 11.31348 59.88232 59.88232h-84.68652v16h104a7.99977 7.99977 0 0 0 8-8v-104h-16z"/></g><path d="m256 24h112a0 0 0 0 1 0 0v80.00006a55.99994 55.99994 0 0 1 -55.99994 55.99994h-.00011a55.99994 55.99994 0 0 1 -55.99995-55.99994v-80.00006a0 0 0 0 1 0 0z" fill="#ffd873"/><path d="m312 104h-16v-16h16v-16h16v16a16.01833 16.01833 0 0 1 -16 16z" fill="#ffc431"/><path d="m328 136h-20.68652a35.08178 35.08178 0 0 1 -24.97022-10.34326l11.31348-11.31348a19.18705 19.18705 0 0 0 13.65674 5.65674h20.68652z" fill="#ffc431"/><circle cx="256" cy="160" fill="#c47220" r="8"/><path d="m376 352 21.40842-57.08913a8 8 0 0 1 9.68841-4.88321l40.86927 11.67694a8 8 0 0 1 5.3917 10.222l-13.3578 40.0734z" fill="#8760e6"/><circle cx="296" cy="56" fill="#ffc431" r="8"/><circle cx="336" cy="56" fill="#ffc431" r="8"/></svg>