<?xml version="1.0" encoding="iso-8859-1"?>
<!-- Generator: Adobe Illustrator 19.0.0, SVG Export Plug-In . SVG Version: 6.00 Build 0)  -->
<svg version="1.1" id="Capa_1" xmlns="http://www.w3.org/2000/svg" xmlns:xlink="http://www.w3.org/1999/xlink" x="0px" y="0px"
	 viewBox="0 0 512 512" style="enable-background:new 0 0 512 512;" xml:space="preserve">
<g>
	<path style="fill:#50596D;" d="M399.94,232.598h9.883c4.716,0,8.54,3.463,8.54,7.734v131.215c0,4.271-3.823,7.734-8.54,7.734
		h-9.883V232.598z"/>
	<path style="fill:#50596D;" d="M399.94,151.262h9.883c4.716,0,8.54,3.463,8.54,7.734v16.51c0,4.271-3.823,7.734-8.54,7.734h-9.883
		V151.262z"/>
	<path style="fill:#50596D;" d="M112.059,115.052h-9.883c-4.716,0-8.539-3.463-8.539-7.734v-16.51c0-4.271,3.823-7.734,8.539-7.734
		h9.883V115.052z"/>
	<path style="fill:#50596D;" d="M112.059,170.667h-9.883c-4.716,0-8.539-3.463-8.539-7.734v-16.51c0-4.271,3.823-7.734,8.539-7.734
		h9.883V170.667z"/>
</g>
<path style="fill:#5C6376;" d="M403.027,31.462v449.076c0,17.379-14.083,31.462-31.451,31.462H140.423
	c-17.369,0-31.451-14.083-31.451-31.462V31.462C108.973,14.082,123.055,0,140.423,0h231.152
	C388.945,0,403.027,14.082,403.027,31.462z"/>
<path style="fill:#4C5568;" d="M403.031,31.462v449.076c0,17.379-14.083,31.462-31.451,31.462h-28.845
	c17.369,0,31.451-14.083,31.451-31.462V31.462C374.185,14.082,360.103,0,342.734,0h28.845C388.948,0,403.031,14.082,403.031,31.462z
	"/>
<path style="fill:#707784;" d="M169.268,512h-28.845c-17.369,0-31.451-14.083-31.451-31.462V31.462
	C108.973,14.082,123.055,0,140.423,0h28.845c-17.369,0-31.451,14.082-31.451,31.462v449.076
	C137.817,497.917,151.899,512,169.268,512z"/>
<rect x="108.969" y="55.96" style="fill:#D1D9E8;" width="294.06" height="408.76"/>
<rect x="108.969" y="55.962" style="fill:#E2E9F2;" width="28.848" height="408.77"/>
<rect x="374.18" y="55.96" style="fill:#BCC7D8;" width="28.845" height="408.76"/>
<rect x="108.969" y="55.962" style="fill:#64DDE0;" width="294.06" height="37.887"/>
<rect x="374.19" y="55.962" style="fill:#42C6C6;" width="28.845" height="37.887"/>
<rect x="108.969" y="55.962" style="fill:#86EFEF;" width="28.845" height="37.887"/>
<g>
	<path style="fill:#4C5568;" d="M269.556,36.576h-25.722c-4.267,0-7.726-3.459-7.726-7.726s3.459-7.726,7.726-7.726h25.722
		c4.268,0,7.726,3.459,7.726,7.726S273.824,36.576,269.556,36.576z"/>
	<path style="fill:#4C5568;" d="M215.679,36.576h-1.043c-4.267,0-7.726-3.459-7.726-7.726s3.459-7.726,7.726-7.726h1.043
		c4.267,0,7.726,3.459,7.726,7.726S219.947,36.576,215.679,36.576z"/>
	<path style="fill:#4C5568;" d="M269.556,494.7h-25.722c-4.267,0-7.726-3.459-7.726-7.726s3.459-7.726,7.726-7.726h25.722
		c4.268,0,7.726,3.459,7.726,7.726C277.283,491.24,273.824,494.7,269.556,494.7z"/>
</g>
<rect x="255.999" y="270.43" style="fill:#F7B41F;" width="104.84" height="103.8"/>
<g>
	<path style="fill:#EAA213;" d="M255.999,227.669c-4.267,0-7.726-3.459-7.726-7.726v-54.358c0-4.267,3.459-7.726,7.726-7.726
		c4.268,0,7.726,3.459,7.726,7.726v54.358C263.726,224.21,260.268,227.669,255.999,227.669z"/>
	<path style="fill:#EAA213;" d="M360.842,381.956H255.999c-4.267,0-7.726-3.459-7.726-7.726v-96.076h-97.116
		c-4.267,0-7.726-3.459-7.726-7.726s3.459-7.726,7.726-7.726h97.116v-15.973c0-4.267,3.459-7.726,7.726-7.726
		c4.268,0,7.726,3.459,7.726,7.726v15.973h97.116c4.268,0,7.726,3.459,7.726,7.726V374.23
		C368.568,378.497,365.109,381.956,360.842,381.956z M263.726,366.504h89.389v-88.35h-89.389V366.504z"/>
</g>
<g>
	<path style="fill:#5C6376;" d="M221.872,205.492H208.12V191.74c0-4.267-3.459-7.726-7.726-7.726s-7.726,3.459-7.726,7.726v13.752
		h-13.752c-4.267,0-7.726,3.459-7.726,7.726s3.459,7.726,7.726,7.726h13.752v13.751c0,4.267,3.459,7.726,7.726,7.726
		s7.726-3.459,7.726-7.726v-13.751h13.752c4.267,0,7.726-3.459,7.726-7.726S226.139,205.492,221.872,205.492z"/>
	<path style="fill:#5C6376;" d="M328.963,319.233h-38.461c-4.268,0-7.726-3.459-7.726-7.726s3.459-7.726,7.726-7.726h38.461
		c4.268,0,7.726,3.459,7.726,7.726S333.23,319.233,328.963,319.233z"/>
	<path style="fill:#5C6376;" d="M328.963,341.769h-38.461c-4.268,0-7.726-3.459-7.726-7.726s3.459-7.726,7.726-7.726h38.461
		c4.268,0,7.726,3.459,7.726,7.726C336.689,338.309,333.23,341.769,328.963,341.769z"/>
	<path style="fill:#5C6376;" d="M211.32,322.774l11.583-11.583c3.018-3.017,3.018-7.909,0-10.927c-3.017-3.017-7.909-3.017-10.927,0
		l-11.583,11.583l-11.583-11.583c-3.017-3.017-7.909-3.017-10.927,0s-3.018,7.909,0,10.927l11.583,11.583l-11.583,11.583
		c-3.018,3.017-3.018,7.909,0,10.927c1.509,1.509,3.486,2.263,5.463,2.263s3.955-0.755,5.463-2.263l11.583-11.583l11.583,11.583
		c1.509,1.509,3.486,2.263,5.463,2.263s3.955-0.755,5.463-2.263c3.018-3.017,3.018-7.909,0-10.927L211.32,322.774z"/>
	<path style="fill:#5C6376;" d="M314.572,243.431c-16.659,0-30.212-13.553-30.212-30.213s13.553-30.213,30.212-30.213
		c5.148,0,10.233,1.32,14.707,3.816c3.726,2.08,5.06,6.786,2.981,10.512c-2.079,3.727-6.786,5.06-10.512,2.982
		c-2.177-1.215-4.659-1.858-7.176-1.858c-8.139,0-14.76,6.621-14.76,14.76c0,8.139,6.621,14.76,14.76,14.76
		c3.025,0,5.93-0.906,8.4-2.621c3.506-2.434,8.319-1.564,10.753,1.942s1.564,8.319-1.942,10.753
		C326.713,241.571,320.763,243.431,314.572,243.431z"/>
</g>
<g>
</g>
<g>
</g>
<g>
</g>
<g>
</g>
<g>
</g>
<g>
</g>
<g>
</g>
<g>
</g>
<g>
</g>
<g>
</g>
<g>
</g>
<g>
</g>
<g>
</g>
<g>
</g>
<g>
</g>
</svg>
