<svg id="Capa_1" enable-background="new 0 0 512 512" height="512" viewBox="0 0 512 512" width="512" xmlns="http://www.w3.org/2000/svg"><g><g><path d="m248.016 471.04-114.834 29.319-36.582 9.333c-14.021 3.585-28.278-4.873-31.863-18.894l-63.851-250.106c-3.574-14.021 4.883-28.279 18.904-31.853l102.503-26.177 48.913-12.486c14.011-3.575 28.279 4.883 31.853 18.904l63.851 250.107c3.585 14.01-4.883 28.278-18.894 31.853z" fill="#ccf49f"/><path d="m248.016 471.04-114.834 29.319c-3.152-4.904-5.027-10.714-5.151-16.967l-5.738-300.73 48.913-12.486c14.011-3.575 28.279 4.883 31.853 18.904l63.851 250.107c3.585 14.01-4.883 28.278-18.894 31.853z" fill="#b2e59f"/><g><g><path d="m192.657 413.085-77.186 19.132c-11.925 2.956-23.593-5.678-24.251-17.942l-.895-16.593c-.255-4.76.458-9.434 2.037-13.776 2.482-6.91 7.131-12.982 13.435-17.215l29.69-19.92 35.284 3.719c7.589.804 14.566 4.031 20.007 9.03l.002.007c3.482 3.184 6.326 7.08 8.317 11.528l6.72 15.053c4.971 11.128-1.326 24.044-13.16 26.977z" fill="#95d5a4"/><path d="m154.957 348.867-14.303 20.458-22.191-11.413-6.063-24.46 36.494-9.045z" fill="#ecbd83"/><path d="m148.936 278.601 5.138 20.73c4.029 16.256-5.881 33.245-22.212 36.96-15.826 3.6-31.684-6.121-35.605-21.941l-5.299-21.379c-3.968-16.01 6.939-27.582 22.949-31.551 16.011-3.968 31.061 1.171 35.029 17.181z" fill="#f7d4ad"/><path d="m116.813 402.176 6.938 27.989-8.28 2.052c-11.925 2.956-23.593-5.678-24.251-17.942l-.895-16.593c-.255-4.76.458-9.434 2.037-13.776 11.243-.516 21.642 6.938 24.451 18.27z" fill="#b2e59f"/><path d="m192.657 413.085-7.98 1.978-6.938-27.989c-2.804-11.311 2.891-22.747 13.042-27.548 3.482 3.184 6.326 7.08 8.317 11.528l6.72 15.053c4.97 11.129-1.327 24.045-13.161 26.978z" fill="#a09eef"/></g><path d="m148.585 277.187c-.879 1.102-1.539 1.9-1.539 1.9-1.759 1.695-3.72 3.334-5.872 4.885-9.793 7.045-20.382 9.839-26.416 7.512 0 0-6.361-2.675-9.007-4.734-2.645-2.06-9.201-1.122-13.107 5.821-.41.727-.877 1.253-1.385 1.62l-.298-1.203c-3.971-16.022 5.795-32.224 21.816-36.195 8.011-1.986 16.069-.535 22.613 3.416 6.163 3.707 10.988 9.621 13.195 16.978z" fill="#6e4848"/></g><path d="m361.305 447.696c.268 14.453-11.229 26.403-25.693 26.682l-121.458 2.318-34.789.659c-14.453.278-26.403-11.219-26.682-25.683l-4.924-258.091c-.268-14.453 11.229-26.403 25.693-26.682l117.904-2.246 38.343-.731c14.464-.278 26.403 11.229 26.682 25.682z" fill="#dceaff"/><path d="m361.305 447.696c.268 14.453-11.229 26.403-25.693 26.682l-121.458 2.318c-.886-4.533-.803-9.333.433-14.103l76.769-297.939 38.343-.731c14.464-.278 26.403 11.229 26.682 25.682z" fill="#c2ddff"/><g><g><path d="m295.996 405.32-79.505 1.622c-12.283.251-21.757-10.745-19.692-22.853l2.79-16.381c.802-4.699 2.529-9.101 5.028-12.987 3.946-6.192 9.821-11.088 16.904-13.825l33.355-12.875 33.592 11.416c7.225 2.46 13.317 7.147 17.52 13.223v.007c2.693 3.874 4.608 8.302 5.567 13.079l3.231 16.165c2.393 11.953-6.6 23.16-18.79 23.409z" fill="#a4ccff"/><path d="m273.403 334.364-18.467 16.796-19.124-16.029-.514-25.195 37.591-.767z" fill="#ecbd83"/><path d="m283.04 264.502.436 21.353c.342 16.745-13.074 31.127-29.822 31.145-16.23.018-29.551-12.964-29.884-29.259l-.449-22.021c-.336-16.491 12.857-25.37 29.348-25.706 16.49-.337 30.035 7.997 30.371 24.488z" fill="#f7d4ad"/><path d="m224.432 377.938.588 28.83-8.529.174c-12.283.251-21.757-10.745-19.692-22.853l2.79-16.381c.802-4.699 2.529-9.101 5.028-12.987 11.079 1.979 19.577 11.544 19.815 23.217z" fill="#c2ddff"/><path d="m295.996 405.32-8.22.168-.588-28.83c-.238-11.651 7.841-21.547 18.801-23.99 2.693 3.874 4.608 8.302 5.567 13.079l3.231 16.165c2.392 11.952-6.601 23.159-18.791 23.408z" fill="#a09eef"/></g><path d="m283.01 263.046c-1.101.881-1.92 1.513-1.92 1.513-2.09 1.265-4.364 2.43-6.806 3.469-11.107 4.71-22.051 5.098-27.422 1.496 0 0-5.614-4.013-7.739-6.606s-8.726-3.126-14.068 2.784c-.56.618-1.132 1.029-1.708 1.275l-.025-1.239c-.337-16.503 12.765-30.15 29.268-30.487 8.251-.168 15.791 3.025 21.301 8.323 5.19 4.976 8.59 11.808 9.119 19.472z" fill="#6e4848"/></g><path d="m414.792 511.165-151.332-38.993c-14.007-3.609-22.436-17.89-18.827-31.897l64.409-249.966c3.609-14.007 17.89-22.436 31.897-18.827l151.332 38.994c14.007 3.609 22.436 17.89 18.827 31.897l-64.409 249.966c-3.609 14.006-17.89 22.435-31.897 18.826z" fill="#d2d2ff"/><g><g><path d="m395.121 434.5-77.016-19.804c-11.898-3.06-18.069-16.197-12.826-27.304l7.09-15.029c2.035-4.311 4.882-8.086 8.333-11.158 5.465-4.904 12.44-8.041 19.998-8.774l35.588-3.437 29.288 20.024c6.298 4.311 10.906 10.463 13.322 17.445l-.002.007c1.553 4.455 2.207 9.234 1.847 14.094l-1.232 16.439c-.908 12.155-12.582 20.533-24.39 17.497z" fill="#a09eef"/><path d="m392.427 360.082-22.301 11.215-14.112-20.579 6.276-24.406 36.413 9.364z" fill="#ecbd83"/><path d="m420.485 295.38-5.319 20.685c-4.171 16.221-20.958 26.468-37.095 21.985-15.638-4.344-24.98-20.429-20.921-36.214l5.485-21.332c4.108-15.975 19.202-20.982 35.177-16.874 15.975 4.109 26.781 15.775 22.673 31.75z" fill="#f7d4ad"/><g fill="#b8b6ff"><path d="m333.548 388.893-7.181 27.928-8.262-2.124c-11.898-3.06-18.069-16.197-12.826-27.304l7.09-15.029c2.035-4.311 4.882-8.086 8.333-11.158 10.139 4.882 15.753 16.379 12.846 27.687z"/><path d="m395.121 434.5-7.962-2.047 7.181-27.928c2.902-11.286 13.343-18.647 24.556-18.055 1.553 4.455 2.207 9.234 1.847 14.094l-1.232 16.439c-.908 12.155-12.582 20.533-24.39 17.497z"/></g></g><path d="m420.848 293.969c-1.297.553-2.256.942-2.256.942-2.353.657-4.857 1.168-7.487 1.512-11.964 1.551-22.61-1.016-26.816-5.929 0 0-4.329-5.374-5.679-8.442s-7.565-5.356-14.299-1.099c-.705.445-1.367.687-1.988.769l.309-1.201c4.111-15.986 20.398-25.61 36.384-21.499 7.993 2.055 14.397 7.157 18.281 13.742 3.662 6.187 5.101 13.682 3.551 21.205z" fill="#6e4848"/></g></g><g><path d="m289.129 25.637h-80.761l17.968-24.529c.509-.697 1.321-1.108 2.184-1.108h42.016c.904 0 1.748.451 2.25 1.202z" fill="#ffc269"/><path d="m246.754 67.455-38.386-41.818h80.761l-38.386 41.818c-1.073 1.169-2.916 1.169-3.989 0z" fill="#fee07d"/></g><g><path d="m248.749 146.359c-4.268 0-7.726-3.459-7.726-7.726v-40.158c0-4.268 3.459-7.726 7.726-7.726s7.726 3.459 7.726 7.726v40.158c0 4.267-3.459 7.726-7.726 7.726z" fill="#dad8db"/></g></g></svg>