<svg height="512pt" viewBox="-46 0 511 512" width="512pt" xmlns="http://www.w3.org/2000/svg"><path d="m394.027344 143.195312c14.226562 0 25.753906 11.53125 25.753906 25.753907v317.296875c0 14.222656-11.53125 25.753906-25.753906 25.753906h-367.773438c-14.222656 0-25.753906-11.53125-25.753906-25.753906v-317.296875c0-14.222657 11.53125-25.753907 25.753906-25.753907zm0 0" fill="#f2d67c"/><path d="m419.78125 199.855469v286.390625c0 14.226562-11.527344 25.753906-25.753906 25.753906h-30.90625c14.230468 0 25.757812-11.527344 25.757812-25.753906v-286.390625zm0 0" fill="#e2b061"/><path d="m419.78125 168.949219v30.90625h-419.28125v-30.90625c0-14.226563 11.527344-25.753907 25.753906-25.753907h367.773438c14.226562 0 25.753906 11.527344 25.753906 25.753907zm0 0" fill="#d8d8d8"/><path d="m419.78125 168.949219v30.90625h-30.902344v-30.90625c0-14.226563-11.53125-25.753907-25.757812-25.753907h30.90625c14.226562 0 25.753906 11.527344 25.753906 25.753907zm0 0" fill="#afafaf"/><path d="m36.554688 230.761719c-2.84375 0-5.148438 2.304687-5.148438 5.152343v240.03125c0 2.84375 2.304688 5.148438 5.148438 5.148438h347.171874c2.84375 0 5.152344-2.304688 5.152344-5.148438v-240.03125c0-2.847656-2.308594-5.152343-5.152344-5.152343zm0 0" fill="#fafeff"/><path d="m229.199219 450.1875h-20.605469c-2.84375 0-5.148438-2.304688-5.148438-5.148438v-32.96875c0-2.84375 2.304688-5.148437 5.148438-5.148437h20.605469c2.84375 0 5.152343 2.304687 5.152343 5.148437v32.96875c0 2.84375-2.308593 5.148438-5.152343 5.148438zm0 0" fill="#ef9867"/><path d="m291.011719 450.1875h-20.605469c-2.84375 0-5.152344-2.304688-5.152344-5.148438v-63.871093c0-2.847657 2.308594-5.152344 5.152344-5.152344h20.605469c2.84375 0 5.148437 2.304687 5.148437 5.152344v63.871093c0 2.84375-2.304687 5.148438-5.148437 5.148438zm0 0" fill="#ef9867"/><path d="m352.820312 450.1875h-20.601562c-2.847656 0-5.152344-2.304688-5.152344-5.148438v-115.382812c0-2.84375 2.304688-5.148438 5.152344-5.148438h20.601562c2.84375 0 5.152344 2.304688 5.152344 5.148438v115.382812c0 2.84375-2.308594 5.148438-5.152344 5.148438zm0 0" fill="#ef9867"/><g fill="#d8d8d8"><path d="m144.210938 457.914062h-81.386719c-4.265625 0-7.722657-3.457031-7.722657-7.722656 0-4.269531 3.457032-7.726562 7.722657-7.726562h81.386719c4.265624 0 7.726562 3.457031 7.726562 7.726562 0 4.265625-3.460938 7.722656-7.726562 7.722656zm0 0"/><path d="m113.304688 427.011719h-50.480469c-4.265625 0-7.726563-3.460938-7.726563-7.726563 0-4.269531 3.460938-7.726562 7.726563-7.726562h50.480469c4.265624 0 7.726562 3.457031 7.726562 7.726562 0 4.265625-3.460938 7.726563-7.726562 7.726563zm0 0"/><path d="m133.90625 396.105469h-71.082031c-4.265625 0-7.722657-3.460938-7.722657-7.726563s3.457032-7.726562 7.722657-7.726562h71.082031c4.269531 0 7.726562 3.460937 7.726562 7.726562s-3.457031 7.726563-7.726562 7.726563zm0 0"/><path d="m112.273438 365.199219h-50.476563c-4.269531 0-7.726563-3.457031-7.726563-7.726563 0-4.265625 3.457032-7.726562 7.726563-7.726562h50.476563c4.269531 0 7.726562 3.460937 7.726562 7.726562 0 4.269532-3.457031 7.726563-7.726562 7.726563zm0 0"/><path d="m132.878906 334.292969h-71.082031c-4.269531 0-7.726563-3.457031-7.726563-7.726563 0-4.265625 3.457032-7.722656 7.726563-7.722656h71.082031c4.265625 0 7.726563 3.457031 7.726563 7.722656 0 4.269532-3.460938 7.726563-7.726563 7.726563zm0 0"/></g><path d="m210.140625 287.421875c-79.367187 0-143.710937-64.34375-143.710937-143.710937 0-79.367188 64.34375-143.710938 143.710937-143.710938 79.371094 0 143.710937 64.34375 143.710937 143.710938 0 79.367187-64.339843 143.710937-143.710937 143.710937zm0 0" fill="#83cc9a"/><path d="m353.847656 143.710938c0 39.679687-16.089844 75.613281-42.089844 101.617187-26.003906 26-61.9375 42.09375-101.617187 42.09375-5.226563 0-10.375-.28125-15.453125-.824219 33.511719-3.585937 63.582031-18.6875 86.164062-41.269531 26-26.003906 42.089844-61.933594 42.089844-101.617187 0-39.683594-16.089844-75.617188-42.089844-101.617188-22.582031-22.582031-52.652343-37.683594-86.164062-41.269531 5.078125-.546875 10.226562-.824219 15.453125-.824219 39.679687 0 75.613281 16.089844 101.617187 42.09375 26 26 42.089844 61.933594 42.089844 101.617188zm0 0" fill="#4aa05e"/><path d="m113.820312 151.4375c-4.269531 0-7.726562-3.457031-7.726562-7.726562 0-57.371094 46.675781-104.046876 104.046875-104.046876 23.542969 0 46.617187 8.085938 64.960937 22.765626 3.332032 2.667968 2.324219 7.320312.488282 10.652343-2.058594 3.734375-6.808594 4.078125-10.140625 1.414063-15.84375-12.679688-34.96875-19.378906-55.308594-19.378906-48.851563 0-88.59375 39.742187-88.59375 88.59375 0 4.269531-3.460937 7.726562-7.726563 7.726562zm0 0" fill="#f2d67c"/><path d="m227.460938 149.3125-27.753907-20.632812 63.265625-64.046876c2.769532-2.816406 7.214844-3.09375 10.308594-.636718 3.09375 2.453125 3.839844 6.84375 1.730469 10.183594zm0 0" fill="#4aa05e"/><path d="m210.140625 166.890625c-12.800781 0-23.179687-10.378906-23.179687-23.179687 0-12.800782 10.378906-23.179688 23.179687-23.179688s23.179687 10.378906 23.179687 23.179688c0 12.800781-10.378906 23.179687-23.179687 23.179687zm0 0" fill="#f2d67c"/><path d="m210.140625 264.757812c-4.269531 0-7.726563-3.457031-7.726563-7.726562v-15.453125c0-4.265625 3.460938-7.726563 7.726563-7.726563 4.269531 0 7.726563 3.460938 7.726563 7.726563v15.453125c0 4.269531-3.457032 7.726562-7.726563 7.726562zm0 0" fill="#e8e8e8"/><path d="m323.460938 151.4375h-15.453126c-4.269531 0-7.726562-3.457031-7.726562-7.726562 0-4.265626 3.457031-7.726563 7.726562-7.726563h15.453126c4.265624 0 7.726562 3.460937 7.726562 7.726563 0 4.269531-3.460938 7.726562-7.726562 7.726562zm0 0" fill="#e8e8e8"/><path d="m130.011719 231.566406c-1.976563 0-3.953125-.753906-5.460938-2.261718-3.019531-3.015626-3.019531-7.910157 0-10.925782l10.925781-10.929687c3.015626-3.015625 7.910157-3.015625 10.925782 0 3.019531 3.015625 3.019531 7.910156 0 10.925781l-10.925782 10.929688c-1.507812 1.507812-3.488281 2.261718-5.464843 2.261718zm0 0" fill="#e8e8e8"/><path d="m290.269531 231.566406c-1.976562 0-3.953125-.753906-5.460937-2.261718l-10.929688-10.929688c-3.019531-3.015625-3.019531-7.90625 0-10.925781 3.015625-3.019531 7.910156-3.015625 10.925782 0l10.929687 10.925781c3.015625 3.015625 3.015625 7.910156 0 10.925781-1.507813 1.511719-3.488281 2.265625-5.464844 2.265625zm0 0" fill="#e8e8e8"/><path d="m331.1875 143.710938c0 4.265624-3.460938 7.726562-7.726562 7.726562h-.722657c.136719-2.554688.207031-5.128906.207031-7.726562 0-2.59375-.070312-5.171876-.207031-7.726563h.722657c4.265624 0 7.726562 3.460937 7.726562 7.726563zm0 0" fill="#d8d8d8"/></svg>