<svg id="Capa_1" enable-background="new 0 0 512 512" height="512" viewBox="0 0 512 512" width="512" xmlns="http://www.w3.org/2000/svg"><g><path d="m128.27 292.066-51.54-24.431v54.284l51.54-24.431c2.287-1.084 2.287-4.338 0-5.422z" fill="#fb2b3a"/><path d="m76.729 267.635v54.284l10.271-4.868v-44.547z" fill="#e41f2d"/><path d="m70.23 379.041c2.54 0 5.039.168 7.5.462v-117.906c0-4.142-3.358-7.5-7.5-7.5s-7.5 3.358-7.5 7.5v117.906c2.46-.294 4.96-.462 7.5-.462z" fill="#3675bb"/><g><g fill="#3675bb"><path d="m358.811 77.729h8c4.143 0 7.5-3.358 7.5-7.5s-3.357-7.5-7.5-7.5h-8c-4.143 0-7.5 3.358-7.5 7.5s3.357 7.5 7.5 7.5z"/><path d="m325.811 77.729h8c4.143 0 7.5-3.358 7.5-7.5s-3.357-7.5-7.5-7.5h-8c-4.143 0-7.5 3.358-7.5 7.5s3.357 7.5 7.5 7.5z"/><path d="m193.811 77.729h8c4.142 0 7.5-3.358 7.5-7.5s-3.358-7.5-7.5-7.5h-8c-4.142 0-7.5 3.358-7.5 7.5s3.358 7.5 7.5 7.5z"/><path d="m259.811 77.729h8c4.143 0 7.5-3.358 7.5-7.5s-3.357-7.5-7.5-7.5h-8c-4.142 0-7.5 3.358-7.5 7.5s3.357 7.5 7.5 7.5z"/><path d="m226.811 77.729h8c4.142 0 7.5-3.358 7.5-7.5s-3.358-7.5-7.5-7.5h-8c-4.142 0-7.5 3.358-7.5 7.5s3.358 7.5 7.5 7.5z"/><path d="m292.811 77.729h8c4.143 0 7.5-3.358 7.5-7.5s-3.357-7.5-7.5-7.5h-8c-4.143 0-7.5 3.358-7.5 7.5s3.357 7.5 7.5 7.5z"/><path d="m160.811 77.729h8c4.142 0 7.5-3.358 7.5-7.5s-3.358-7.5-7.5-7.5h-8c-4.142 0-7.5 3.358-7.5 7.5s3.358 7.5 7.5 7.5z"/><path d="m441.771 140.459c-4.143 0-7.5 3.358-7.5 7.5v8c0 4.142 3.357 7.5 7.5 7.5s7.5-3.358 7.5-7.5v-8c0-4.142-3.358-7.5-7.5-7.5z"/><path d="m441.771 239.459c-4.143 0-7.5 3.358-7.5 7.5v8c0 4.142 3.357 7.5 7.5 7.5s7.5-3.358 7.5-7.5v-8c0-4.142-3.358-7.5-7.5-7.5z"/><path d="m441.771 173.459c-4.143 0-7.5 3.358-7.5 7.5v8c0 4.142 3.357 7.5 7.5 7.5s7.5-3.358 7.5-7.5v-8c0-4.142-3.358-7.5-7.5-7.5z"/><path d="m441.771 206.459c-4.143 0-7.5 3.358-7.5 7.5v8c0 4.142 3.357 7.5 7.5 7.5s7.5-3.358 7.5-7.5v-8c0-4.142-3.358-7.5-7.5-7.5z"/><path d="m441.771 305.459c-4.143 0-7.5 3.358-7.5 7.5v8c0 4.142 3.357 7.5 7.5 7.5s7.5-3.358 7.5-7.5v-8c0-4.142-3.358-7.5-7.5-7.5z"/><path d="m441.771 338.459c-4.143 0-7.5 3.358-7.5 7.5v8c0 4.142 3.357 7.5 7.5 7.5s7.5-3.358 7.5-7.5v-8c0-4.142-3.358-7.5-7.5-7.5z"/><path d="m441.771 272.459c-4.143 0-7.5 3.358-7.5 7.5v8c0 4.142 3.357 7.5 7.5 7.5s7.5-3.358 7.5-7.5v-8c0-4.142-3.358-7.5-7.5-7.5z"/><path d="m169.398 434.271h-8c-4.142 0-7.5 3.358-7.5 7.5s3.358 7.5 7.5 7.5h8c4.142 0 7.5-3.358 7.5-7.5s-3.357-7.5-7.5-7.5z"/><path d="m235.398 434.271h-8c-4.142 0-7.5 3.358-7.5 7.5s3.358 7.5 7.5 7.5h8c4.142 0 7.5-3.358 7.5-7.5s-3.357-7.5-7.5-7.5z"/><path d="m202.398 434.271h-8c-4.142 0-7.5 3.358-7.5 7.5s3.358 7.5 7.5 7.5h8c4.142 0 7.5-3.358 7.5-7.5s-3.357-7.5-7.5-7.5z"/><path d="m334.398 434.271h-8c-4.143 0-7.5 3.358-7.5 7.5s3.357 7.5 7.5 7.5h8c4.143 0 7.5-3.358 7.5-7.5s-3.357-7.5-7.5-7.5z"/><path d="m367.398 434.271h-8c-4.143 0-7.5 3.358-7.5 7.5s3.357 7.5 7.5 7.5h8c4.143 0 7.5-3.358 7.5-7.5s-3.357-7.5-7.5-7.5z"/><path d="m268.398 434.271h-8c-4.142 0-7.5 3.358-7.5 7.5s3.358 7.5 7.5 7.5h8c4.143 0 7.5-3.358 7.5-7.5s-3.357-7.5-7.5-7.5z"/><path d="m301.398 434.271h-8c-4.143 0-7.5 3.358-7.5 7.5s3.357 7.5 7.5 7.5h8c4.143 0 7.5-3.358 7.5-7.5s-3.357-7.5-7.5-7.5z"/></g></g><g><g><g><circle cx="441.77" cy="70.23" fill="#01d0fb" r="62.73"/></g></g><g><path d="m413 70.23c0-28.758 19.359-52.978 45.75-60.385-5.403-1.517-11.093-2.345-16.979-2.345-34.645 0-62.73 28.085-62.73 62.73s28.085 62.73 62.73 62.73c5.887 0 11.577-.828 16.979-2.345-26.391-7.407-45.75-31.628-45.75-60.385z" fill="#01c0fa"/></g><g><g><path d="m441.771 140.459c-38.725 0-70.229-31.505-70.229-70.229s31.504-70.23 70.229-70.23 70.229 31.505 70.229 70.229-31.505 70.23-70.229 70.23zm0-125.459c-30.454 0-55.229 24.776-55.229 55.229s24.775 55.229 55.229 55.229 55.229-24.775 55.229-55.229-24.775-55.229-55.229-55.229z" fill="#62dbfb"/></g></g><g><path d="m458.056 101.856h-32.57c-2.994 0-5.701-1.78-6.887-4.529s-.623-5.939 1.432-8.117l26.98-28.6c.73-.775 1.133-1.787 1.133-2.852 0-2.291-1.864-4.155-4.155-4.155h-14.885c-4.143 0-7.5-3.358-7.5-7.5s3.357-7.5 7.5-7.5h14.885c10.563 0 19.155 8.593 19.155 19.155 0 4.907-1.854 9.576-5.223 13.145l-15.05 15.953h15.185c4.143 0 7.5 3.358 7.5 7.5s-3.358 7.5-7.5 7.5z" fill="#fff"/></g></g><g><g><g><g><circle cx="70.23" cy="70.23" fill="#4fc123" r="62.73"/></g><g><path d="m41 70.23c0-28.841 19.471-53.12 45.98-60.45-5.335-1.475-10.947-2.28-16.75-2.28-34.645 0-62.73 28.085-62.73 62.73s28.085 62.73 62.73 62.73c5.803 0 11.416-.805 16.75-2.28-26.509-7.331-45.98-31.609-45.98-60.45z" fill="#47a920"/></g><g><path d="m70.229 140.459c-38.724 0-70.229-31.505-70.229-70.23s31.505-70.229 70.229-70.229 70.229 31.505 70.229 70.229-31.504 70.23-70.229 70.23zm0-125.459c-30.453 0-55.229 24.776-55.229 55.229s24.776 55.229 55.229 55.229 55.229-24.776 55.229-55.229-24.775-55.229-55.229-55.229z" fill="#68ca44"/></g><g><path d="m73.849 101.856c-4.142 0-7.5-3.358-7.5-7.5v-40.753h-6.976c-4.142 0-7.5-3.358-7.5-7.5s3.358-7.5 7.5-7.5h14.476c4.142 0 7.5 3.358 7.5 7.5v48.253c0 4.143-3.358 7.5-7.5 7.5z" fill="#fff"/></g></g></g></g><g><g><g><circle cx="441.77" cy="441.77" fill="#fac600" r="62.73"/></g></g><g><path d="m413 441.77c0-28.758 19.359-52.978 45.75-60.385-5.403-1.516-11.093-2.345-16.979-2.345-34.645 0-62.73 28.085-62.73 62.73s28.085 62.73 62.73 62.73c5.887 0 11.577-.828 16.979-2.345-26.391-7.407-45.75-31.627-45.75-60.385z" fill="#e8b800"/></g><g><g><path d="m441.771 512c-38.725 0-70.229-31.505-70.229-70.229s31.505-70.229 70.229-70.229 70.229 31.504 70.229 70.229-31.505 70.229-70.229 70.229zm0-125.459c-30.454 0-55.229 24.776-55.229 55.229s24.774 55.23 55.229 55.23 55.229-24.776 55.229-55.229-24.775-55.23-55.229-55.23z" fill="#d7aa02"/></g></g><path d="m464.35 429.707c0-10.787-8.776-19.563-19.563-19.563h-18.095c-4.143 0-7.5 3.358-7.5 7.5s3.357 7.5 7.5 7.5h18.095c2.517 0 4.563 2.047 4.563 4.563s-2.047 4.563-4.563 4.563h-8.444c-4.143 0-7.5 3.358-7.5 7.5s3.357 7.5 7.5 7.5h8.444c2.517 0 4.563 2.047 4.563 4.563s-2.047 4.563-4.563 4.563h-18.095c-4.143 0-7.5 3.358-7.5 7.5s3.357 7.5 7.5 7.5h18.095c10.787 0 19.563-8.776 19.563-19.563 0-4.552-1.576-8.736-4.194-12.063 2.617-3.327 4.194-7.511 4.194-12.063z" fill="#883f2e"/></g><g><g><g><circle cx="70.23" cy="441.77" fill="#fb2b3a" r="62.73"/></g><g><path d="m41 441.77c0-28.841 19.471-53.12 45.98-60.45-5.334-1.475-10.947-2.28-16.75-2.28-34.645 0-62.73 28.085-62.73 62.73s28.085 62.73 62.73 62.73c5.803 0 11.416-.805 16.75-2.28-26.509-7.33-45.98-31.608-45.98-60.45z" fill="#e41f2d"/></g><g><path d="m70.229 512c-38.724 0-70.229-31.505-70.229-70.229s31.505-70.229 70.229-70.229 70.229 31.505 70.229 70.229-31.504 70.229-70.229 70.229zm0-125.459c-30.453 0-55.229 24.776-55.229 55.23s24.776 55.229 55.229 55.229 55.229-24.776 55.229-55.229-24.775-55.23-55.229-55.23z" fill="#c41926"/></g><g><circle cx="70.229" cy="441.771" fill="#fff" r="26.82"/></g><g><path d="m66 441.771c0-10.755 6.366-20.046 15.525-24.317-3.435-1.602-7.261-2.503-11.295-2.503-14.789 0-26.82 12.031-26.82 26.82s12.031 26.82 26.82 26.82c4.034 0 7.86-.901 11.295-2.503-9.159-4.272-15.525-13.563-15.525-24.317z" fill="#f2fbff"/></g><g><path d="m70.229 476.09c-18.924 0-34.32-15.396-34.32-34.32s15.396-34.32 34.32-34.32 34.32 15.396 34.32 34.32-15.396 34.32-34.32 34.32zm0-53.639c-10.653 0-19.32 8.667-19.32 19.32s8.667 19.32 19.32 19.32 19.32-8.667 19.32-19.32-8.667-19.32-19.32-19.32z" fill="#c41926"/></g></g></g><g><g><path d="m346.827 373.954h-181.654c-1.657 0-3-1.343-3-3v-229.908c0-1.657 1.343-3 3-3h181.655c1.657 0 3 1.343 3 3v229.909c-.001 1.656-1.344 2.999-3.001 2.999z" fill="#dff6fd"/></g><g><path d="m196 370.954v-229.908c0-1.657 1.343-3 3-3h-33.827c-1.657 0-3 1.343-3 3v229.909c0 1.657 1.343 3 3 3h33.827c-1.657-.001-3-1.344-3-3.001z" fill="#c8effe"/></g><g><path d="m288.833 180.405h-65.666c-4.142 0-7.5-3.358-7.5-7.5s3.358-7.5 7.5-7.5h65.666c4.143 0 7.5 3.358 7.5 7.5s-3.357 7.5-7.5 7.5z" fill="#62dbfb"/></g><g><g><path d="m309.408 212.021h-24.408c-4.143 0-7.5-3.358-7.5-7.5s3.357-7.5 7.5-7.5h24.408c4.143 0 7.5 3.358 7.5 7.5s-3.357 7.5-7.5 7.5z" fill="#62dbfb"/></g><g><path d="m262 212.021h-59.408c-4.142 0-7.5-3.358-7.5-7.5s3.358-7.5 7.5-7.5h59.408c4.143 0 7.5 3.358 7.5 7.5s-3.357 7.5-7.5 7.5z" fill="#62dbfb"/></g><g><path d="m309.408 238.339h-106.816c-4.142 0-7.5-3.358-7.5-7.5s3.358-7.5 7.5-7.5h106.816c4.143 0 7.5 3.358 7.5 7.5s-3.357 7.5-7.5 7.5z" fill="#62dbfb"/></g><g><path d="m309.408 264.657h-43.408c-4.143 0-7.5-3.358-7.5-7.5s3.357-7.5 7.5-7.5h43.408c4.143 0 7.5 3.358 7.5 7.5s-3.357 7.5-7.5 7.5z" fill="#62dbfb"/></g><g><path d="m244 264.657h-41.408c-4.142 0-7.5-3.358-7.5-7.5s3.358-7.5 7.5-7.5h41.408c4.142 0 7.5 3.358 7.5 7.5s-3.358 7.5-7.5 7.5z" fill="#62dbfb"/></g><g><path d="m309.408 290.975h-106.816c-4.142 0-7.5-3.358-7.5-7.5s3.358-7.5 7.5-7.5h106.816c4.143 0 7.5 3.358 7.5 7.5s-3.357 7.5-7.5 7.5z" fill="#01d0fb"/></g><g><path d="m309.408 317.292h-35.408c-4.143 0-7.5-3.358-7.5-7.5s3.357-7.5 7.5-7.5h35.408c4.143 0 7.5 3.358 7.5 7.5s-3.357 7.5-7.5 7.5z" fill="#01d0fb"/></g><g><path d="m253 317.292h-50.408c-4.142 0-7.5-3.358-7.5-7.5s3.358-7.5 7.5-7.5h50.408c4.143 0 7.5 3.358 7.5 7.5s-3.357 7.5-7.5 7.5z" fill="#01d0fb"/></g><g><path d="m309.408 343.61h-106.816c-4.142 0-7.5-3.358-7.5-7.5s3.358-7.5 7.5-7.5h106.816c4.143 0 7.5 3.358 7.5 7.5s-3.357 7.5-7.5 7.5z" fill="#01d0fb"/></g></g></g></g></svg>