<svg id="Flat" height="512" viewBox="0 0 512 512" width="512" xmlns="http://www.w3.org/2000/svg"><path d="m56 56h400v400h-400z" fill="#fbe9d8"/><path d="m88 88h336v336h-336z" fill="#6ed2f0"/><circle cx="344" cy="168" fill="#eb423f" r="32"/><path d="m24 104a8 8 0 0 1 -8-8v-72a8 8 0 0 1 8-8h72a8 8 0 0 1 0 16h-64v64a8 8 0 0 1 -8 8z" fill="#9aa3a8"/><path d="m488 104a8 8 0 0 1 -8-8v-64h-64a8 8 0 0 1 0-16h72a8 8 0 0 1 8 8v72a8 8 0 0 1 -8 8z" fill="#9aa3a8"/><path d="m488 496h-72a8 8 0 0 1 0-16h64v-64a8 8 0 0 1 16 0v72a8 8 0 0 1 -8 8z" fill="#9aa3a8"/><path d="m96 496h-72a8 8 0 0 1 -8-8v-72a8 8 0 0 1 16 0v64h64a8 8 0 0 1 0 16z" fill="#9aa3a8"/><path d="m280 264h-48a8 8 0 0 1 0-16h48a8 8 0 0 1 0 16z" fill="#e9eef2"/><path d="m256 288a8 8 0 0 1 -8-8v-48a8 8 0 0 1 16 0v48a8 8 0 0 1 -8 8z" fill="#e9eef2"/><path d="m88 216h96v208h-96z" fill="#ffe76c"/><path d="m184 312h64v112h-64z" fill="#f2c837"/><path d="m360 360v64h-112v-64l56-56z" fill="#b1bd70"/><path d="m360 424v-96l64-64v160z" fill="#ff8e26"/><circle cx="216" cy="344" fill="#e9eef2" r="8"/><circle cx="304" cy="352" fill="#8f9e46" r="8"/><circle cx="392" cy="344" fill="#c76f1e" r="8"/><circle cx="392" cy="376" fill="#c76f1e" r="8"/><path d="m224 376v48h-16v-48a8 8 0 0 1 16 0z" fill="#e9eef2"/><path d="m312 384v40h-16v-39.73a8.176 8.176 0 0 1 7.47-8.25 8 8 0 0 1 8.53 7.98z" fill="#8f9e46"/><g fill="#e9eef2"><circle cx="120" cy="248" r="8"/><circle cx="152" cy="248" r="8"/><circle cx="120" cy="280" r="8"/><circle cx="152" cy="280" r="8"/><circle cx="120" cy="312" r="8"/><circle cx="152" cy="312" r="8"/><circle cx="120" cy="344" r="8"/><circle cx="152" cy="344" r="8"/><circle cx="120" cy="376" r="8"/><circle cx="152" cy="376" r="8"/></g></svg>