<svg id="Layer_1" enable-background="new 0 0 512 512" height="512" viewBox="0 0 512 512" width="512" xmlns="http://www.w3.org/2000/svg"><g><g><path d="m300 472h-240c-17.673 0-32-14.327-32-32v-368c0-17.673 14.327-32 32-32h192l80 72v328c0 17.673-14.327 32-32 32z" fill="#d7e6f0"/></g><g><path d="m252 40v40c0 17.673 14.327 32 32 32h48z" fill="#a5c3dc"/></g><g><g><circle cx="177.333" cy="184" fill="#289bc3" r="104"/></g><g><path d="m201.333 184h-48c-22.091 0-40 17.909-40 40v41.978c17.648 13.797 39.863 22.022 64 22.022s46.352-8.225 64-22.022v-41.978c0-22.091-17.908-40-40-40z" fill="#00d2d2"/></g><g><path d="m177.333 224c-13.255 0-24-10.745-24-24v-16h48v16c0 13.255-10.745 24-24 24z" fill="#d7e6f0"/></g><g><circle cx="177.333" cy="136" fill="#fab991" r="40"/></g></g><g><g><path d="m110.667 336h-16c-8.837 0-16-7.163-16-16 0-8.837 7.163-16 16-16h16c8.837 0 16 7.163 16 16 0 8.837-7.164 16-16 16z" fill="#a5c3dc"/></g><g><path d="m286.667 336h-112c-8.837 0-16-7.163-16-16 0-8.837 7.163-16 16-16h112c8.837 0 16 7.163 16 16 0 8.837-7.164 16-16 16z" fill="#a5c3dc"/></g><g><path d="m110.667 392h-16c-8.837 0-16-7.163-16-16 0-8.837 7.163-16 16-16h16c8.837 0 16 7.163 16 16 0 8.837-7.164 16-16 16z" fill="#a5c3dc"/></g><g><path d="m190.667 392h-16c-8.837 0-16-7.163-16-16 0-8.837 7.163-16 16-16h16c8.837 0 16 7.163 16 16 0 8.837-7.164 16-16 16z" fill="#a5c3dc"/></g><g><path d="m110.667 448h-16c-8.837 0-16-7.163-16-16 0-8.837 7.163-16 16-16h16c8.837 0 16 7.163 16 16 0 8.837-7.164 16-16 16z" fill="#a5c3dc"/></g><g><path d="m238.667 448h-64c-8.837 0-16-7.163-16-16 0-8.837 7.163-16 16-16h64c8.837 0 16 7.163 16 16 0 8.837-7.164 16-16 16z" fill="#a5c3dc"/></g></g><g><path d="m372 368h16c53.019 0 96-42.981 96-96 0-53.019-42.981-96-96-96h-16c-53.019 0-96 42.981-96 96 0 53.019 42.981 96 96 96z" fill="#e64178"/></g><g><circle cx="372" cy="272" fill="#ff6e91" r="96"/></g><g><circle cx="372" cy="272" fill="#d7e6f0" r="64"/></g><g><circle cx="372" cy="272" fill="#ff6e91" r="32"/></g><g><path d="m372 256h-96l-11.25-16.875c-2.967-4.451-7.963-7.125-13.313-7.125h-42.593c-12.329 0-19.684 13.741-12.844 24v16h80 112c0-8.836-7.163-16-16-16z" fill="#555a6e"/></g><g><path d="m276 272h-80v16c-6.839 10.259.515 24 12.844 24h42.593c5.35 0 10.345-2.674 13.313-7.125l11.25-16.875h96c8.837 0 16-7.164 16-16z" fill="#463c4b"/></g></g></svg>