<svg enable-background="new 0 0 24 24" height="512" viewBox="0 0 24 24" width="512" xmlns="http://www.w3.org/2000/svg"><path d="m18.5 0h-13c-3.032 0-5.5 2.467-5.5 5.5s2.468 5.5 5.5 5.5h13c3.032 0 5.5-2.467 5.5-5.5s-2.468-5.5-5.5-5.5z" fill="#00bcd4"/><path d="m18.5 13h-13c-3.032 0-5.5 2.467-5.5 5.5s2.468 5.5 5.5 5.5h13c3.032 0 5.5-2.467 5.5-5.5s-2.468-5.5-5.5-5.5z" fill="#607d8b"/><path d="m12 0h-6.5c-3.032 0-5.5 2.467-5.5 5.5s2.468 5.5 5.5 5.5h6.5z" fill="#00a4b9"/><path d="m12 13h-6.5c-3.032 0-5.5 2.467-5.5 5.5s2.468 5.5 5.5 5.5h6.5z" fill="#546d79"/><path d="m18.5 21c-1.379 0-2.5-1.121-2.5-2.5s1.121-2.5 2.5-2.5 2.5 1.121 2.5 2.5-1.121 2.5-2.5 2.5z" fill="#fafafa"/><path d="m18.5 16c-1.379 0-2.5 1.121-2.5 2.5s1.121 2.5 2.5 2.5z" fill="#dadada"/><path d="m5.5 8c-1.379 0-2.5-1.121-2.5-2.5s1.121-2.5 2.5-2.5 2.5 1.121 2.5 2.5-1.121 2.5-2.5 2.5z" fill="#fafafa"/><path d="m5.5 3c-1.379 0-2.5 1.121-2.5 2.5s1.121 2.5 2.5 2.5z" fill="#dadada"/></svg>