<?xml version="1.0"?>
<svg xmlns="http://www.w3.org/2000/svg" xmlns:xlink="http://www.w3.org/1999/xlink" xmlns:svgjs="http://svgjs.com/svgjs" version="1.1" width="512" height="512" x="0" y="0" viewBox="0 0 512 512" style="enable-background:new 0 0 512 512" xml:space="preserve" class=""><g><g xmlns="http://www.w3.org/2000/svg" id="Flat"><path d="m408 256v48h-96v-48a15.989 15.989 0 0 0 16-16v-16h64v16a15.979 15.979 0 0 0 16 16z" fill="#fdc8a2" data-original="#fdc8a2" style="" class=""/><path d="m393.27 246.24a76.106 76.106 0 0 1 -68.31 3.15 15.959 15.959 0 0 0 3.04-9.39v-16h64v16a15.851 15.851 0 0 0 1.27 6.24z" fill="#fdbf92" data-original="#fdbf92" style="" class=""/><path d="m243.931 286.173-19.931 49.827h64v120h144v-120h56v-32a48 48 0 0 0 -48-48h-32l-8.974 11.965a50.087 50.087 0 0 1 -40.07 20.035 50.088 50.088 0 0 1 -44.8-27.688l-2.156-4.312h-23.5a48 48 0 0 0 -44.569 30.173z" fill="#deb540" data-original="#de5540" style="" class=""/><path d="m424 304h16v32h-16z" fill="#d4a41c" data-original="#d64a34" style="" class=""/><path d="m360 328a88.122 88.122 0 0 1 -44-11.79l8-13.856a72 72 0 0 0 67.384 2.446l6.975 14.4a88.508 88.508 0 0 1 -38.359 8.8z" fill="#d4a41c" data-original="#d64a34" style="" class=""/><path d="m240 456h-64l48-120h64z" fill="#fdc8a2" data-original="#fdc8a2" style="" class=""/><path d="m440 128h16a0 0 0 0 1 0 0v48a0 0 0 0 1 0 0h-16a24 24 0 0 1 -24-24 24 24 0 0 1 24-24z" fill="#fdb683" transform="matrix(-1 0 0 -1 872 304)" data-original="#fdb683" style="" class=""/><path d="m280 128h16a0 0 0 0 1 0 0v48a0 0 0 0 1 0 0h-16a24 24 0 0 1 -24-24 24 24 0 0 1 24-24z" fill="#fdb683" data-original="#fdb683" style="" class=""/><path d="m328 64h56a48 48 0 0 1 48 48v52a76 76 0 0 1 -76 76 76 76 0 0 1 -76-76v-52a48 48 0 0 1 48-48z" fill="#fdc8a2" data-original="#fdc8a2" style="" class=""/><path d="m432 128-17.642-5.881a44.4 44.4 0 0 1 -30.358-42.119v-40a48 48 0 0 1 48 48z" fill="#7d4a38" data-original="#7d4a38" style=""/><path d="m384 40v40a190.267 190.267 0 0 1 -50.48 23.83 190.5 190.5 0 0 1 -55.21 8.17h-14.31v-24a64 64 0 0 1 64-64h30.11a28.939 28.939 0 0 1 25.89 16z" fill="#844e3a" data-original="#844e3a" style="" class=""/><path d="m365.66 61.66c-1.06 1.06-26.84 26.08-100.78 34.29l-.88.08v-8.03a63.749 63.749 0 0 1 .51-8.11c34.56-3.98 57.09-11.75 69.96-17.61 14.05-6.4 19.87-11.93 19.92-11.99z" fill="#784533" data-original="#784533" style="" class=""/><path d="m323.58 55.16c-.72.36-18.08 8.84-51.58 8.84l-3.28-.16a63.153 63.153 0 0 1 9.4-15.94c25.29-.89 38.21-7.01 38.35-7.08z" fill="#784533" data-original="#784533" style="" class=""/><path d="m320 160a16 16 0 1 1 16-16 16.019 16.019 0 0 1 -16 16z" fill="#844e3a" data-original="#844e3a" style="" class=""/><path d="m384 160a16 16 0 1 1 16-16 16.019 16.019 0 0 1 -16 16z" fill="#844e3a" data-original="#844e3a" style="" class=""/><path d="m352 192.021a51.957 51.957 0 0 1 -28.363-8.408l8.726-13.411a36.026 36.026 0 0 0 39.274 0l8.726 13.411a51.957 51.957 0 0 1 -28.363 8.408z" fill="#fcb079" data-original="#fcb079" style="" class=""/><path d="m24 456h464v32h-464z" fill="#844e3a" data-original="#844e3a" style="" class=""/><rect fill="#d5d5d3" height="192" rx="24" width="272" x="24" y="200" data-original="#d5d5d3" style="" class=""/><g fill="#c6c6c4"><path d="m96 232h32v16h-32z" fill="#c6c6c4" data-original="#c6c6c4" style="" class=""/><path d="m144 232h32v16h-32z" fill="#c6c6c4" data-original="#c6c6c4" style="" class=""/><path d="m192 232h32v16h-32z" fill="#c6c6c4" data-original="#c6c6c4" style="" class=""/><path d="m240 232h32v16h-32z" fill="#c6c6c4" data-original="#c6c6c4" style="" class=""/><path d="m48 232h32v16h-32z" fill="#c6c6c4" data-original="#c6c6c4" style="" class=""/></g><path d="m160 392h32l-8-48h-24z" fill="#cececc" data-original="#cececc" style="" class=""/><path d="m112 424h96v32h-96z" fill="#d5d5d3" data-original="#d5d5d3" style="" class=""/><path d="m160 456h-80l48-112h56z" fill="#dfdfdd" data-original="#dfdfdd" style="" class=""/><path d="m240 424h96v32h-96z" fill="#d5d5d3" data-original="#d5d5d3" style="" class=""/><path d="m432 336v64h-104a32 32 0 0 0 -32 32v16a8 8 0 0 0 8 8h128a56 56 0 0 0 56-56v-64z" fill="#fdc8a2" data-original="#fdc8a2" style="" class=""/></g></g></svg>
