<?xml version="1.0" encoding="iso-8859-1"?>
<!-- Generator: Adobe Illustrator 19.0.0, SVG Export Plug-In . SVG Version: 6.00 Build 0)  -->
<svg xmlns="http://www.w3.org/2000/svg" xmlns:xlink="http://www.w3.org/1999/xlink" version="1.1" id="Layer_1" x="0px" y="0px" viewBox="0 0 512 512" style="enable-background:new 0 0 512 512;" xml:space="preserve" width="512" height="512">
<g>
	<polygon style="fill:#1E8AFF;" points="467,21.5 256,21.5 196,188.5 196,415.5 467,355.5  "/>
	<polygon style="fill:#54A5FF;" points="45,21.5 45,355.5 256,415.5 256,21.5  "/>
	<path style="fill:#09213D;" d="M331,241.5l-60,165h120v-105C391,268.363,364.137,241.5,331,241.5z"/>
	<path style="fill:#233952;" d="M181,241.5c-33.137,0-60,26.863-60,60v105h120L181,241.5z"/>
	<path style="fill:#FFB4B3;" d="M256,81.5l-32.5,65l32.5,65c35.899,0,65-29.102,65-65S291.899,81.5,256,81.5z"/>
	<path style="fill:#FFCAD6;" d="M191,146.5c0,35.898,29.101,65,65,65v-130C220.101,81.5,191,110.602,191,146.5z"/>
	<polygon style="fill:#DAE0E7;" points="331,241.5 271,241.5 221,331.5 256,406.5 331,406.5  "/>
	<polygon style="fill:#FFFFFF;" points="256,311.5 241,241.5 181,241.5 181,406.5 256,406.5  "/>
	<polygon points="271,241.5 256,241.5 246,301.5 256,361.5 271,361.5  "/>
	<rect x="241" y="241.5" style="fill:#09213D;" width="15" height="120"/>
	<polygon style="fill:#233952;" points="512,415.5 276,375.5 316,490.5 512,490.5  "/>
	<polygon style="fill:#09213D;" points="226,385.5 256,490.5 316,490.5 316,385.5  "/>
	<polygon style="fill:#233952;" points="166,385.5 196,490.5 256,490.5 256,385.5  "/>
	<polygon style="fill:#3D5168;" points="0,415.5 0,490.5 196,490.5 196,385.5  "/>
	<polygon style="fill:#3D5168;" points="467,355.5 256,355.5 216,385.5 256,415.5 512,415.5  "/>
	<polygon style="fill:#57697D;" points="45,355.5 0,415.5 256,415.5 256,355.5  "/>
</g>















</svg>
