<svg id="Capa_1" enable-background="new 0 0 512 512" height="512" viewBox="0 0 512 512" width="512" xmlns="http://www.w3.org/2000/svg"><g><g><g fill="#d8ecfe"><path d="m225 338c2.286 0 4.574.229 6.801.681l1.199.243v-47.449l-38.472 38.472 12.92 12.92.664-.381c5.118-2.934 10.958-4.486 16.888-4.486z"/><path d="m256 22c-135.31 0-245 109.69-245 245 0 35.492 7.558 69.216 21.134 99.665l1.301.455c-.009-.021-.019-.042-.029-.063 6.925-4.158 14.84-6.353 22.946-6.353 6.394 0 12.583 1.335 18.397 3.969l1.656.75-.253-1.8c-.297-2.113-.447-4.223-.447-6.271 0-24.619 20.029-44.647 44.647-44.647 12.76 0 24.941 5.488 33.419 15.056l1.151 1.298.547-1.646c1.15-3.462 3.025-6.51 5.573-9.057l71.958-71.958v-.414c.009-7.711 6.289-13.984 14-13.984h160.43c12.611 0 22.872 10.26 22.872 22.872v40.739l.356.3c10.12 8.52 15.924 20.966 15.924 34.147 0 1.104-.052 2.285-.158 3.611l-.162 2.024 1.703-1.105c7.236-4.695 15.627-7.177 24.266-7.177 6.675 0 13.09 1.44 19.082 4.282-.003.012-.007.025-.01.037l1.193-.574c5.534-20.451 8.504-41.955 8.504-64.156 0-135.31-109.69-245-245-245z"/></g><path d="m472.23 326.41c-9.151 0-17.665 2.703-24.809 7.339.098-1.219.161-2.447.161-3.691 0-14.487-6.755-27.391-17.281-35.752v71.924c0 10.234-6.68 18.932-15.906 21.978v63.472l1 1.37c36.768-31.532 64.078-73.778 77.1-121.895-6.107-3.032-12.984-4.745-20.265-4.745z" fill="#97d729"/><g><g><path d="m101.5 247h-10c-4.142 0-7.5-3.358-7.5-7.5s3.358-7.5 7.5-7.5h10c4.142 0 7.5 3.358 7.5 7.5s-3.358 7.5-7.5 7.5z" fill="#b3dafe"/></g></g><g><g><path d="m202 204.5h-10c-4.142 0-7.5-3.358-7.5-7.5s3.358-7.5 7.5-7.5h10c4.142 0 7.5 3.358 7.5 7.5s-3.358 7.5-7.5 7.5z" fill="#b3dafe"/></g></g><g><g><path d="m427.5 199h-10c-4.143 0-7.5-3.358-7.5-7.5s3.357-7.5 7.5-7.5h10c4.143 0 7.5 3.358 7.5 7.5s-3.357 7.5-7.5 7.5z" fill="#b3dafe"/></g></g><g><g><path d="m467.5 270h-10c-4.143 0-7.5-3.358-7.5-7.5s3.357-7.5 7.5-7.5h10c4.143 0 7.5 3.358 7.5 7.5s-3.357 7.5-7.5 7.5z" fill="#b3dafe"/></g></g><g><g><path d="m70 305.5h-10c-4.142 0-7.5-3.358-7.5-7.5s3.358-7.5 7.5-7.5h10c4.142 0 7.5 3.358 7.5 7.5s-3.358 7.5-7.5 7.5z" fill="#b3dafe"/></g></g><g><g><path d="m233 423.043-71.958-71.958c-4.371-4.371-6.779-10.183-6.779-16.364 0-2.36.356-4.664 1.033-6.856l-.776-.767c-8.363-9.437-20.567-15.393-34.168-15.393-25.21 0-45.648 20.437-45.648 45.648 0 2.177.163 4.315.457 6.411-5.737-2.599-12.101-4.058-18.81-4.058-8.899 0-17.197 2.556-24.218 6.96 35.086 78.686 110.433 135.465 199.867 144.162l1-4.369z" fill="#97d729"/></g><path d="m233 338.924-1-1.223c-2.262-.459-4.603-.701-7-.701-6.329 0-12.263 1.682-17.385 4.62l-.166 1.248 25.551 25.551z" fill="#97d729"/></g><path d="m233 367.005-37.058-37.058s17.831-17.831 37.058-37.058v-46.889c0-.343.027-.679.051-1.015-.353.325-.705.653-1.047.996l-71.669 71.669c-9.428 9.428-9.428 24.715 0 34.143l72.665 72.664z" fill="#fb2b3a"/><path d="m233 266.662v-20.662c0-.343.027-.679.051-1.015-.353.325-.705.653-1.047.996l-71.669 71.669c-9.428 9.428-9.428 24.715 0 34.143l8.998 8.998c-7.643-9.481-7.068-23.393 1.738-32.199z" fill="#e41f2d"/><path d="m407.159 389.373h-80.531l2.715-2.715c5.598-5.599 5.598-14.709 0-20.308l-15.603-15.602h84.688v-118.748l-1-1h-150.428c-8.284 0-15 6.716-15 15v219l4.25 1h159.868l4.164-1c5.193-3.791 10.24-7.771 15.113-11.95v-64.12l-.117-1.031c-2.528.95-5.263 1.474-8.119 1.474z" fill="#fd4755"/><g><path d="m400.282 465h-168.282v45.828c7.897.768 15.901 1.172 24 1.172 53.948 0 103.809-17.454 144.282-47z" fill="#8d9cdb"/></g><g><g><path d="m404.845 53.814c-4.377-1.639-8.891-2.206-13.259-1.838.418-2.791.463-5.685.067-8.623-2.254-16.726-17.64-28.458-34.367-26.205-3.629.489-7.022 1.598-10.089 3.203-.952-2.682-2.29-5.278-4.042-7.7-9.892-13.675-28.996-16.742-42.671-6.85-5.227 3.781-8.898 8.909-10.894 14.565-.269-.141-.535-.285-.81-.419-15.181-7.376-33.466-1.048-40.841 14.132-2.808 5.78-3.625 12.009-2.728 17.915-1.242-.103-2.502-.14-3.779-.089-16.864.675-29.987 14.894-29.312 31.758.421 10.509 6.102 19.564 14.404 24.734-2.764 4.818-4.254 10.442-4.016 16.402.368 9.18 4.754 17.246 11.391 22.587 2.265-9.865 11.11-17.247 21.653-17.247h4.594v-10.113c0-17.367 14.129-31.496 31.495-31.496h53.506c17.366 0 31.495 14.129 31.495 31.496v10.113h4.595c10.614 0 19.508 7.483 21.698 17.449 4.258-3.344 7.681-7.86 9.718-13.301 3.338-8.912 2.244-18.398-2.177-26.039 5.436-3.437 9.838-8.609 12.268-15.096 5.921-15.807-2.093-33.418-17.899-39.338z" fill="#fe9901"/></g><g><path d="m258 85.5c0-25.683 10.903-49.041 28.715-66.455-14.738-5.877-31.731.536-38.775 15.034-2.808 5.78-3.625 12.009-2.728 17.915-1.242-.103-2.502-.14-3.779-.089-16.864.675-29.987 14.894-29.312 31.758.421 10.509 6.102 19.564 14.404 24.734-2.764 4.818-4.254 10.442-4.016 16.402.368 9.18 4.754 17.246 11.391 22.587 2.265-9.865 11.11-17.247 21.653-17.247h4.594v-10.113c0-3.28.506-6.444 1.44-9.42-2.335-8.012-3.587-16.425-3.587-25.106z" fill="#fb8801"/></g><g><g><path d="m260.147 129.137h-4.594c-12.824 0-23.22 10.396-23.22 23.22v5.197c0 12.824 10.396 23.22 23.22 23.22h4.594z" fill="#f6a96c"/></g><g><path d="m381.238 129.137h-4.594v51.638h4.594c12.824 0 23.22-10.396 23.22-23.22v-5.197c0-12.824-10.396-23.221-23.22-23.221z" fill="#ffbd86"/></g></g><g><path d="m338.361 220.275h-39.931c-.776 0-1.545-.03-2.309-.076v18.289c0 12.302 9.973 22.275 22.275 22.275 12.302 0 22.275-9.973 22.275-22.275v-18.289c-.765.046-1.534.076-2.31.076z" fill="#ffbd86"/></g><g><path d="m317 238.488v-18.213h-18.57c-.776 0-1.545-.03-2.309-.076v18.289c0 12.302 9.973 22.275 22.275 22.275 3.773 0 7.325-.942 10.44-2.597-7.04-3.744-11.836-11.15-11.836-19.678z" fill="#f6a96c"/></g><g><path d="m338.361 221.275h-39.931c-21.695 0-39.282-17.587-39.282-39.282v-61.968c0-17.947 14.549-32.496 32.496-32.496h53.506c17.947 0 32.496 14.549 32.496 32.496v61.968c-.002 21.695-17.589 39.282-39.285 39.282z" fill="#fed2a4"/></g><path d="m290.503 181.993v-61.968c0-17.947 14.549-32.495 32.496-32.495h-31.356c-17.947 0-32.496 14.549-32.496 32.495v61.968c0 21.695 17.587 39.282 39.282 39.282h31.356c-21.694 0-39.282-17.587-39.282-39.282z" fill="#ffbd86"/><g><path d="m318.492 204.5h-.193c-15.012 0-27.225-12.213-27.225-27.225 0-4.142 3.357-7.5 7.5-7.5s7.5 3.358 7.5 7.5c0 6.741 5.484 12.225 12.225 12.225h.193c6.741 0 12.226-5.484 12.226-12.225 0-4.142 3.357-7.5 7.5-7.5s7.5 3.358 7.5 7.5c0 15.012-12.213 27.225-27.226 27.225z" fill="#d88a55"/></g><g><g><path d="m285.49 153.163c-4.143 0-7.5-3.358-7.5-7.5v-15.188c0-4.142 3.357-7.5 7.5-7.5s7.5 3.358 7.5 7.5v15.188c0 4.142-3.357 7.5-7.5 7.5z" fill="#d88a55"/></g><g><path d="m351.302 153.163c-4.143 0-7.5-3.358-7.5-7.5v-15.188c0-4.142 3.357-7.5 7.5-7.5s7.5 3.358 7.5 7.5v15.188c0 4.142-3.358 7.5-7.5 7.5z" fill="#d88a55"/></g></g><g><path d="m318.392 171.388c-1.706 0-3.421-.579-4.827-1.763l-9.618-8.1c-2.698-2.272-3.448-6.118-1.802-9.237l9.618-18.225c1.933-3.662 6.466-5.066 10.134-3.132 3.663 1.933 5.065 6.47 3.132 10.133l-6.798 12.881 4.996 4.207c3.168 2.668 3.574 7.4.905 10.568-1.484 1.76-3.605 2.668-5.74 2.668z" fill="#d88a55"/></g></g><g><g><path d="m255.761 335.738 10.267-10.267c.028-.028.062-.047.091-.074l-138.953-130.336c-1.505-1.412-2.369-3.406-2.369-5.47v-21.321h-15v21.322c0 6.192 2.59 12.173 7.107 16.41l138.62 130.025c.08-.097.148-.2.237-.289z" fill="#b6c4ff"/></g><path d="m275.896 353.519 10.154-10.154c1.037-1.037 2.224-1.87 3.505-2.505l-17.279-16.207c-1.969-1.847-5.048-1.797-6.956.111l-10.266 10.267c-1.997 1.997-1.945 5.25.115 7.182l17.543 16.455c.646-1.92 1.716-3.681 3.184-5.149z" fill="#26a6fe"/><path d="m275.896 353.519 2.777-2.777-9.093-8.529c-2.06-1.932-2.112-5.185-.115-7.182l6.716-6.716-3.904-3.662c-1.969-1.847-5.048-1.797-6.956.111l-10.266 10.267c-1.997 1.997-1.945 5.25.115 7.182l17.543 16.455c.645-1.92 1.715-3.681 3.183-5.149z" fill="#0593fc"/><path d="m188.467 83.659h-38.132v1.032c0 2.292-1.865 4.157-4.157 4.157h-57.761c-2.292 0-4.157-1.865-4.157-4.157v-1.032h-38.133c-5.697 0-10.315 4.618-10.315 10.315v57.761c0 5.697 4.618 10.315 10.315 10.315h142.34c5.697 0 10.315-4.618 10.315-10.315v-57.761c0-5.697-4.618-10.315-10.315-10.315z" fill="#9faced"/><path d="m66.345 141.39c-5.697 0-10.315-4.618-10.315-10.315v-47.416h-9.904c-5.697 0-10.315 4.618-10.315 10.315v57.761c0 5.697 4.618 10.315 10.315 10.315h142.34c5.697 0 10.315-4.618 10.315-10.315v-10.345z" fill="#8d9cdb"/><g><path d="m92.542 88.848v75.264c0 2.848 2.309 5.157 5.157 5.157h39.195c2.848 0 5.157-2.309 5.157-5.157v-75.264z" fill="#596ca9"/></g><path d="m113.49 164.112v-74.264h-20.948v74.264c0 2.848 2.309 5.157 5.157 5.157h20.948c-2.848.001-5.157-2.308-5.157-5.157z" fill="#465a94"/><g><path d="m146.178 89.848h-57.762c-2.848 0-5.157-2.309-5.157-5.157v-11.346c0-2.848 2.309-5.157 5.157-5.157h57.761c2.848 0 5.157 2.309 5.157 5.157v11.346c.001 2.848-2.308 5.157-5.156 5.157z" fill="#7a8ccb"/></g><g><path d="m73 151h-17c-4.4 0-8-3.6-8-8 0-4.4 3.6-8 8-8h17c4.4 0 8 3.6 8 8 0 4.4-3.6 8-8 8z" fill="#596ca9"/></g></g><path d="m407.43 231h-10.002v118.748h-86.101l17.309 17.309c5.208 5.209 5.208 13.685 0 18.894l-4.422 4.422h82.945c13.334 0 24.143-10.809 24.143-24.143v-111.358c0-13.184-10.688-23.872-23.872-23.872z" fill="#fb2b3a"/><path d="m407.43 231h-10.002v118.748h-84.688l13.779 13.779h79.758c2.761 0 5-2.239 5-5v-103.746c0-5.524 4.478-10.002 10.002-10.002 2.972 0 5.814.547 8.438 1.539-3.441-8.957-12.119-15.318-22.287-15.318z" fill="#e41f2d"/><g><path d="m329.342 386.658-10.154 10.154c-5.585 5.585-14.723 5.585-20.308 0l-23.692-23.692c-5.585-5.585-5.585-14.723 0-20.308l10.154-10.154c5.585-5.585 14.723-5.585 20.308 0l23.692 23.692c5.585 5.585 5.585 14.723 0 20.308z" fill="#ffbd86"/></g><path d="m296.188 373.119c-5.585-5.584-5.585-14.723 0-20.308l9.808-9.808-.346-.346c-5.585-5.585-14.723-5.585-20.308 0l-10.154 10.154c-5.585 5.585-5.585 14.723 0 20.308l23.692 23.692c5.585 5.585 14.723 5.585 20.308 0l.346-.346z" fill="#f6a96c"/></g><path d="m109.178 84.691v-11.346c0-2.848 2.309-5.157 5.157-5.157h-25.919c-2.848 0-5.157 2.309-5.157 5.157v11.346c0 2.848 2.309 5.157 5.157 5.157h25.918c-2.847 0-5.156-2.309-5.156-5.157z" fill="#596ca9"/></g></svg>