<svg id="Capa_1" enable-background="new 0 0 492.739 492.739" height="512" viewBox="0 0 492.739 492.739" width="512" xmlns="http://www.w3.org/2000/svg"><g><g><path d="m376.216 335.726 31.642 140.165c2.688 11.908-10.297 21.168-20.68 14.747l-140.809-87.09-140.809 87.09c-10.382 6.421-23.368-2.839-20.68-14.747l2.433-10.778 29.209-129.387-112.65-147.683c-6.915-9.065-.45-22.126 10.951-22.126h127.57l92.056-159.044c5.305-9.165 18.536-9.165 23.84 0l92.057 159.043h127.57c11.401 0 17.865 13.061 10.951 22.126z" fill="#d9b1ee"/><g><path d="m147.696 327.128-95.001-124.545c-2.083-2.731-.136-6.667 3.3-6.667h101.304c1.481 0 2.85-.789 3.592-2.071l81.888-141.474c1.598-2.761 5.585-2.761 7.183 0l81.888 141.474c.742 1.282 2.111 2.071 3.592 2.071h101.304c3.435 0 5.383 3.935 3.3 6.667l-95.001 124.545c-.745.976-1.019 2.233-.748 3.431l23.61 104.586c.81 3.588-3.103 6.378-6.231 4.443l-113.121-69.965c-1.338-.827-3.028-.827-4.366 0l-113.121 69.965c-3.128 1.935-7.041-.855-6.231-4.443l23.61-104.586c.268-1.198-.006-2.454-.751-3.431z" fill="#fee97d"/></g></g><g><g><path d="m146.525 465.113 29.209-129.387-112.651-147.683c-6.915-9.065-.45-22.126 10.951-22.126h-59.212c-11.401 0-17.865 13.061-10.951 22.126l112.651 147.684-29.208 129.386-2.433 10.778c-2.688 11.908 10.297 21.168 20.68 14.747l40.916-25.306z" fill="#cb97e7"/></g><g><path d="m202.474 353.51c3.554-15.745-.048-32.255-9.837-45.089l-80.731-105.838c-2.083-2.731-.136-6.667 3.3-6.667h-59.212c-3.435 0-5.383 3.935-3.3 6.667l95.001 124.545c.745.977 1.019 2.233.748 3.431l-23.61 104.586c-.81 3.588 3.103 6.378 6.231 4.443l60.412-37.365z" fill="#fed402"/></g></g><g fill="#d9b1ee"><path d="m248.731 218.915c-4.142 0-7.5 3.358-7.5 7.5v69.556c0 4.142 3.358 7.5 7.5 7.5s7.5-3.358 7.5-7.5v-69.556c0-4.142-3.358-7.5-7.5-7.5z"/><path d="m214.839 219.424c-3.933-1.308-8.176.822-9.482 4.753l-17.203 51.784-18.052-52.006c-1.358-3.913-5.633-5.982-9.545-4.626-3.913 1.358-5.984 5.632-4.626 9.545l23.799 68.563c1.284 3.616 4.713 6.034 8.546 6.034h.063c3.858-.026 7.284-2.499 8.542-6.2l22.711-68.363c1.306-3.932-.822-8.177-4.753-9.484z"/><path d="m308.229 218.915h-19.368c-1.993 0-3.905.793-5.312 2.205s-2.195 3.326-2.188 5.319v69.532c0 4.142 3.358 7.5 7.5 7.5s7.5-3.358 7.5-7.5v-22.754c4.184-.022 9.128-.045 11.868-.045 15.171 0 27.513-12.17 27.513-27.129 0-14.958-12.342-27.128-27.513-27.128zm0 39.257c-2.72 0-7.603.022-11.774.044-.022-4.3-.045-9.383-.045-12.173 0-2.354-.013-7.633-.026-12.128h11.845c6.783 0 12.513 5.554 12.513 12.128 0 6.575-5.73 12.129-12.513 12.129z"/></g><g fill="#99e6fc"><path d="m401.307 310.178c-2.666-13.176-10.479-24.745-21.705-32.14-1.16-.764-1.16-2.465 0-3.229 11.227-7.395 19.039-18.963 21.705-32.14.289-1.426 2.327-1.426 2.615 0 2.666 13.176 10.479 24.745 21.705 32.14 1.16.764 1.16 2.465 0 3.229-11.227 7.395-19.039 18.963-21.705 32.14-.289 1.426-2.327 1.426-2.615 0z"/><path d="m164.055 116.369c-2.316-11.446-9.103-21.495-18.855-27.919-1.008-.664-1.008-2.141 0-2.805 9.753-6.424 16.539-16.473 18.855-27.919.251-1.239 2.021-1.239 2.272 0 2.316 11.446 9.103 21.495 18.855 27.919 1.008.664 1.008 2.141 0 2.805-9.753 6.424-16.539 16.473-18.855 27.919-.251 1.238-2.021 1.238-2.272 0z"/><path d="m87.773 434.368c-1.94-9.59-7.626-18.01-15.797-23.392-.844-.556-.844-1.794 0-2.35 8.171-5.382 13.857-13.802 15.797-23.392.21-1.038 1.693-1.038 1.903 0 1.94 9.59 7.626 18.01 15.797 23.392.844.556.844 1.794 0 2.35-8.171 5.382-13.857 13.802-15.797 23.392-.21 1.038-1.693 1.038-1.903 0z"/></g></g></svg>