<svg height="512" viewBox="0 0 512 512" width="512" xmlns="http://www.w3.org/2000/svg"><g id="Flat"><rect fill="#8acce7" height="320" rx="32" width="464" x="24" y="104"/><path d="m24 376h464a0 0 0 0 1 0 0v16a32 32 0 0 1 -32 32h-400a32 32 0 0 1 -32-32v-16a0 0 0 0 1 0 0z" fill="#379ec3"/><path d="m64 136h384a8 8 0 0 1 8 8v232a0 0 0 0 1 0 0h-400a0 0 0 0 1 0 0v-232a8 8 0 0 1 8-8z" fill="#a2c32a"/><circle cx="256" cy="400" fill="#8acce7" r="8"/><path d="m224 424v32a32 32 0 0 1 -32 32h128a32 32 0 0 1 -32-32v-32z" fill="#8acce7"/><path d="m424 56v320h-336v-320a32.004 32.004 0 0 1 32-32h272a32.004 32.004 0 0 1 32 32z" fill="#eedc9a"/><path d="m424 56v32h-336v-32a32.004 32.004 0 0 1 32-32h272a32.004 32.004 0 0 1 32 32z" fill="#eebe33"/><circle cx="120" cy="56" fill="#e44042" r="8"/><circle cx="144" cy="56" fill="#e88604" r="8"/><circle cx="168" cy="56" fill="#349966" r="8"/><path d="m142.13368 307.54452 93.35142-153.75527a24 24 0 0 1 41.0298 0l93.35142 153.75527a24 24 0 0 1 -20.5149 36.45548h-186.70284a24 24 0 0 1 -20.5149-36.45548z" fill="#e44042"/><g fill="#c4d4e0"><circle cx="256" cy="304" r="16"/><path d="m248 264h16l16-64h-48z"/></g></g></svg>