<svg id="Layer_35" enable-background="new 0 0 64 64" height="512" viewBox="0 0 64 64" width="512" xmlns="http://www.w3.org/2000/svg"><path d="m31 56h18v6h-18z" fill="#969faa"/><path d="m62 48v4c0 2.21-1.79 4-4 4h-9-18-9c-2.21 0-4-1.79-4-4v-4h4 36z" fill="#aab2bd"/><path d="m18 22h40c2.209 0 4 1.791 4 4v22h-44z" fill="#e6e9ed"/><path d="m38 20c0 .68-.04 1.34-.11 2-.15 1.39-.47 2.73-.92 4-2.25 6.39-8.01 11.12-14.97 11.89-.66.07-1.32.11-2 .11s-1.34-.04-2-.11c-9-1-16-8.63-16-17.89 0-9.94 8.06-18 18-18s18 8.06 18 18z" fill="#ffeaa7"/><path d="m58 27v21h-36v-10.11c6.96-.77 12.72-5.5 14.97-11.89h20.03c.55 0 1 .45 1 1z" fill="#69d6f4"/><path d="m54 30v10h-8v-6h-2v-4z" fill="#fcd770"/><path d="m46 40v4h-10v-10h8 2z" fill="#b4dd7f"/><g fill="#ff826e"><circle cx="26" cy="26" r="3"/><path d="m26 15v4c-3.86 0-7 3.14-7 7h-4c0-6.07 4.93-11 11-11z"/><path d="m26 7v4c-8.27 0-15 6.73-15 15h-4c0-10.48 8.52-19 19-19z"/></g><path d="m22 26c0 2.206 1.794 4 4 4s4-1.794 4-4-1.794-4-4-4-4 1.794-4 4zm6 0c0 1.103-.897 2-2 2s-2-.897-2-2 .897-2 2-2 2 .897 2 2z"/><path d="m20 26c0-3.309 2.691-6 6-6h1v-6h-1c-6.617 0-12 5.383-12 12v1h6zm-3.95-1c.47-4.717 4.233-8.48 8.95-8.95v2.012c-3.613.453-6.485 3.325-6.938 6.938z"/><path d="m26 12h1v-6h-1c-11.028 0-20 8.972-20 20v1h6v-1c0-7.72 6.28-14 14-14zm-15.969 13h-2.004c.503-9.131 7.842-16.47 16.973-16.973v2.003c-8.027.498-14.472 6.943-14.969 14.97z"/><path d="m32.146 24.643 1.868.715c.254-.665.463-1.355.62-2.05l-1.951-.439c-.136.601-.316 1.198-.537 1.774z"/><path d="m33 20.001c0 .348-.013.691-.04 1.032l1.994.156c.031-.392.046-.789.046-1.189 0-.318-.01-.635-.029-.949l-1.996.123c.016.273.025.549.025.827z"/><path d="m33.223 12.913c-.336-.627-.722-1.236-1.145-1.809l-1.609 1.188c.367.497.701 1.024.993 1.568z"/><path d="m32.727 17.336 1.958-.408c-.146-.698-.343-1.392-.587-2.061l-1.879.685c.211.579.382 1.179.508 1.784z"/><path d="m58 21h-19.051c.018-.333.051-.662.051-1 0-10.477-8.523-19-19-19s-19 8.523-19 19c0 9.453 6.947 17.294 16 18.739v13.261c0 2.757 2.243 5 5 5h8v4h-4v2h28v-2h-4v-4h8c2.757 0 5-2.243 5-5v-26c0-2.757-2.243-5-5-5zm0 2c1.654 0 3 1.346 3 3v21h-2v-20c0-1.103-.897-2-2-2h-18.69c.179-.654.321-1.32.429-2zm-20.353 4h19.353v20h-34v-8.261c6.684-1.067 12.21-5.617 14.647-11.739zm-34.647-7c0-9.374 7.626-17 17-17s17 7.626 17 17-7.626 17-17 17-17-7.626-17-17zm17 19c.338 0 .667-.033 1-.051v8.051h-2v-8.051c.333.018.662.051 1 .051zm28 22h-16v-4h16zm10-6h-36c-1.654 0-3-1.346-3-3v-3h42v3c0 1.654-1.346 3-3 3z"/><path d="m37 51h6v2h-6z"/><path d="m33 51h2v2h-2z"/><path d="m45 51h2v2h-2z"/><path d="m47 41h8v-12h-12v4h-8v12h12zm-2-10h8v8h-6v-6h-2zm0 12h-8v-8h8z"/><path d="m25 39h8v2h-8z"/><path d="m25 43h8v2h-8z"/></svg>