<svg id="Capa_1" enable-background="new 0 0 512 512" height="512" viewBox="0 0 512 512" width="512" xmlns="http://www.w3.org/2000/svg"><g><path d="m82.581 330.323h-16.517c-22.804 0-41.29-18.486-41.29-41.29 0-13.682 11.092-24.774 24.774-24.774h33.032v66.064z" fill="#50aaa0"/><path d="m396.387 0h-305.548l-8.506 16.516v487.484h388.377l16.516-8.516v-404.645z" fill="#ebffb9"/><path d="m90.839 470.71v-470.71c-9.121 0-16.516 7.394-16.516 16.516v478.968c0 9.122 7.395 16.516 16.516 16.516h379.871c9.121 0 16.516-7.395 16.516-16.516h-371.613c-13.683 0-24.774-11.092-24.774-24.774z" fill="#cdfaa0"/><path d="m487.226 89.421c0-4.38-1.74-8.581-4.838-11.679l-72.908-72.905c-3.097-3.097-7.298-4.837-11.678-4.837h-1.415v82.581c0 4.56 3.697 8.258 8.258 8.258h82.581z" fill="#cdfaa0"/><path d="m305.548 313.807h-256c-2.896 0-5.677-.497-8.261-1.411l-7.954 13.271v104.333c0 13.683 11.092 24.774 24.774 24.774h247.441l16.516-8.839v-115.612c0-9.122-7.394-16.516-16.516-16.516z" fill="#8ce1a4"/><path d="m41.29 312.396c-9.6-3.413-16.516-12.592-16.516-23.364v148.645c0 13.682 11.092 24.774 24.774 24.774h256c9.121 0 16.516-7.395 16.516-16.516h-256c-13.682 0-24.774-11.092-24.774-24.774z" fill="#78c2a4"/><path d="m189.855 412.847c-.016 0-.032 0-.048 0-5.177.028-10.726.048-15.065.056v-58.496c0-4.56-3.694-8.258-8.258-8.258s-8.258 3.698-8.258 8.258v66.698c0 4.024 2.903 7.464 6.871 8.141.589.101 1.04.177 8.444.177 3.573 0 8.758-.02 16.363-.06 4.556-.024 8.234-3.742 8.21-8.302-.025-4.549-3.719-8.214-8.259-8.214z" fill="#fff"/><path d="m252.218 380.565c-8.21-3.032-15.855-6.331-18.185-7.351-1.863-1.488-1.798-3.565-1.669-4.431.169-1.194 1.032-4.113 5.363-5.419 9.484-2.839 18.226 4.077 18.452 4.262 3.492 2.899 8.669 2.44 11.597-1.04 2.935-3.492 2.484-8.702-1.008-11.637-.629-.524-15.548-12.887-33.798-7.399-9.185 2.766-15.677 10.004-16.96 18.887-1.194 8.331 2.419 16.347 9.427 20.915.363.238.742.448 1.145.625.387.173 9.581 4.266 19.927 8.081 2.944 1.089 9.71 4.161 8.806 9.19-.669 3.762-5.25 7.657-11.742 7.657-6.661 0-13.073-2.685-17.145-7.181-3.056-3.375-8.282-3.637-11.661-.577-3.387 3.06-3.645 8.282-.581 11.665 7.153 7.895 18.137 12.609 29.387 12.609 14.024 0 25.806-8.948 28-21.274 1.661-9.272-2.557-21.389-19.355-27.582z" fill="#fff"/><path d="m117.693 385.412 18.492-26.251c2.629-3.726 1.734-8.879-1.992-11.504-3.742-2.629-8.887-1.738-11.508 1.996l-15.084 21.413-15.061-21.409c-2.629-3.726-7.774-4.633-11.508-2.004-3.734 2.625-4.629 7.774-2.008 11.504l18.47 26.256-21.833 30.994c-2.629 3.726-1.734 8.879 1.992 11.504 1.452 1.02 3.105 1.508 4.75 1.508 2.597 0 5.153-1.218 6.758-3.504l18.425-26.156 18.397 26.152c1.613 2.286 4.169 3.508 6.766 3.508 1.637 0 3.298-.488 4.742-1.504 3.734-2.625 4.629-7.774 2.008-11.504z" fill="#fff"/><g fill="#8ce1a4"><path d="m231.226 165.161h-24.774c-4.561 0-8.258-3.697-8.258-8.258v-16.516c0-4.561 3.697-8.258 8.258-8.258h24.774c4.561 0 8.258 3.697 8.258 8.258v16.516c0 4.561-3.697 8.258-8.258 8.258z"/><path d="m363.355 165.161h-33.032c-4.561 0-8.258-3.697-8.258-8.258v-16.516c0-4.561 3.697-8.258 8.258-8.258h33.032c4.561 0 8.258 3.697 8.258 8.258v16.516c0 4.561-3.697 8.258-8.258 8.258z"/><path d="m297.29 165.161h-33.032c-4.561 0-8.258-3.697-8.258-8.258v-16.516c0-4.561 3.697-8.258 8.258-8.258h33.032c4.561 0 8.258 3.697 8.258 8.258v16.516c0 4.561-3.697 8.258-8.258 8.258z"/><path d="m231.226 214.71h-24.774c-4.561 0-8.258-3.697-8.258-8.258v-16.516c0-4.561 3.697-8.258 8.258-8.258h24.774c4.561 0 8.258 3.697 8.258 8.258v16.516c0 4.56-3.697 8.258-8.258 8.258z"/><path d="m363.355 214.71h-33.032c-4.561 0-8.258-3.697-8.258-8.258v-16.516c0-4.561 3.697-8.258 8.258-8.258h33.032c4.561 0 8.258 3.697 8.258 8.258v16.516c0 4.56-3.697 8.258-8.258 8.258z"/><path d="m297.29 214.71h-33.032c-4.561 0-8.258-3.697-8.258-8.258v-16.516c0-4.561 3.697-8.258 8.258-8.258h33.032c4.561 0 8.258 3.697 8.258 8.258v16.516c0 4.56-3.697 8.258-8.258 8.258z"/><path d="m231.226 256h-24.774c-4.561 0-8.258-3.697-8.258-8.258v-8.258c0-4.561 3.697-8.258 8.258-8.258h24.774c4.561 0 8.258 3.697 8.258 8.258v8.258c0 4.561-3.697 8.258-8.258 8.258z"/><path d="m363.355 256h-33.032c-4.561 0-8.258-3.697-8.258-8.258v-8.258c0-4.561 3.697-8.258 8.258-8.258h33.032c4.561 0 8.258 3.697 8.258 8.258v8.258c0 4.561-3.697 8.258-8.258 8.258z"/><path d="m297.29 256h-33.032c-4.561 0-8.258-3.697-8.258-8.258v-8.258c0-4.561 3.697-8.258 8.258-8.258h33.032c4.561 0 8.258 3.697 8.258 8.258v8.258c0 4.561-3.697 8.258-8.258 8.258z"/></g><path d="m222.968 247.742c-9.122 0-16.516-7.395-16.516-16.516h-8.258c-4.561 0-8.258 3.697-8.258 8.258v16.516c0 4.561 3.697 8.258 8.258 8.258h33.032c4.561 0 8.258-3.697 8.258-8.258v-8.258z" fill="#78c2a4"/><path d="m206.452 214.71h-8.258c-4.561 0-8.258-3.697-8.258-8.258v-16.516c0-4.561 3.697-8.258 8.258-8.258h8.258z" fill="#78c2a4"/><path d="m305.548 247.742v8.258c0 4.561-3.697 8.258-8.258 8.258h-33.032c-4.561 0-8.258-3.697-8.258-8.258v-8.258z" fill="#78c2a4"/><path d="m371.613 247.742v8.258c0 4.561-3.697 8.258-8.258 8.258h-33.032c-4.561 0-8.258-3.697-8.258-8.258v-8.258z" fill="#78c2a4"/><path d="m206.452 165.161h-8.258c-4.561 0-8.258-3.697-8.258-8.258v-16.516c0-4.561 3.697-8.258 8.258-8.258h8.258z" fill="#78c2a4"/></g></svg>