<?xml version="1.0" encoding="UTF-8"?>
<!DOCTYPE svg PUBLIC "-//W3C//DTD SVG 1.1//EN" "http://www.w3.org/Graphics/SVG/1.1/DTD/svg11.dtd">
<!-- Creator: CorelDRAW 2020 (64-Bit) -->
<svg xmlns="http://www.w3.org/2000/svg" xml:space="preserve" width="83.41mm" height="16.3827mm" version="1.1" style="shape-rendering:geometricPrecision; text-rendering:geometricPrecision; image-rendering:optimizeQuality; fill-rule:evenodd; clip-rule:evenodd"
viewBox="0 0 12992.65 2551.91"
 xmlns:xlink="http://www.w3.org/1999/xlink"
 xmlns:xodm="http://www.corel.com/coreldraw/odm/2003">
 <defs>
  <style type="text/css">
   <![CDATA[
    .fil0 {fill:#2B2A29;fill-rule:nonzero}
   ]]>
  </style>
 </defs>
 <g id="Layer_x0020_1">
  <metadata id="CorelCorpID_0Corel-Layer"/>
  <path class="fil0" d="M1101.88 2551.91c-223.56,0 -418.39,-47.91 -584.47,-143.73 -166.08,-95.81 -293.83,-228.9 -383.25,-399.23 -89.43,-170.33 -134.15,-365.17 -134.15,-584.47 0,-255.51 44.18,-471.64 132.54,-648.36 88.37,-176.73 211.33,-309.81 368.89,-399.23 157.56,-89.43 339.62,-134.15 546.16,-134.15 134.13,0 262.95,23.43 386.45,70.27 31.95,-14.91 78.26,-29.8 138.95,-44.71 60.67,-14.91 108.06,-23.43 142.12,-25.56 61.75,157.58 92.62,398.18 92.62,721.82l-309.81 0c-21.29,-136.27 -73.99,-241.66 -158.09,-316.19 -84.12,-74.52 -184.71,-111.78 -301.82,-111.78 -140.53,0 -250.73,60.16 -330.57,180.46 -79.85,120.3 -119.77,328.42 -119.77,624.4 0,327.89 39.39,559.99 118.18,696.25 78.77,136.28 199.07,204.42 360.9,204.42 59.61,0 109.66,-6.39 150.11,-19.16 40.45,-12.79 74.52,-34.08 102.2,-63.88l0 -364.11c0,-55.36 -23.96,-95.28 -71.86,-119.77 -47.91,-24.49 -122.96,-36.73 -225.18,-36.73 0,-38.32 7.46,-83.04 22.37,-134.13 14.91,-51.11 32.99,-88.37 54.29,-111.8l689.88 0c83.04,0 140.53,24.49 172.47,73.46 31.93,48.97 47.91,95.81 47.91,140.53 0,21.29 -5.33,40.45 -15.98,57.49 -76.65,0 -136.27,8.5 -178.85,25.55l0 367.3c0,68.13 11.71,116.03 35.14,143.71 14.89,14.91 22.35,34.07 22.35,57.49 0,38.32 -35.14,80.91 -105.39,127.76 -70.27,46.84 -164.49,86.23 -282.66,118.17 -118.18,31.93 -245.4,47.91 -381.68,47.91z"/>
  <path id="1" class="fil0" d="M3216.22 772.92c95.83,0 166.08,24.49 210.8,73.46 44.71,48.97 67.07,116.03 67.07,201.21 0,91.56 -23.96,166.08 -71.87,223.57 -47.9,57.49 -112.31,86.23 -193.22,86.23 -70.27,0 -127.23,-20.23 -170.88,-60.69 -43.65,-40.45 -65.47,-88.37 -65.47,-143.73 0,-34.07 3.19,-60.67 9.58,-79.85 -76.65,19.18 -141.59,52.17 -194.84,99.02l0 958.15c0,53.24 7.46,93.69 22.37,121.37 14.89,27.68 44.18,48.44 87.82,62.28 43.65,13.85 109.13,20.76 196.42,20.76 0,38.32 -4.25,70.8 -12.77,97.42 -8.52,26.61 -24.49,51.62 -47.91,75.05l-852.75 0c-48.97,-48.97 -73.46,-106.47 -73.46,-172.47 61.75,0 105.94,-13.3 132.54,-39.92 26.62,-26.62 39.92,-71.86 39.92,-135.74l0 -923.04c0,-57.48 -15.44,-97.93 -46.31,-121.36 -30.87,-23.43 -85.7,-35.13 -164.48,-35.13l0 -143.73c70.25,-40.45 163.42,-76.12 279.45,-107 116.05,-30.87 206.02,-46.31 269.88,-46.31 51.11,0 87.31,18.1 108.6,54.3 21.29,36.19 31.93,108.59 31.93,217.17 38.32,-72.39 99.01,-137.33 182.05,-194.82 83.04,-57.49 168.21,-86.23 255.51,-86.23z"/>
  <path id="2" class="fil0" d="M3548.39 2056.86c0,-142.67 46.84,-255.52 140.53,-338.56 93.68,-83.04 232.08,-124.55 415.2,-124.55 63.87,0 129.35,6.39 196.42,19.16 67.06,12.77 121.89,29.81 164.48,51.11l0 -424.78c0,-85.17 -21.29,-146.39 -63.88,-183.65 -42.59,-37.26 -100.07,-55.89 -172.47,-55.89 -70.27,0 -127.75,17.03 -172.47,51.09 40.45,12.77 70.8,34.6 91.03,65.49 20.22,30.87 30.34,65.47 30.34,103.79 0,68.13 -24.49,123.49 -73.46,166.08 -48.97,42.59 -110.72,63.88 -185.26,63.88 -80.91,0 -145.85,-23.43 -194.82,-70.27 -48.97,-46.84 -73.46,-107.53 -73.46,-182.05 0,-74.52 25.55,-144.79 76.65,-210.8 51.11,-66 129.35,-119.23 234.74,-159.69 105.41,-40.45 235.82,-60.67 391.26,-60.67 210.79,0 370.48,43.12 479.08,129.35 108.59,86.23 162.89,212.39 162.89,378.47l0 846.37c0,102.22 48.96,163.96 146.91,185.26l0 102.2c-27.68,38.32 -73.46,68.13 -137.33,89.43 -63.88,21.29 -128.82,31.93 -194.84,31.93 -144.79,0 -246.99,-50.03 -306.6,-150.11 -48.97,42.59 -108.6,78.26 -178.87,107 -70.27,28.75 -150.1,43.12 -239.54,43.12 -159.69,0 -289.04,-44.18 -388.05,-132.54 -99.01,-88.37 -148.51,-201.74 -148.51,-340.14zm916.64 -146.92c-23.43,-14.91 -51.64,-27.68 -84.63,-38.33 -33.01,-10.64 -64.41,-15.97 -94.22,-15.97 -59.63,0 -108.59,18.63 -146.92,55.89 -38.32,37.26 -57.49,91.03 -57.49,161.3 0,57.48 19.18,104.86 57.49,142.12 38.33,37.26 89.43,55.89 153.31,55.89 31.93,0 63.35,-4.78 94.22,-14.38 30.87,-9.58 56.95,-21.82 78.24,-36.73l0 -309.79z"/>
  <path id="3" class="fil0" d="M6969.02 2427.34c-29.81,38.32 -74.54,68.13 -134.15,89.43 -59.61,21.29 -123.49,31.95 -191.63,31.95 -61.75,0 -122.43,-13.32 -182.06,-39.92 -59.61,-26.62 -101.12,-63.35 -124.55,-110.19 -42.59,55.36 -95.28,94.21 -158.09,116.58 -62.82,22.35 -141.06,33.54 -234.76,33.54 -119.24,0 -228.89,-30.34 -328.97,-91.03 -100.07,-60.69 -180.46,-151.17 -241.13,-271.47 -60.69,-120.32 -91.03,-267.77 -91.03,-442.35 0,-206.55 38.86,-382.21 116.58,-527 77.71,-144.79 180.46,-253.37 308.2,-325.77 127.76,-72.39 268.3,-108.59 421.59,-108.59 36.2,0 101.14,4.25 194.84,12.77l-9.58 -191.63 0 -159.69c0,-53.24 -14.91,-92.62 -44.72,-118.18 -29.81,-25.55 -86.23,-38.32 -169.27,-38.32l0 -130.95c74.52,-40.45 171.41,-76.65 290.65,-108.59 119.23,-31.93 212.92,-47.91 281.05,-47.91 48.97,0 84.64,11.18 107,33.54 22.35,22.37 33.54,60.16 33.54,113.38l0 2005.75c0,104.33 51.09,166.08 153.31,185.24l3.19 89.43zm-804.86 -150.11c66,0 116.05,-19.16 150.11,-57.49l0 -1117.84c-44.72,-61.75 -104.33,-92.62 -178.85,-92.62 -93.69,0 -168.74,48.97 -225.18,146.92 -56.42,97.93 -84.63,256.57 -84.63,475.87 0,210.8 31.4,371.03 94.21,480.69 62.82,109.65 144.26,164.48 244.34,164.48z"/>
  <path id="4" class="fil0" d="M7071.22 2056.86c0,-142.67 46.84,-255.52 140.53,-338.56 93.68,-83.04 232.08,-124.55 415.2,-124.55 63.87,0 129.35,6.39 196.42,19.16 67.06,12.77 121.89,29.81 164.48,51.11l0 -424.78c0,-85.17 -21.29,-146.39 -63.88,-183.65 -42.59,-37.26 -100.07,-55.89 -172.47,-55.89 -70.27,0 -127.75,17.03 -172.47,51.09 40.45,12.77 70.8,34.6 91.03,65.49 20.22,30.87 30.34,65.47 30.34,103.79 0,68.13 -24.49,123.49 -73.46,166.08 -48.97,42.59 -110.72,63.88 -185.26,63.88 -80.91,0 -145.85,-23.43 -194.82,-70.27 -48.97,-46.84 -73.46,-107.53 -73.46,-182.05 0,-74.52 25.55,-144.79 76.65,-210.8 51.11,-66 129.35,-119.23 234.74,-159.69 105.41,-40.45 235.82,-60.67 391.26,-60.67 210.79,0 370.48,43.12 479.08,129.35 108.59,86.23 162.89,212.39 162.89,378.47l0 846.37c0,102.22 48.96,163.96 146.91,185.26l0 102.2c-27.68,38.32 -73.46,68.13 -137.33,89.43 -63.88,21.29 -128.82,31.93 -194.84,31.93 -144.79,0 -246.99,-50.03 -306.6,-150.11 -48.97,42.59 -108.6,78.26 -178.87,107 -70.27,28.75 -150.1,43.12 -239.54,43.12 -159.69,0 -289.04,-44.18 -388.05,-132.54 -99.01,-88.37 -148.51,-201.74 -148.51,-340.14zm916.64 -146.92c-23.43,-14.91 -51.64,-27.68 -84.63,-38.33 -33.01,-10.64 -64.41,-15.97 -94.22,-15.97 -59.63,0 -108.59,18.63 -146.92,55.89 -38.32,37.26 -57.49,91.03 -57.49,161.3 0,57.48 19.18,104.86 57.49,142.12 38.33,37.26 89.43,55.89 153.31,55.89 31.93,0 63.35,-4.78 94.22,-14.38 30.87,-9.58 56.95,-21.82 78.24,-36.73l0 -309.79z"/>
  <path id="5" class="fil0" d="M9754.07 782.5c121.36,0 233.15,30.34 335.35,91.03 102.2,60.67 184.18,152.76 245.93,276.26 61.75,123.51 92.62,274.68 92.62,453.54 0,198.01 -38.86,367.83 -116.58,509.43 -77.71,141.59 -182.58,248.59 -314.59,320.98 -132.01,72.4 -278.93,108.59 -440.76,108.59 -104.32,0 -219.84,-10.11 -346.52,-30.33 -126.69,-20.23 -225.18,-47.38 -295.43,-81.45l0 -1986.58c0,-104.33 -64.96,-156.5 -194.84,-156.5l0 -102.2c70.27,-48.97 162.36,-91.56 276.27,-127.76 113.91,-36.2 206,-54.3 276.27,-54.3 51.11,0 87.29,11.18 108.59,33.54 21.29,22.37 31.95,60.16 31.95,113.38l0 453.54 -9.58 303.41c80.91,-83.04 198.01,-124.55 351.32,-124.55zm-188.43 1526.67c93.68,0 169.27,-46.86 226.75,-140.53 57.49,-93.69 86.23,-245.93 86.23,-456.73 0,-221.44 -31.4,-386.45 -94.21,-495.05 -62.82,-108.59 -146.39,-162.89 -250.73,-162.89 -46.84,0 -87.29,11.71 -121.36,35.14l0 1159.37c40.45,40.45 91.55,60.69 153.31,60.69z"/>
  <path id="6" class="fil0" d="M10785.68 463.12c0,-53.23 -15.44,-93.15 -46.31,-119.77 -30.87,-26.62 -87.82,-39.92 -170.86,-39.92l0 -127.75c76.65,-42.59 173.53,-78.79 290.63,-108.6 117.11,-29.8 211.86,-44.71 284.26,-44.71 51.09,0 87.29,10.64 108.59,31.93 21.29,21.29 31.93,58.55 31.93,111.78l0 1992.98c0,66 13.32,111.78 39.92,137.33 26.62,25.56 71.87,38.33 135.75,38.33 0,59.61 -25.56,117.11 -76.65,172.47l-699.46 0c-48.97,-53.23 -73.46,-110.72 -73.46,-172.47 61.75,0 106.47,-13.3 134.15,-39.92 27.68,-26.62 41.51,-71.86 41.51,-135.74l0 -1695.95z"/>
  <path id="7" class="fil0" d="M12494.4 2181.41c134.15,0 258.72,-42.59 373.69,-127.76 17.04,17.04 31.93,42.59 44.72,76.65 12.77,34.07 19.16,63.88 19.16,89.43 0,38.33 -25.55,82.51 -76.65,132.56 -51.11,50.03 -121.9,93.15 -212.39,129.35 -90.5,36.19 -192.17,54.29 -305.01,54.29 -157.58,0 -295.45,-34.07 -413.61,-102.2 -118.17,-68.13 -209.2,-167.14 -273.08,-297.04 -63.88,-129.88 -95.81,-283.19 -95.81,-459.91 0,-180.99 34.6,-339.62 103.8,-475.89 69.19,-136.27 164.48,-241.13 285.85,-314.59 121.36,-73.46 258.7,-110.19 412.01,-110.19 193.76,0 348.13,56.42 463.1,169.27 114.99,112.85 172.48,269.35 172.48,469.5 0,93.68 -14.91,167.67 -44.72,221.97 -29.81,54.3 -83.04,81.44 -159.69,81.44l-689.87 0c12.77,308.75 144.79,463.12 396.03,463.12zm-156.49 -1184.92c-66.01,0 -121.37,36.73 -166.08,110.18 -44.72,73.46 -69.21,196.42 -73.46,368.89l322.58 0c34.07,0 56.42,-11.7 67.06,-35.13 10.65,-23.43 15.98,-59.61 15.98,-108.59 0,-125.63 -14.91,-212.94 -44.72,-261.91 -29.81,-48.96 -70.27,-73.44 -121.36,-73.44z"/>
 </g>
</svg>
